<svg width="42" height="42" viewBox="0 0 42 42" version="1.1" xmlns="http://www.w3.org/2000/svg" xmlns:xlink="http://www.w3.org/1999/xlink">
<title>Group</title>
<desc>Created using Figma</desc>
<g id="Canvas" transform="translate(-3141 -9586)">
<g id="Group">
<g id="Ellipse 17">
<mask id="mask0_outline_ins">
<use xlink:href="#path0_fill" fill="white" transform="translate(3141 9586)"/>
</mask>
<g mask="url(#mask0_outline_ins)">
<use xlink:href="#path1_stroke_2x" transform="translate(3141 9586)" fill="#FF8B10"/>
</g>
</g>
<g id="Line 6">
<use xlink:href="#path2_stroke" transform="translate(3154 9608)" fill="#FF8B10"/>
</g>
<g id="Line 6">
<use xlink:href="#path2_stroke" transform="matrix(6.12323e-17 -1 1 6.12323e-17 3163 9615)" fill="#FF8B10"/>
</g>
</g>
</g>
<defs>
<path id="path0_fill" d="M 42 21C 42 32.598 32.598 42 21 42C 9.40202 42 0 32.598 0 21C 0 9.40202 9.40202 0 21 0C 32.598 0 42 9.40202 42 21Z"/>
<path id="path1_stroke_2x" d="M 40 21C 40 31.4934 31.4934 40 21 40L 21 44C 33.7025 44 44 33.7025 44 21L 40 21ZM 21 40C 10.5066 40 2 31.4934 2 21L -2 21C -2 33.7025 8.29745 44 21 44L 21 40ZM 2 21C 2 10.5066 10.5066 2 21 2L 21 -2C 8.29745 -2 -2 8.29745 -2 21L 2 21ZM 21 2C 31.4934 2 40 10.5066 40 21L 44 21C 44 8.29745 33.7025 -2 21 -2L 21 2Z"/>
<path id="path2_stroke" d="M 0 0L 16 0L 16 -2L 0 -2L 0 0Z"/>
</defs>
</svg>
