<svg width="27" height="25" viewBox="0 0 27 25" version="1.1" xmlns="http://www.w3.org/2000/svg" xmlns:xlink="http://www.w3.org/1999/xlink">
<title>Union</title>
<desc>Created using Figma</desc>
<g id="Canvas" transform="translate(-3309 -9594)">
<g id="Union">
<use xlink:href="#path0_fill" transform="translate(3309 9594)" fill="#FF8B10"/>
</g>
</g>
<defs>
<path id="path0_fill" fill-rule="evenodd" d="M 0 2.00488L 0 0C 0.703613 0.0488281 1.36719 0.102539 2 0.162109C 6.09521 0.549805 8.91846 1.2002 13.0913 2.50879C 17.2642 1.2002 20.0874 0.549805 24.1826 0.162109C 24.8154 0.102539 25.479 0.0488281 26.1826 0L 26.1826 2.00488L 26.1826 22.4424C 21.6431 22.8535 18.6855 23.4521 14.1562 24.6895L 14.0264 24.7256L 14.0264 24.7803C 13.7959 24.7803 13.6392 24.8506 13.5029 24.9111C 13.3633 24.9746 13.2451 25.0273 13.0913 24.9844C 12.9375 25.0273 12.8193 24.9746 12.6797 24.9111C 12.5435 24.8506 12.3867 24.7803 12.1562 24.7803L 12.1562 24.7256L 12.0264 24.6895C 7.49707 23.4521 4.53955 22.8535 0 22.4424L 0 2.00488ZM 2 20.6357L 2 2.16895C 5.6958 2.52441 8.2666 3.10449 12.0264 4.27051L 12.0264 22.6182C 8.32031 21.6221 5.54297 21.0391 2 20.6357ZM 24.1826 20.6357C 20.6396 21.0391 17.8623 21.6221 14.1562 22.6182L 14.1562 4.27051C 17.916 3.10449 20.4868 2.52441 24.1826 2.16895L 24.1826 20.6357Z"/>
</defs>
</svg>
