<svg width="31" height="26" viewBox="0 0 31 26" version="1.1" xmlns="http://www.w3.org/2000/svg" xmlns:xlink="http://www.w3.org/1999/xlink">
<title>Group</title>
<desc>Created using Figma</desc>
<g id="Canvas" transform="translate(-1331 -2476)">
<g id="Group">
<g id="Union">
<use xlink:href="#path0_fill" transform="matrix(0.965597 0.260044 -0.257599 0.966252 1347.37 2476)" fill="#FF8B10"/>
</g>
<g id="Union">
<use xlink:href="#path1_fill" transform="matrix(-0.965597 0.260044 0.257599 0.966252 1345.63 2476)" fill="#FF8B10"/>
</g>
</g>
</g>
<defs>
<path id="path0_fill" fill-rule="evenodd" d="M 1.74852 1.75628L 13.4048 1.75613L 13.4048 21.0738L 1.7485 21.0737L 1.74852 1.75628ZM 0 1.75613C 4.26818e-05 0.786381 0.782871 0.000124243 1.74846 0L 13.4048 7.60121e-05C 14.3705 0.000187511 15.1533 0.786296 15.1533 1.75628L 15.1533 21.0737C 15.1533 22.0437 14.3705 22.83 13.4048 22.8299L 1.74846 22.8298C 0.782871 22.8299 3.2742e-05 22.0436 7.54239e-05 21.0738L 0 1.75613ZM 7.57664 11.1222C 9.18601 11.1222 10.4907 9.81166 10.4907 8.19534C 10.4907 6.57878 9.18602 5.26836 7.57664 5.26841C 5.96725 5.26847 4.66253 6.57873 4.66254 8.1953C 4.66255 9.81186 5.96724 11.1223 7.57664 11.1222Z"/>
<path id="path1_fill" fill-rule="evenodd" d="M 1.74848 1.7562L 13.4048 1.75605L 13.4048 21.0737L 8.27374 21.0736L 7.81844 19.7814L 4.95251 22.8298L 13.4048 22.8298C 14.3705 22.8299 15.1533 22.0436 15.1533 21.0736L 15.1533 1.7562C 15.1532 0.786215 14.3705 0.0001066 13.4048 -4.89899e-06L 1.74842 -8.0911e-05C 0.782833 4.33321e-05 4.86772e-06 0.7863 -3.78141e-05 1.75605L 1.78414e-06 6.96933L 4.60436 13.6086C 5.02567 14.1529 6.00828 15.5283 6.79355 16.8726L 6.33363 15.5673L 1.74845 6.49878L 1.74848 1.7562ZM 6.79355 16.8726L 7.81844 19.7814L 7.90457 19.6898C 7.97672 19.116 7.45519 18.0054 6.79355 16.8726ZM 7.57667 11.1224C 9.18607 11.1223 10.4907 9.81182 10.4907 8.19549C 10.4907 6.57893 9.18604 5.26852 7.57667 5.26857C 5.96727 5.26863 4.66255 6.57889 4.66257 8.19545C 4.66258 9.81202 5.96727 11.1224 7.57667 11.1224Z"/>
</defs>
</svg>
