<svg width="23" height="17" viewBox="0 0 23 17" version="1.1" xmlns="http://www.w3.org/2000/svg" xmlns:xlink="http://www.w3.org/1999/xlink">
<title>Vector 3</title>
<desc>Created using Figma</desc>
<g id="Canvas" transform="translate(332 -7276)">
<rect x="-332" y="7276" width="23" height="17" fill="#F2F2F2"/>
<clipPath id="clip-0" clip-rule="evenodd">
<path d="M -683 6777L -269 6777L -269 7802L -683 7802L -683 6777Z" fill="#FFFFFF"/>
</clipPath>
<g id="01-create account" clip-path="url(#clip-0)">
<path d="M -683 6777L -269 6777L -269 7802L -683 7802L -683 6777Z" fill="#FFFFFF"/>
<g id="Group">
<g id="Rectangle 3">
<use xlink:href="#path0_stroke" transform="translate(-663 7260.5)" fill="#E0E0E0"/>
</g>
</g>
<g id="Vector 3">
<use xlink:href="#path1_stroke" transform="matrix(1.60812e-16 1 1 -1.60812e-16 -330 7278)" fill="#FF8B10"/>
</g>
</g>
</g>
<defs>
<path id="path0_stroke" d="M 25 0.5L 349 0.5L 349 -0.5L 25 -0.5L 25 0.5ZM 349 49.5L 25 49.5L 25 50.5L 349 50.5L 349 49.5ZM 25 -0.5C 10.9167 -0.5 -0.5 10.9167 -0.5 25L 0.5 25C 0.5 11.469 11.469 0.5 25 0.5L 25 -0.5ZM 349 0.5C 362.531 0.5 373.5 11.4691 373.5 25L 374.5 25C 374.5 10.9168 363.083 -0.5 349 -0.5L 349 0.5ZM 373.5 25C 373.5 38.531 362.531 49.5 349 49.5L 349 50.5C 363.083 50.5 374.5 39.0833 374.5 25L 373.5 25ZM 25 49.5C 11.469 49.5 0.5 38.531 0.5 25L -0.5 25C -0.5 39.0833 10.9167 50.5 25 50.5L 25 49.5Z"/>
<path id="path1_stroke" d="M 7.60573 -1.01359C 7.04594 -1.62427 6.09709 -1.66552 5.48641 -1.10573C 4.87573 -0.545943 4.83448 0.402908 5.39427 1.01359L 7.60573 -1.01359ZM 12 6L 13.1022 7.01742L 14.0381 6.00354L 13.1057 4.98641L 12 6ZM -1.10221 17.9826C -1.66411 18.5913 -1.62615 19.5403 -1.01742 20.1022C -0.408689 20.6641 0.5403 20.6262 1.10221 20.0174L -1.10221 17.9826ZM 5.39427 1.01359L 10.8943 7.01359L 13.1057 4.98641L 7.60573 -1.01359L 5.39427 1.01359ZM 10.8978 4.98258L -1.10221 17.9826L 1.10221 20.0174L 13.1022 7.01742L 10.8978 4.98258Z"/>
</defs>
</svg>
