<?xml version="1.0" encoding="UTF-8"?>
<svg width="34px" height="40px" viewBox="0 0 34 40" version="1.1" xmlns="http://www.w3.org/2000/svg" xmlns:xlink="http://www.w3.org/1999/xlink">
    <!-- Generator: Sketch 47.1 (45422) - http://www.bohemiancoding.com/sketch -->
    <title>Untitled</title>
    <desc>Created with Sketch.</desc>
    <defs></defs>
    <g id="Page-1" stroke="none" stroke-width="1" fill="none" fill-rule="evenodd">
        <g id="icon_user_map" fill-rule="nonzero" fill="#FF5A00">
            <path d="M10.0705,20.021 C4.67347,15.249 5.04118,7.51131 9.34694,3.20308 C13.5459,-0.995308 20.1054,-1.06854 24.423,2.9956 C28.7762,7.09635 29.5235,15.0904 23.9486,19.9966 C24.6484,20.1431 25.3364,20.2529 26.0125,20.4482 C30.6741,21.7785 33.8767,26.0013 33.9716,30.993 C34.0191,33.5193 33.9953,36.0335 33.9835,38.5599 C33.9835,39.5606 33.5209,40 32.4889,40 C26.5818,40 20.6748,40 14.7677,40 C10.3789,40 5.99011,40 1.60132,40 C0.391433,40 3.55271368e-15,39.585 3.55271368e-15,38.3646 C3.55271368e-15,36.0457 3.55271368e-15,33.7268 3.55271368e-15,31.4079 C3.55271368e-15,25.4521 4.08039,20.7655 9.84513,20.0943 C9.89257,20.0821 9.95188,20.0577 10.0705,20.021 Z M2.31301,37.4126 C12.17,37.4126 21.8609,37.4126 31.5637,37.4126 C31.5637,35.1304 31.6586,32.8847 31.54,30.6635 C31.3976,27.8808 30.1166,25.6718 27.9103,24.0608 C26.6056,23.1088 25.1466,22.5352 23.5453,22.523 C19.1446,22.4986 14.7321,22.4131 10.3315,22.5474 C6.58319,22.6572 3.2738,25.5497 2.69258,29.3454 C2.27743,31.9816 2.41977,34.691 2.31301,37.4126 Z M17.0095,2.49521 C12.3361,2.48301 8.50477,6.40069 8.48104,11.1971 C8.45732,15.9813 12.2886,19.96 16.9384,19.9722 C21.6237,19.9966 25.4906,16.0423 25.5024,11.2337 C25.5024,6.44951 21.683,2.50742 17.0095,2.49521 Z" id="path0_fill"></path>
        </g>
        <polygon id="Path" fill="#FFFFFF" points="20.9963379 18.9619141 19.9812012 18.9619141 12.9949951 18.9619141 12.9949951 18.036499 12.0338135 18.036499 12.0338135 16.9959717 11.0133057 16.9959717 11.0133057 16.0063477 10.0777588 16.0063477 10.0777588 15.0584717 10.0777588 14.0493164 9.03918457 14.0493164 9.03918457 8.01245117 10.0777588 8.01245117 10.0777588 7.07421875 10.0777588 6.03601074 11.0133057 6.03601074 11.0133057 5.00500488 12.0338135 5.00500488 12.0338135 3.98486328 12.9949951 3.98486328 14.0386963 3.98486328 14.0386963 2.99926758 20.0372314 2.99926758 20.0372314 3.98486328 20.9963379 3.98486328 22.0244141 3.98486328 22.0244141 5.00500488 23.0274658 5.00500488 23.0274658 6.03601074 23.9969482 6.03601074 23.9969482 7.07421875 23.9969482 8.01245117 25.0185547 8.01245117 25.0185547 14.0493164 23.9969482 14.0493164 23.9969482 15.0584717 23.9969482 16.0063477 23.0274658 16.0063477 23.0274658 16.9959717 22.0244141 16.9959717 22.0244141 18.036499 20.9963379 18.036499"></polygon>
        <path d="M7.9957817,23 L7.9957817,24.0692873 L5.98628069,24.0692873 L5.98628069,24.9649827 L4.95820083,24.9649827 L4.95820083,25.9590915 L3.98630687,25.9590915 L3.98630687,27.0300819 L3.98630687,27.8721304 L3,27.8721304 L3,37 L31,37 L31,27.8721304 L30.0124717,27.8721304 L30.0124717,27.0300819 L30.0124717,25.9590915 L28.9271066,25.9590915 L28.9271066,24.9649827 L28.0663631,24.9649827 L28.0663631,24.0692873 L27.0162974,24.0692873 L25.9669646,23.9173488 L25.9669646,23 C15.0592046,23 9.42648648,23 9.06881028,23" id="Path-2" fill="#FFFFFF"></path>
    </g>
</svg>