<?xml version="1.0" encoding="UTF-8"?>
<svg width="34px" height="40px" viewBox="0 0 34 40" version="1.1" xmlns="http://www.w3.org/2000/svg" xmlns:xlink="http://www.w3.org/1999/xlink">
    <!-- Generator: Sketch 47.1 (45422) - http://www.bohemiancoding.com/sketch -->
    <title>Untitled 3</title>
    <desc>Created with Sketch.</desc>
    <defs>
        <path d="M8.46598775,22.6469254 C7.86313523,22.6469254 6.94864234,22.9682254 5.72250909,23.6108254 C4.90508693,24.0392254 4.69193117,24.1553313 5.08304182,23.9591432 L3.87190046,25.7800239 L2.91918894,27.1371387 L1.91528843,28.5911902 L1.91528843,38.5996567 L32.6095533,38.5996567 L32.6095533,28.5911902 L30.2328705,24.7177024 L27.6753533,23.1358476 L25.8389334,22 L24.4170723,22 L8.46598775,22" id="path-1"></path>
    </defs>
    <g id="Page-1" stroke="none" stroke-width="1" fill="none" fill-rule="evenodd">
        <g id="users" fill-rule="nonzero" fill="#FF5A00">
            <path d="M10.0705,20.021 C4.67347,15.249 5.04118,7.51131 9.34694,3.20308 C13.5459,-0.995308 20.1054,-1.06854 24.423,2.9956 C28.7762,7.09635 29.5235,15.0904 23.9486,19.9966 C24.6484,20.1431 25.3364,20.2529 26.0125,20.4482 C30.6741,21.7785 33.8767,26.0013 33.9716,30.993 C34.0191,33.5193 33.9953,36.0335 33.9835,38.5599 C33.9835,39.5606 33.5209,40 32.4889,40 C26.5818,40 20.6748,40 14.7677,40 C10.3789,40 5.99011,40 1.60132,40 C0.391433,40 3.55271368e-15,39.585 3.55271368e-15,38.3646 C3.55271368e-15,36.0457 3.55271368e-15,33.7268 3.55271368e-15,31.4079 C3.55271368e-15,25.4521 4.08039,20.7655 9.84513,20.0943 C9.89257,20.0821 9.95188,20.0577 10.0705,20.021 Z M2.31301,37.4126 C12.17,37.4126 21.8609,37.4126 31.5637,37.4126 C31.5637,35.1304 31.6586,32.8847 31.54,30.6635 C31.3976,27.8808 30.1166,25.6718 27.9103,24.0608 C26.6056,23.1088 25.1466,22.5352 23.5453,22.523 C19.1446,22.4986 14.7321,22.4131 10.3315,22.5474 C6.58319,22.6572 3.2738,25.5497 2.69258,29.3454 C2.27743,31.9816 2.41977,34.691 2.31301,37.4126 Z M17.0095,2.49521 C12.3361,2.48301 8.50477,6.40069 8.48104,11.1971 C8.45732,15.9813 12.2886,19.96 16.9384,19.9722 C21.6237,19.9966 25.4906,16.0423 25.5024,11.2337 C25.5024,6.44951 21.683,2.50742 17.0095,2.49521 Z" id="path0_fill"></path>
        </g>
        <g id="Path" fill="#FF5A00">
            <use xlink:href="#path-1"></use>
            <use xlink:href="#path-1"></use>
        </g>
        <path d="M26.2398025,10.483684 L26.2398025,8.40389845 C26.138743,7.0514778 25.9063741,6.37526748 25.5426957,6.37526748 C25.1790173,6.37526748 24.8555397,5.76759763 24.5722628,4.55225794 L20.4362629,2.41680412 L16.316813,1.69361849 L13.5589782,1.69361849 L10.1441579,3.77741619 L8.48363944,7.27247905 L7.68271888,10.483684 L7.68271888,14.0153575 L9.01173547,16.2646554 L10.7449737,18.6985111 L13.5589782,19.7060561 L15.7009518,20.5486024 L18.265703,20.5486024 L20.4362629,20.5486024 L22.0496389,19.7060561 L23.9553985,17.6849478 L25.5426957,15.3684469 L26.2398025,13.3774296 L26.2398025,11.1211105 L26.2398025,10.483684 Z" id="Path-2" fill="#FF5A00"></path>
    </g>
</svg>