<?xml version="1.0" encoding="utf-8"?>
<!-- Generator: Adobe Illustrator 21.0.0, SVG Export Plug-In . SVG Version: 6.00 Build 0)  -->
<svg version="1.1" id="Слой_1" xmlns="http://www.w3.org/2000/svg" xmlns:xlink="http://www.w3.org/1999/xlink" x="0px" y="0px"
	 viewBox="0 0 150 45" style="enable-background:new 0 0 150 45;" xml:space="preserve">
<style type="text/css">
	.st0{fill:#FFFFFF;}
</style>
<g>
	<path class="st0" d="M11,21.6c0,0,0,12.7,0,19.2c-3,0-5.9,0-8.9,0c0-0.3,0-0.6,0-0.9c0-10.6,0-21.2,0-31.8c0-3.3,3.1-5.4,6-4.1
		c0.8,0.4,1.5,1,2,1.7c4.6,5.4,9.2,10.7,13.8,16.1c0.6,0.8,1.3,1.5,2.2,2.5c0-6.9,0-13.5,0-20.1c3,0,5.9,0,8.9,0c0,0.5,0,1.1,0,1.6
		c0,10.2,0,20.4,0,30.6c0,2.4-0.9,4.1-2.7,4.7c-1.9,0.7-3.6,0.1-5.3-1.8c-5-5.7-9.9-11.4-14.9-17C11.9,22.1,11,21,11,21L11,21.6z"/>
	<path class="st0" d="M138.5,4.3c3,0,6,0,9,0c0,0.4,0,0.7,0,1.1c0,6.4,0.1,12.8,0,19.1c-0.1,8.4-5.6,15.2-13.7,16.8
		c-9.9,2.1-19.8-5.2-20.4-15.4c-0.4-7.1-0.1-14.3-0.1-21.6c2.9,0,5.8,0,8.9,0c0,0.6,0,1.1,0,1.7c0,6.1,0,12.1,0,18.2
		c0,5.9,5.2,9.9,10.6,8.2c3.1-1,5.5-3.7,5.6-6.9c0.2-6.3,0.1-12.5,0.1-18.8C138.5,6,138.5,5.2,138.5,4.3z"/>
	<path class="st0" d="M92.7,41c-3,0-6.1,0.1-9.1-0.1c-0.4,0-1-0.7-1.3-1.3c-2.6-6-5.1-12-7.7-18c-0.1-0.2-0.2-0.6-0.4-1
		c-2.4,5.6-4.8,11.1-7.1,16.6C65.5,41,65.5,41,61.5,41c-1.9,0-3.8,0-6,0c0.9-2.1,1.8-4.1,2.6-6.1C62.1,25.6,66,16.4,70,7.2
		c0.3-0.8,0.8-1.5,1.3-2.1c2.2-2,5.5-1.4,6.7,1.5c4.9,11.3,9.7,22.6,14.5,33.9C92.5,40.6,92.6,40.7,92.7,41z"/>
</g>
</svg>
