<?xml version="1.0" encoding="utf-8"?>
<!-- Generator: Adobe Illustrator 21.0.0, SVG Export Plug-In . SVG Version: 6.00 Build 0)  -->
<svg version="1.1" id="Слой_1" xmlns="http://www.w3.org/2000/svg" xmlns:xlink="http://www.w3.org/1999/xlink" x="0px" y="0px"
	 viewBox="0 0 304 105" style="enable-background:new 0 0 304 105;" xml:space="preserve">
<style type="text/css">
	.st0{fill:url(#SVGID_1_);}
	.st1{fill:url(#SVGID_2_);}
	.st2{fill:url(#SVGID_3_);}
	.st3{fill:url(#SVGID_4_);}
	.st4{fill:#464C59;}
</style>
<g>
	<g>
		<linearGradient id="SVGID_1_" gradientUnits="userSpaceOnUse" x1="91.8438" y1="4.2097" x2="120.0669" y2="71.4076">
			<stop  offset="1.025640e-02" style="stop-color:#D76443"/>
			<stop  offset="0.3316" style="stop-color:#D97043"/>
			<stop  offset="0.7525" style="stop-color:#DD7E43"/>
			<stop  offset="1" style="stop-color:#DE8444"/>
		</linearGradient>
		<circle class="st0" cx="107.5" cy="41.6" r="5.1"/>
		<linearGradient id="SVGID_2_" gradientUnits="userSpaceOnUse" x1="49.366" y1="22.0504" x2="77.5891" y2="89.2483">
			<stop  offset="1.025640e-02" style="stop-color:#D76443"/>
			<stop  offset="0.3316" style="stop-color:#D97043"/>
			<stop  offset="0.7525" style="stop-color:#DD7E43"/>
			<stop  offset="1" style="stop-color:#DE8444"/>
		</linearGradient>
		<circle class="st1" cx="76.9" cy="87.7" r="12.5"/>
		<linearGradient id="SVGID_3_" gradientUnits="userSpaceOnUse" x1="73.2651" y1="12.0129" x2="101.4882" y2="79.2108">
			<stop  offset="1.025640e-02" style="stop-color:#D76443"/>
			<stop  offset="0.3316" style="stop-color:#D97043"/>
			<stop  offset="0.7525" style="stop-color:#DD7E43"/>
			<stop  offset="1" style="stop-color:#DE8444"/>
		</linearGradient>
		<circle class="st2" cx="94.1" cy="61.7" r="8.6"/>
		<linearGradient id="SVGID_4_" gradientUnits="userSpaceOnUse" x1="28.3424" y1="30.8803" x2="56.5656" y2="98.0784">
			<stop  offset="1.025640e-02" style="stop-color:#D76443"/>
			<stop  offset="0.3316" style="stop-color:#D97043"/>
			<stop  offset="0.7525" style="stop-color:#DD7E43"/>
			<stop  offset="1" style="stop-color:#DE8444"/>
		</linearGradient>
		<path class="st3" d="M70.3,46.2c-0.9-0.4-1.8-0.7-2.7-0.8c-1.7-0.3-3.1-1.4-3.7-3l0,0c-0.6-1.8,0-3.8,1.5-4.9
			c3.6-2.7,6.1-6.8,6.5-11.7c0.8-8.3-4.9-16.2-13.1-18c-9.5-2.1-18.6,4.2-20.2,13.7c-0.7,4.2,0.6,8.2,2.4,11.7
			c1.4,2.5,1.4,5.8-0.2,8.2l0,0c-1.9,2.3-3.7,3.4-6.4,3.3c-0.9,0-1.9-0.2-2.8-0.2c-7.6,0.3-13.8,6.8-13.8,14.4
			c0,2.8,0.8,5.5,2.3,7.7c1.5,2.4,0.3,5.5-1.3,7.8l-0.9,1.3c-1.3,2-3.5,3.2-5.9,3.5c-0.6,0.1-1.2,0.2-1.8,0.4
			C7.1,81,4.9,84,4.9,87.4c0,5.6,5.3,9.6,10.7,7.9c3.2-1,5.4-3.9,5.6-7.2c0.1-1,0-1.9-0.3-2.7c-0.7-2.4-0.3-5,1.1-7.1l1.1-1.7
			c1.4-2.2,5.2-3.4,7.8-3.2c1.5,0.1,3,0,4.6-0.3c5.8-1.4,10.3-6.4,11-12.3c0.3-3-0.2-5.8-1.5-8.3c-1.3-2.4-1.8-5.4-0.3-7.7l0.4-0.6
			c1.7-2.5,4.3-3.8,7.3-3.4l0,0c0.9,0.2,1.9,0.2,2.8,0.2c1.9,0,3.5,1.2,4.1,3l0,0.1c0.5,1.6,0.1,3.3-1.1,4.6
			c-1.3,1.3-2.2,2.9-2.7,4.9c-1.1,4.5,1,9.3,5,11.5c5.6,3.2,12.6,0.7,14.9-5.1C77.9,54.7,75.4,48.5,70.3,46.2z"/>
	</g>
	<g>
		<path class="st4" d="M161,57.6c0,0,0,12.7,0,19.2c-3,0-5.9,0-8.9,0c0-0.3,0-0.6,0-0.9c0-10.6,0-21.2,0-31.8c0-3.3,3.1-5.4,6-4.1
			c0.8,0.4,1.5,1,2,1.7c4.6,5.4,9.2,10.7,13.8,16.1c0.6,0.8,1.3,1.5,2.2,2.5c0-6.9,0-13.5,0-20.1c3,0,5.9,0,8.9,0c0,0.5,0,1.1,0,1.6
			c0,10.2,0,20.4,0,30.6c0,2.4-0.9,4.1-2.7,4.7c-1.9,0.7-3.6,0.1-5.3-1.8c-5-5.7-9.9-11.4-14.9-17c-0.3-0.3-1.1-1.4-1.1-1.4
			L161,57.6z"/>
		<path class="st4" d="M288.5,40.3c3,0,6,0,9,0c0,0.4,0,0.7,0,1.1c0,6.4,0.1,12.8,0,19.1c-0.1,8.4-5.6,15.2-13.7,16.8
			c-9.9,2.1-19.8-5.2-20.4-15.4c-0.4-7.1-0.1-14.3-0.1-21.6c2.9,0,5.8,0,8.9,0c0,0.6,0,1.1,0,1.7c0,6.1,0,12.1,0,18.2
			c0,5.9,5.2,9.9,10.6,8.2c3.1-1,5.5-3.7,5.6-6.9c0.2-6.3,0.1-12.5,0.1-18.8C288.5,42,288.5,41.2,288.5,40.3z"/>
		<path class="st4" d="M242.7,77c-3,0-6.1,0.1-9.1-0.1c-0.4,0-1-0.7-1.3-1.3c-2.6-6-5.1-12-7.7-18c-0.1-0.2-0.2-0.6-0.4-1
			c-2.4,5.6-4.8,11.1-7.1,16.6c-1.6,3.7-1.6,3.7-5.6,3.7c-1.9,0-3.8,0-6,0c0.9-2.1,1.8-4.1,2.6-6.1c3.9-9.2,7.9-18.5,11.8-27.7
			c0.3-0.8,0.8-1.5,1.3-2.1c2.2-2,5.5-1.4,6.7,1.5c4.9,11.3,9.7,22.6,14.5,33.9C242.5,76.6,242.6,76.7,242.7,77z"/>
	</g>
</g>
</svg>
