<?xml version="1.0" encoding="UTF-8"?>
<svg width="14px" height="14px" viewBox="0 0 14 14" version="1.1" xmlns="http://www.w3.org/2000/svg" xmlns:xlink="http://www.w3.org/1999/xlink">
    <!-- Generator: Sketch 47.1 (45422) - http://www.bohemiancoding.com/sketch -->
    <title>Untitled 4</title>
    <desc>Created with Sketch.</desc>
    <defs></defs>
    <g id="Page-1" stroke="none" stroke-width="1" fill="none" fill-rule="evenodd">
        <g id="scan_qr" stroke="#FF5A00">
            <path d="M0.5,0.5 L4.5,0.5 L4.5,4.5 L0.5,4.5 L0.5,0.5 Z M2,2.5 L3,2.5 L2,2.5 Z" id="A"></path>
            <g id="A-link" transform="translate(9.500000, 0.500000)">
                <path d="M0,0 L4,0 L4,4 L0,4 L0,0 Z M1.5,2 L2.5,2 L1.5,2 Z" id="A"></path>
            </g>
            <g id="A-link" transform="translate(0.500000, 9.500000)">
                <path d="M0,0 L4,0 L4,4 L0,4 L0,0 Z M1.5,2 L2.5,2 L1.5,2 Z" id="A"></path>
            </g>
            <polyline id="Shape" points="8 0.5 6.5 0.5 6.5 2.5 7.5 2.5 7.5 4.5 6.5 4.5 6.5 6"></polyline>
            <path d="M0,6.5 L1,6.5 M2,6.5 L4,6.5 M7,6.5 L8,6.5 M9,6.5 L11,6.5 M13,6.5 L14,6.5" id="Shape"></path>
            <path d="M1,7.5 L2,7.5 M3,7.5 L7,7.5 M10,7.5 L11,7.5 M12,7.5 L14,7.5" id="Shape"></path>
            <path d="M6,8.5 L7,8.5 M8,8.5 L9,8.5 M12,8.5 L13,8.5" id="Shape"></path>
            <path d="M7,9.5 L8,9.5 M9,9.5 L13,9.5" id="Shape"></path>
            <path d="M6,10.5 L7,10.5 M8,10.5 L9,10.5 M11,10.5 L12,10.5 M13,10.5 L14,10.5" id="Shape"></path>
            <path d="M6,11.5 L8,11.5 M9,11.5 L10,11.5 M11,11.5 L13,11.5" id="Shape"></path>
            <path d="M6,12.5 L7,12.5 M10,12.5 L11,12.5 M13,12.5 L14,12.5" id="Shape"></path>
            <path d="M7,13.5 L11,13.5 M12,13.5 L13,13.5" id="Shape"></path>
        </g>
    </g>
</svg>