<svg width="24" height="24" viewBox="0 0 24 24" version="1.1" xmlns="http://www.w3.org/2000/svg" xmlns:xlink="http://www.w3.org/1999/xlink">
<title>Vector</title>
<desc>Created using Figma</desc>
<g id="Canvas" transform="translate(-617 -1518)">
<g id="Vector">
<use xlink:href="#path0_fill" transform="translate(617 1518)" fill="#FF5A00"/>
</g>
</g>
<defs>
<path id="path0_fill" d="M 10.4282 7.79749e-06C 10.0941 -0.0012688 9.77855 0.28115 9.69415 0.55054L 9.02394 2.89628C 8.55306 3.05101 8.10143 3.23324 7.66756 3.4548L 5.53724 2.27394C 5.248 2.11174 4.85366 2.1666 4.61969 2.4016L 2.40958 4.61969C 2.17814 4.85256 2.12353 5.24168 2.28192 5.52926L 3.46277 7.66756C 3.24345 8.09757 3.058 8.54964 2.90426 9.01595L 0.558523 9.68616C 0.238365 9.77627 -0.00199683 10.0956 1.2527e-05 10.4282L 1.2527e-05 13.5718C 0.00154444 13.9017 0.240929 14.2165 0.558523 14.3059L 2.89629 14.9681C 3.05046 15.4379 3.24204 15.8914 3.46277 16.3245L 2.28192 18.4628C 2.12353 18.7504 2.17814 19.1395 2.40958 19.3723L 4.61969 21.5904C 4.85366 21.8254 5.248 21.8803 5.53724 21.7181L 7.66756 20.5372C 8.10172 20.7589 8.55272 20.949 9.02394 21.1038L 9.69415 23.4415C 9.78353 23.7591 10.0983 23.9986 10.4282 24L 13.5718 24C 13.9017 23.9974 14.2165 23.7591 14.3058 23.4415L 14.9761 21.1038C 15.4473 20.949 15.8983 20.7589 16.3324 20.5372L 18.4628 21.7181C 18.752 21.8803 19.1463 21.8254 19.3803 21.5904L 21.5904 19.3723C 21.8219 19.1395 21.8765 18.7504 21.7181 18.4628L 20.5372 16.3245C 20.758 15.8914 20.9495 15.4379 21.1037 14.9681L 23.4415 14.3059C 23.7591 14.2165 23.9985 13.9017 24 13.5718L 24 10.4282C 24.002 10.0956 23.7616 9.77627 23.4415 9.68616L 21.0957 9.01595C 20.942 8.54964 20.7566 8.09757 20.5372 7.66756L 21.7181 5.52926C 21.8765 5.24168 21.8219 4.85256 21.5904 4.61969L 19.3803 2.4016C 19.1463 2.1666 18.752 2.11174 18.4628 2.27394L 16.3324 3.4548C 15.8986 3.23324 15.4469 3.05101 14.9761 2.89628L 14.3058 0.55054C 14.2136 0.235856 13.8997 0.000459712 13.5718 7.79749e-06L 10.4282 7.79749e-06ZM 11.0027 1.53192L 12.9973 1.53192L 13.6117 3.69416C 13.6818 3.9482 13.8922 4.1586 14.1463 4.22873C 14.7915 4.40648 15.3997 4.6603 15.9734 4.98671C 16.1998 5.11703 16.4942 5.12016 16.7234 4.99467L 18.7021 3.89361L 20.1064 5.29787L 19.0053 7.26859C 18.8774 7.49642 18.8774 7.7908 19.0053 8.01859C 19.3317 8.5923 19.5935 9.20851 19.7713 9.8537C 19.84 10.1059 20.0467 10.3158 20.2979 10.3883L 22.4681 11.0026L 22.4681 12.9894L 20.2979 13.6117C 20.0486 13.6828 19.8424 13.889 19.7713 14.1383C 19.5935 14.7835 19.3317 15.3997 19.0053 15.9734C 18.8774 16.2012 18.8774 16.4956 19.0053 16.7234L 20.1064 18.7021L 18.7021 20.0984L 16.7234 18.9973C 16.4942 18.8719 16.1998 18.875 15.9734 19.0053C 15.3997 19.3317 14.7915 19.5935 14.1463 19.7712C 13.8941 19.8399 13.6842 20.0467 13.6117 20.2978L 12.9973 22.468L 11.0027 22.468L 10.3883 20.2978C 10.3158 20.0467 10.1059 19.8399 9.85373 19.7712C 9.20852 19.5935 8.60029 19.3317 8.0266 19.0053C 7.80016 18.8749 7.50576 18.8718 7.2766 18.9973L 5.29788 20.0984L 3.89363 18.7021L 4.99469 16.7234C 5.12258 16.4956 5.12258 16.2012 4.99469 15.9734C 4.66828 15.3997 4.40648 14.7835 4.22873 14.1383C 4.15764 13.889 3.95143 13.6828 3.70214 13.6117L 1.53193 12.9894L 1.53193 11.0026L 3.70214 10.3883C 3.95327 10.3158 4.16001 10.1059 4.22873 9.8537C 4.40648 9.20851 4.66828 8.5923 4.99469 8.01859C 5.12258 7.7908 5.12258 7.49642 4.99469 7.26859L 3.89363 5.29788L 5.29788 3.89363L 7.2766 4.99469C 7.50576 5.12017 7.80016 5.11703 8.0266 4.98673C 8.60029 4.66032 9.20852 4.4065 9.85373 4.22875C 10.1078 4.15862 10.3182 3.94822 10.3883 3.69417L 11.0027 1.53192ZM 12 6.38297C 8.90688 6.38297 6.38298 8.9069 6.38298 12C 6.38298 15.0931 8.90688 17.617 12 17.617C 15.0931 17.617 17.617 15.0931 17.617 12C 17.617 8.9069 15.0931 6.38297 12 6.38297ZM 12 7.91489C 14.2652 7.91489 16.0851 9.7348 16.0851 12C 16.0851 14.2652 14.2652 16.0851 12 16.0851C 9.73479 16.0851 7.9149 14.2652 7.9149 12C 7.9149 9.7348 9.73479 7.91489 12 7.91489Z"/>
</defs>
</svg>
