<svg width="32" height="30" viewBox="0 0 32 30" version="1.1" xmlns="http://www.w3.org/2000/svg" xmlns:xlink="http://www.w3.org/1999/xlink">
<title>Vector</title>
<desc>Created using Figma</desc>
<g id="Canvas" transform="translate(-2126 -4119)">
<g id="Vector">
<use xlink:href="#path0_stroke" transform="matrix(-1 0 0 1 2157 4120)" fill="#FF8B10"/>
</g>
</g>
<defs>
<path id="path0_stroke" d="M 0 25.8333L -1 25.8333L -1 28.0141L 0.652523 26.5911L 0 25.8333ZM 7.5 19.375L 7.5 18.375L 7.12878 18.375L 6.84748 18.6172L 7.5 19.375ZM 4.6875 -1C 1.55348 -1 -1 1.49013 -1 4.61309L 1 4.61309C 1 2.62474 2.62776 1 4.6875 1L 4.6875 -1ZM -1 4.61309L -1 25.8333L 1 25.8333L 1 4.61309L -1 4.61309ZM 0.652523 26.5911L 8.15252 20.1328L 6.84748 18.6172L -0.652523 25.0756L 0.652523 26.5911ZM 7.5 20.375L 25.3125 20.375L 25.3125 18.375L 7.5 18.375L 7.5 20.375ZM 25.3125 20.375C 28.4465 20.375 31 17.8849 31 14.7619L 29 14.7619C 29 16.7502 27.3722 18.375 25.3125 18.375L 25.3125 20.375ZM 31 14.7619L 31 4.61309L 29 4.61309L 29 14.7619L 31 14.7619ZM 31 4.61309C 31 1.49013 28.4465 -1 25.3125 -1L 25.3125 1C 27.3722 1 29 2.62474 29 4.61309L 31 4.61309ZM 25.3125 -1L 4.6875 -1L 4.6875 1L 25.3125 1L 25.3125 -1ZM 7.03125 8.38095C 7.78852 8.38095 8.375 8.98095 8.375 9.6875L 10.375 9.6875C 10.375 7.84633 8.8628 6.38095 7.03125 6.38095L 7.03125 8.38095ZM 8.375 9.6875C 8.375 10.3941 7.78853 10.994 7.03125 10.994L 7.03125 12.994C 8.86279 12.994 10.375 11.5287 10.375 9.6875L 8.375 9.6875ZM 7.03125 10.994C 6.27396 10.994 5.6875 10.3941 5.6875 9.6875L 3.6875 9.6875C 3.6875 11.5287 5.19969 12.994 7.03125 12.994L 7.03125 10.994ZM 5.6875 9.6875C 5.6875 8.98094 6.27397 8.38095 7.03125 8.38095L 7.03125 6.38095C 5.19968 6.38095 3.6875 7.84633 3.6875 9.6875L 5.6875 9.6875ZM 15 8.38095C 15.7573 8.38095 16.3438 8.98094 16.3438 9.6875L 18.3438 9.6875C 18.3438 7.84633 16.8316 6.38095 15 6.38095L 15 8.38095ZM 16.3438 9.6875C 16.3438 10.3941 15.7573 10.994 15 10.994L 15 12.994C 16.8316 12.994 18.3438 11.5287 18.3438 9.6875L 16.3438 9.6875ZM 15 10.994C 14.2427 10.994 13.6562 10.3941 13.6562 9.6875L 11.6562 9.6875C 11.6562 11.5287 13.1685 12.994 15 12.994L 15 10.994ZM 13.6562 9.6875C 13.6562 8.98095 14.2427 8.38095 15 8.38095L 15 6.38095C 13.1684 6.38095 11.6562 7.84633 11.6562 9.6875L 13.6562 9.6875ZM 22.9688 8.38095C 23.726 8.38095 24.3125 8.98094 24.3125 9.6875L 26.3125 9.6875C 26.3125 7.84633 24.8003 6.38095 22.9688 6.38095L 22.9688 8.38095ZM 24.3125 9.6875C 24.3125 10.3941 23.726 10.994 22.9688 10.994L 22.9688 12.994C 24.8003 12.994 26.3125 11.5287 26.3125 9.6875L 24.3125 9.6875ZM 22.9688 10.994C 22.2115 10.994 21.625 10.3941 21.625 9.6875L 19.625 9.6875C 19.625 11.5287 21.1372 12.994 22.9688 12.994L 22.9688 10.994ZM 21.625 9.6875C 21.625 8.98095 22.2115 8.38095 22.9688 8.38095L 22.9688 6.38095C 21.1372 6.38095 19.625 7.84633 19.625 9.6875L 21.625 9.6875Z"/>
</defs>
</svg>
