<svg width="34" height="50" viewBox="0 0 34 50" version="1.1" xmlns="http://www.w3.org/2000/svg" xmlns:xlink="http://www.w3.org/1999/xlink">
<title>offer</title>
<desc>Created using Figma</desc>
<g id="Canvas" transform="translate(-1803 -4029)">
<g id="offer">
<g id="account">
<g id="Vector">
<use xlink:href="#path0_fill" transform="translate(1803 4039)" fill="#FF5A00"/>
</g>
</g>
</g>
</g>
<defs>
<path id="path0_fill" d="M 10.0705 20.021C 4.67347 15.249 5.04118 7.51131 9.34694 3.20308C 13.5459 -0.995308 20.1054 -1.06854 24.423 2.9956C 28.7762 7.09635 29.5235 15.0904 23.9486 19.9966C 24.6484 20.1431 25.3364 20.2529 26.0125 20.4482C 30.6741 21.7785 33.8767 26.0013 33.9716 30.993C 34.0191 33.5193 33.9953 36.0335 33.9835 38.5599C 33.9835 39.5606 33.5209 40 32.4889 40C 26.5818 40 20.6748 40 14.7677 40C 10.3789 40 5.99011 40 1.60132 40C 0.391433 40 3.37127e-15 39.585 3.37127e-15 38.3646C 3.37127e-15 36.0457 3.37127e-15 33.7268 3.37127e-15 31.4079C 3.37127e-15 25.4521 4.08039 20.7655 9.84513 20.0943C 9.89257 20.0821 9.95188 20.0577 10.0705 20.021ZM 2.31301 37.4126C 12.17 37.4126 21.8609 37.4126 31.5637 37.4126C 31.5637 35.1304 31.6586 32.8847 31.54 30.6635C 31.3976 27.8808 30.1166 25.6718 27.9103 24.0608C 26.6056 23.1088 25.1466 22.5352 23.5453 22.523C 19.1446 22.4986 14.7321 22.4131 10.3315 22.5474C 6.58319 22.6572 3.2738 25.5497 2.69258 29.3454C 2.27743 31.9816 2.41977 34.691 2.31301 37.4126ZM 17.0095 2.49521C 12.3361 2.48301 8.50477 6.40069 8.48104 11.1971C 8.45732 15.9813 12.2886 19.96 16.9384 19.9722C 21.6237 19.9966 25.4906 16.0423 25.5024 11.2337C 25.5024 6.44951 21.683 2.50742 17.0095 2.49521Z"/>
</defs>
</svg>
