<svg width="43" height="57" viewBox="0 0 43 57" version="1.1" xmlns="http://www.w3.org/2000/svg" xmlns:xlink="http://www.w3.org/1999/xlink">
<title>offer</title>
<desc>Created using Figma</desc>
<g id="Canvas" transform="translate(-2024 -2685)">
<g id="offer">
<g id="Group">
<g id="Group">
<g id="Vector">
<use xlink:href="#path0_fill" transform="translate(2024 2685)" fill="url(#paint0_linear)"/>
</g>
</g>
</g>
</g>
</g>
<defs>
<linearGradient id="paint0_linear" x1="0" y1="0" x2="1" y2="0" gradientUnits="userSpaceOnUse" gradientTransform="matrix(43 0.570001 -0.430001 32.0625 0.215 15.3187)">
<stop offset="0" stop-color="#FF5A00"/>
<stop offset="1" stop-color="#FF8B10"/>
</linearGradient>
<path id="path0_fill" d="M 7.30948 17.704C 7.30948 15.9123 7.13461 14.1032 7.34445 12.3288C 8.11387 5.61424 14.0069 0.308669 20.8617 0.0129485C 27.769 -0.282772 34.0643 4.51834 35.4632 11.1807C 35.6905 12.2592 35.7605 13.3552 35.8129 14.4511C 35.8654 15.5122 35.8304 16.5907 35.8304 17.7562C 36.1452 17.7736 36.425 17.8084 36.7048 17.8084C 38.0512 17.8084 39.3802 17.8084 40.7267 17.8084C 42.388 17.8084 43 18.4346 43 20.0524C 43 27.9672 43 35.8821 43 43.797C 43 47.4152 43 51.0508 43 54.669C 43 56.3912 42.388 57 40.6218 57C 27.8564 57 15.0911 57 2.32574 57C 0.629524 57 2.60573e-10 56.3738 2.60573e-10 54.7038C 2.60573e-10 43.1881 2.60573e-10 31.6898 2.60573e-10 20.1741C 2.60573e-10 18.3824 0.594551 17.8084 2.43066 17.8084C 3.91704 17.8084 5.40342 17.8084 6.88979 17.791C 6.94225 17.791 6.99471 17.7562 7.04717 17.7388C 7.11712 17.7388 7.20456 17.7214 7.30948 17.704ZM 3.63725 53.3818C 15.5458 53.3818 27.4193 53.3818 39.3278 53.3818C 39.3278 42.701 39.3278 32.0899 39.3278 21.444C 38.1387 21.444 36.9845 21.444 35.8129 21.444C 35.8129 23.2531 35.8304 24.9926 35.7954 26.7322C 35.778 27.7585 34.9736 28.5065 34.0118 28.5065C 33.0675 28.5065 32.3331 27.8281 32.2281 26.8191C 32.1932 26.419 32.2107 26.0015 32.2107 25.6015C 32.2107 24.2272 32.2107 22.8356 32.2107 21.4266C 25.0236 21.4266 17.924 21.4266 10.7369 21.4266C 10.7369 21.8441 10.7369 22.2094 10.7369 22.5747C 10.7369 23.9663 10.7719 25.3579 10.7194 26.7495C 10.6844 27.6715 10.0899 28.3325 9.26799 28.4717C 8.4636 28.6108 7.79911 28.2977 7.43188 27.6019C 7.23953 27.2366 7.16958 26.7669 7.16958 26.3495C 7.13461 24.7143 7.15209 23.0617 7.15209 21.4092C 5.91053 21.4092 4.79138 21.4092 3.63725 21.4092C 3.63725 32.0899 3.63725 42.7184 3.63725 53.3818ZM 32.1757 17.7736C 32.1757 16.3124 32.2456 14.9207 32.1582 13.5291C 31.756 6.55359 24.5165 1.73508 17.9414 4.18782C 11.5063 6.60577 10.1948 11.9809 10.8593 17.7736C 17.924 17.7736 25.0061 17.7736 32.1757 17.7736Z"/>
</defs>
</svg>
