<svg width="60" height="60" viewBox="0 0 60 60" version="1.1" xmlns="http://www.w3.org/2000/svg" xmlns:xlink="http://www.w3.org/1999/xlink">
<title>Vector</title>
<desc>Created using Figma</desc>
<g id="Canvas" transform="translate(-1575 -2536)">
<rect x="1575" y="2536" width="60" height="60" fill="#F2F2F2"/>
<clipPath id="clip-0" clip-rule="evenodd">
<path d="M 1545 2383L 1959 2383L 1959 3708L 1545 3708L 1545 2383Z" fill="#FFFFFF"/>
</clipPath>
<g id="02-create account" clip-path="url(#clip-0)">
<path d="M 1545 2383L 1959 2383L 1959 3708L 1545 3708L 1545 2383Z" fill="#FFFFFF"/>
<g id="Group">
<g id="Vector">
<use xlink:href="#path0_fill" transform="translate(1575 2536)" fill="#828282"/>
</g>
<g id="+">
<use xlink:href="#path1_fill" transform="translate(1582 2572)" fill="#828282"/>
</g>
</g>
</g>
</g>
<defs>
<path id="path0_fill" d="M 30 1.54208e-05C 13.4476 1.54208e-05 -3.15857e-08 13.4476 -3.15857e-08 30C -3.15857e-08 46.5523 13.4476 60 30 60C 46.5524 60 60 46.5523 60 30C 60 13.4476 46.5524 1.54208e-05 30 1.54208e-05ZM 30 2.72729C 45.0784 2.72729 57.2727 14.9215 57.2727 30C 57.2727 35.4549 55.6772 40.5277 52.9261 44.7869C 47.4267 38.2542 39.2027 34.0909 30 34.0909C 20.7973 34.0909 12.5732 38.2542 7.07386 44.7869C 4.32278 40.5277 2.72727 35.4549 2.72727 30C 2.72727 14.9215 14.9215 2.72729 30 2.72729ZM 30 6.13638C 23.8859 6.13638 19.0909 11.7393 19.0909 18.4091C 19.0909 25.0788 23.8859 30.6818 30 30.6818C 36.114 30.6818 40.9091 25.0788 40.9091 18.4091C 40.9091 11.7393 36.114 6.13638 30 6.13638ZM 30 8.86365C 34.4296 8.86365 38.1818 13.029 38.1818 18.4091C 38.1818 23.7892 34.4296 27.9545 30 27.9545C 25.5704 27.9545 21.8182 23.7892 21.8182 18.4091C 21.8182 13.029 25.5704 8.86365 30 8.86365ZM 30 36.8182C 38.6252 36.8182 46.2882 40.8243 51.2855 47.0667C 46.29 53.2941 38.6169 57.2727 30 57.2727C 21.3831 57.2727 13.71 53.2941 8.71449 47.0667C 13.7118 40.8243 21.3748 36.8182 30 36.8182Z"/>
<path id="path1_fill" d="M 21.4375 12.4062L 18.5313 12.4062L 18.5313 10.3125L 21.4375 10.3125L 21.4375 7.44531L 23.5391 7.44531L 23.5391 10.3125L 26.4453 10.3125L 26.4453 12.4062L 23.5391 12.4062L 23.5391 15.2266L 21.4375 15.2266L 21.4375 12.4062Z"/>
</defs>
</svg>
