<svg width="23" height="23" viewBox="0 0 23 23" version="1.1" xmlns="http://www.w3.org/2000/svg" xmlns:xlink="http://www.w3.org/1999/xlink">
<title>Group</title>
<desc>Created using Figma</desc>
<g id="Canvas" transform="translate(-513 -1166)">
<g id="Group">
<g id="Vector">
<use xlink:href="#path0_fill" transform="translate(513 1166)" fill="#3E4B5D"/>
</g>
<g id="Vector">
<use xlink:href="#path1_fill" transform="translate(518.577 1171.55)" fill="#3E4B5D"/>
</g>
<g id="Vector">
<use xlink:href="#path2_fill" transform="translate(529.299 1169.95)" fill="#3E4B5D"/>
</g>
</g>
</g>
<defs>
<path id="path0_fill" d="M 11.5226 22.9771C 9.60559 22.9119 7.68861 23.1074 5.77165 22.8793C 2.29511 22.4558 0.183193 20.2078 0.0857196 16.6891C -0.0117534 13.2356 -0.0442444 9.78215 0.0857196 6.32867C 0.215684 2.58197 2.71749 0.171045 6.45396 0.0733052C 9.80053 -0.0244349 13.1471 -0.0244349 16.5262 0.0733052C 20.3276 0.171045 22.8294 2.67971 22.9269 6.49157C 23.0244 9.84731 23.0244 13.2031 22.9269 16.5914C 22.8619 20.3707 20.3276 22.8467 16.4612 22.9771C 14.8366 23.0096 13.1796 22.9771 11.5226 22.9771C 11.5226 23.0422 11.5226 22.9445 11.5226 22.9771ZM 11.555 1.93037C 11.555 1.99553 11.555 1.86521 11.555 1.93037C 9.86551 1.93037 8.17598 2.06069 6.48645 2.12585C 3.88717 2.22359 2.23013 3.85259 2.16514 6.49157C 2.10016 9.84731 2.10016 13.2031 2.16514 16.5588C 2.23013 19.1652 3.88717 20.8268 6.51894 20.8919C 9.86551 20.9571 13.2121 20.9571 16.5587 20.8919C 19.1579 20.8268 20.815 19.1978 20.88 16.5914C 20.9449 13.2031 20.9449 9.78215 20.88 6.39383C 20.815 4.01549 19.4828 2.48423 17.111 2.19101C 15.259 1.96295 13.407 1.99553 11.555 1.93037Z"/>
<path id="path1_fill" d="M 11.8592 5.96244C 11.8592 9.22044 9.19495 11.892 5.94585 11.892C 2.66426 11.892 1.23943e-07 9.22044 1.23943e-07 5.89728C 1.23943e-07 2.63928 2.69675 -0.0322853 5.94585 0.000294738C 9.22745 0.000294738 11.8917 2.70444 11.8592 5.96244ZM 9.77979 5.96244C 9.77979 3.84474 8.05777 2.08542 5.97834 2.08542C 3.86643 2.05284 2.11192 3.77958 2.07942 5.89728C 2.04693 8.01498 3.80145 9.80688 5.91336 9.80688C 8.02528 9.80688 9.77979 8.08014 9.77979 5.96244Z"/>
<path id="path2_fill" d="M 2.76173 1.36959C 2.76173 2.11893 2.14441 2.77053 1.39711 2.77053C 0.649821 2.77053 -4.95773e-07 2.15151 -4.95773e-07 1.40217C -4.95773e-07 0.65283 0.61733 0.0012295 1.36462 0.0012295C 2.14441 -0.0313505 2.76173 0.58767 2.76173 1.36959Z"/>
</defs>
</svg>
