<svg width="41" height="41" viewBox="0 0 41 41" version="1.1" xmlns="http://www.w3.org/2000/svg" xmlns:xlink="http://www.w3.org/1999/xlink">
<title>Vector</title>
<desc>Created using Figma</desc>
<g id="Canvas" transform="translate(-2637 -786)">
<g id="Vector">
<use xlink:href="#path0_fill" transform="translate(2637.63 786.265)" fill="#FFFFFF"/>
</g>
</g>
<defs>
<path id="path0_fill" d="M 40.1299 39.7577C 36.7956 39.7577 33.5805 39.8759 30.3653 39.6395C 29.889 39.6395 29.2936 38.8122 28.9364 38.2213C 26.1975 31.8394 23.4587 25.3392 20.6008 18.9573C 20.4817 18.721 20.3626 18.4846 20.1245 18.13C 17.5047 24.0392 15.004 29.9484 12.5034 35.7394C 10.8363 39.6395 10.8363 39.7577 6.4303 39.7577L 1.81701e-06 39.7577C 0.95264 37.5122 1.90527 35.2667 2.85791 33.1394C 7.14478 23.2119 11.3126 13.4027 15.5994 3.47525C 15.9567 2.64796 16.433 1.82067 17.0284 1.22976C 19.41 -0.897552 22.9824 -0.18845 24.2923 2.76614C 29.5318 14.8209 34.7713 26.9938 39.8917 39.1667C 40.0108 39.2849 40.0108 39.5213 40.1299 39.7577Z"/>
</defs>
</svg>
