<svg width="36" height="41" viewBox="0 0 36 41" version="1.1" xmlns="http://www.w3.org/2000/svg" xmlns:xlink="http://www.w3.org/1999/xlink">
<title>Vector</title>
<desc>Created using Figma</desc>
<g id="Canvas" transform="translate(-2580 -786)">
<g id="Vector">
<use xlink:href="#path0_fill" transform="translate(2580 786)" fill="#FFFFFF"/>
</g>
</g>
<defs>
<path id="path0_fill" d="M 9.64546 19.3401L 9.64546 39.9041L 0.11908 39.9041C 0.11908 39.6677 0 39.3132 0 38.9586C 0 27.613 0 16.2673 0 4.80352C 0 1.258 3.33423 -0.98749 6.43031 0.430715C 7.26386 0.785267 7.97834 1.49437 8.57374 2.20347C 13.5751 7.99448 18.4574 13.6673 23.4587 19.4583C 24.1732 20.2856 24.8877 21.1129 25.8403 22.1765L 25.8403 0.785267L 35.4858 0.785267L 35.4858 2.55802C 35.4858 13.4309 35.4858 24.422 35.4858 35.2949C 35.4858 37.895 34.414 39.6677 32.5088 40.3768C 30.4844 41.0859 28.5791 40.495 26.7929 38.3677C 21.4343 32.2222 16.0758 26.1948 10.7172 20.0492C 10.479 19.6947 10.2409 19.3401 9.88362 18.9856C 9.88362 19.1038 9.76454 19.2219 9.64546 19.3401Z"/>
</defs>
</svg>
