<svg width="38" height="41" viewBox="0 0 38 41" version="1.1" xmlns="http://www.w3.org/2000/svg" xmlns:xlink="http://www.w3.org/1999/xlink">
<title>Vector</title>
<desc>Created using Figma</desc>
<g id="Canvas" transform="translate(-3144 -786)">
<g id="Vector">
<use xlink:href="#path0_fill" transform="translate(3144.95 786.785)" fill="#FFFFFF"/>
</g>
</g>
<defs>
<path id="path0_fill" d="M 27.347 2.81772e-08L 36.8734 2.81772e-08C 36.8734 0.354551 36.9925 0.827286 36.9925 1.18184C 36.9925 8.0365 37.1116 14.8912 36.9925 21.7458C 36.8734 30.7278 30.9194 38.0552 22.2266 39.8279C 11.5094 42.0734 0.792246 34.2733 0.196848 23.4004C -0.160391 15.7184 0.07777 8.0365 0.07777 0.236368L 9.60415 0.236368L 9.60415 2.00912C 9.60415 8.50923 9.60415 15.0093 9.60415 21.5094C 9.60415 27.7732 15.2009 32.0278 21.0358 30.255C 24.37 29.1914 26.9898 26.2368 26.9898 22.8095C 27.1089 16.073 27.1089 9.33652 27.1089 2.60004C 27.347 1.65457 27.347 0.94547 27.347 2.81772e-08Z"/>
</defs>
</svg>
