<svg width="34" height="30" viewBox="0 0 34 30" version="1.1" xmlns="http://www.w3.org/2000/svg" xmlns:xlink="http://www.w3.org/1999/xlink">
<title>noun_849685_cc</title>
<desc>Created using Figma</desc>
<g id="Canvas" transform="translate(-1053 -4039)">
<g id="noun_849685_cc">
<g id="Vector">
<use xlink:href="#path0_fill" transform="translate(1053 4039)" fill="#3E4B5D"/>
<mask id="mask0_outline_ins">
<use xlink:href="#path0_fill" fill="white" transform="translate(1053 4039)"/>
</mask>
<g mask="url(#mask0_outline_ins)">
<use xlink:href="#path1_stroke_2x" transform="translate(1053 4039)" fill="#FFFFFF"/>
</g>
</g>
</g>
</g>
<defs>
<path id="path0_fill" d="M 26.4847 16.9565C 26.53 16.9565 26.53 16.9115 26.4847 16.9565L 26.4847 16.9565ZM 32.1438 3.77811L 26.4394 3.77811L 26.4394 1.88906C 26.4394 0.854572 25.5792 1.71576e-07 24.5379 1.71576e-07L 9.46205 1.71576e-07C 8.42077 1.71576e-07 7.56059 0.854572 7.56059 1.88906L 7.56059 3.77811L 1.90147 3.77811C 0.860187 3.77811 0 4.63268 0 5.66717L 0 9.4003C 0 12.4138 1.99201 16.9115 7.56059 16.9115L 8.3755 16.9115C 9.59787 19.6552 12.0879 21.7241 15.1212 22.3538L 15.1212 23.928L 15.1212 26.2669L 13.2197 26.2669C 11.1372 26.2669 9.46205 27.931 9.46205 30L 24.5832 30C 24.5832 27.931 22.9081 26.2669 20.8256 26.2669L 18.9241 26.2669L 18.9241 22.3088C 21.9574 21.6792 24.4927 19.6102 25.6698 16.8666L 26.4394 16.8666C 31.9627 16.8666 34 12.3688 34 9.35532L 34 5.62219C 34 4.58771 33.1851 3.77811 32.1438 3.77811ZM 7.56059 13.1334C 4.11984 13.1334 3.80293 10.2549 3.80293 9.4003L 3.80293 7.51124L 7.56059 7.51124L 7.56059 13.1334ZM 22.6818 7.51124L 22.6818 13.1334L 22.6818 14.3028L 22.6818 15.3823C 21.7763 17.4513 19.2863 18.7556 17.0226 18.7556C 14.759 18.7556 12.269 17.4513 11.3635 15.3823L 11.3635 14.3028L 11.3635 13.1334L 11.3635 7.51124L 11.3635 3.77811L 22.6818 3.77811L 22.6818 7.51124ZM 30.2423 9.4003C 30.2423 10.03 30.0613 13.1334 26.4847 13.1334L 26.4847 7.51124L 30.2423 7.51124L 30.2423 9.4003Z"/>
<path id="path1_stroke_2x" d="M 26.4394 3.77811L 25.4394 3.77811L 25.4394 4.77811L 26.4394 4.77811L 26.4394 3.77811ZM 7.56059 3.77811L 7.56059 4.77811L 8.56059 4.77811L 8.56059 3.77811L 7.56059 3.77811ZM 8.3755 16.9115L 9.28894 16.5046L 9.02473 15.9115L 8.3755 15.9115L 8.3755 16.9115ZM 15.1212 22.3538L 16.1212 22.3538L 16.1212 21.5401L 15.3244 21.3747L 15.1212 22.3538ZM 15.1212 26.2669L 15.1212 27.2669L 16.1212 27.2669L 16.1212 26.2669L 15.1212 26.2669ZM 9.46205 30L 8.46205 30L 8.46205 31L 9.46205 31L 9.46205 30ZM 24.5832 30L 24.5832 31L 25.5832 31L 25.5832 30L 24.5832 30ZM 18.9241 26.2669L 17.9241 26.2669L 17.9241 27.2669L 18.9241 27.2669L 18.9241 26.2669ZM 18.9241 22.3088L 18.7208 21.3297L 17.9241 21.4951L 17.9241 22.3088L 18.9241 22.3088ZM 25.6698 16.8666L 25.6698 15.8666L 25.0107 15.8666L 24.7508 16.4723L 25.6698 16.8666ZM 7.56059 13.1334L 7.56059 14.1334L 8.56059 14.1334L 8.56059 13.1334L 7.56059 13.1334ZM 3.80293 7.51124L 3.80293 6.51124L 2.80293 6.51124L 2.80293 7.51124L 3.80293 7.51124ZM 7.56059 7.51124L 8.56059 7.51124L 8.56059 6.51124L 7.56059 6.51124L 7.56059 7.51124ZM 22.6818 15.3823L 23.5979 15.7832L 23.6818 15.5915L 23.6818 15.3823L 22.6818 15.3823ZM 11.3635 15.3823L 10.3635 15.3823L 10.3635 15.5915L 10.4474 15.7832L 11.3635 15.3823ZM 11.3635 3.77811L 11.3635 2.77811L 10.3635 2.77811L 10.3635 3.77811L 11.3635 3.77811ZM 22.6818 3.77811L 23.6818 3.77811L 23.6818 2.77811L 22.6818 2.77811L 22.6818 3.77811ZM 26.4847 13.1334L 25.4847 13.1334L 25.4847 14.1334L 26.4847 14.1334L 26.4847 13.1334ZM 26.4847 7.51124L 26.4847 6.51124L 25.4847 6.51124L 25.4847 7.51124L 26.4847 7.51124ZM 30.2423 7.51124L 31.2423 7.51124L 31.2423 6.51124L 30.2423 6.51124L 30.2423 7.51124ZM 26.4847 17.9565C 26.6611 17.9565 26.8564 17.9123 27.0377 17.7997C 27.1159 17.7462 27.2514 17.6231 27.31 17.5532C 27.3802 17.4617 27.5186 17.2484 27.5186 16.9397C 27.5089 16.7994 27.4186 16.5028 27.3313 16.3558C 27.1861 16.1531 26.9907 16.0369 26.813 15.9817C 26.4998 15.8845 26.2442 15.9695 26.161 16.0005C 25.9582 16.076 25.8291 16.1982 25.7799 16.2471L 27.1895 17.6659C 27.1629 17.6924 27.0507 17.8033 26.8593 17.8746C 26.7818 17.9035 26.5304 17.9882 26.22 17.8918C 26.0437 17.8371 25.8494 17.7216 25.705 17.5199C 25.5627 17.3212 25.5186 17.1083 25.5186 16.9397C 25.5186 16.6337 25.6557 16.4239 25.723 16.3361C 25.8066 16.2271 25.9006 16.1516 25.9826 16.1006C 26.1526 15.9951 26.3309 15.9565 26.4847 15.9565L 26.4847 17.9565ZM 32.1438 2.77811L 26.4394 2.77811L 26.4394 4.77811L 32.1438 4.77811L 32.1438 2.77811ZM 27.4394 3.77811L 27.4394 1.88906L 25.4394 1.88906L 25.4394 3.77811L 27.4394 3.77811ZM 27.4394 1.88906C 27.4394 0.296123 26.1253 -1 24.5379 -1L 24.5379 1C 25.0331 1 25.4394 1.41302 25.4394 1.88906L 27.4394 1.88906ZM 24.5379 -1L 9.46205 -1L 9.46205 1L 24.5379 1L 24.5379 -1ZM 9.46205 -1C 7.87467 -1 6.56059 0.296124 6.56059 1.88906L 8.56059 1.88906C 8.56059 1.41302 8.96687 1 9.46205 1L 9.46205 -1ZM 6.56059 1.88906L 6.56059 3.77811L 8.56059 3.77811L 8.56059 1.88906L 6.56059 1.88906ZM 7.56059 2.77811L 1.90147 2.77811L 1.90147 4.77811L 7.56059 4.77811L 7.56059 2.77811ZM 1.90147 2.77811C 0.314085 2.77811 -1 4.07424 -1 5.66717L 1 5.66717C 1 5.19113 1.40629 4.77811 1.90147 4.77811L 1.90147 2.77811ZM -1 5.66717L -1 9.4003L 1 9.4003L 1 5.66717L -1 5.66717ZM -1 9.4003C -0.991611 11.0363 -0.39555 13.2338 0.909476 14.9085C 2.29253 16.6472 4.47035 17.9115 7.56059 17.9115L 7.56059 15.9115C 5.08225 15.9115 3.47978 14.927 2.47468 13.6635C 1.39156 12.3359 0.991611 10.7778 1 9.4003L -1 9.4003ZM 7.56059 17.9115L 8.3755 17.9115L 8.3755 15.9115L 7.56059 15.9115L 7.56059 17.9115ZM 7.46206 17.3185C 8.81252 20.3496 11.5629 22.6365 14.9179 23.333L 15.3244 21.3747C 12.6129 20.8118 10.3832 18.9607 9.28894 16.5046L 7.46206 17.3185ZM 14.1212 22.3538L 14.1212 23.928L 16.1212 23.928L 16.1212 22.3538L 14.1212 22.3538ZM 14.1212 23.928L 14.1212 26.2669L 16.1212 26.2669L 16.1212 23.928L 14.1212 23.928ZM 15.1212 25.2669L 13.2197 25.2669L 13.2197 27.2669L 15.1212 27.2669L 15.1212 25.2669ZM 13.2197 25.2669C 10.591 25.2669 8.46205 27.3726 8.46205 30L 10.4621 30C 10.4621 28.4895 11.6833 27.2669 13.2197 27.2669L 13.2197 25.2669ZM 9.46205 31L 24.5832 31L 24.5832 29L 9.46205 29L 9.46205 31ZM 25.5832 30C 25.5832 27.3726 23.4542 25.2669 20.8256 25.2669L 20.8256 27.2669C 22.362 27.2669 23.5832 28.4895 23.5832 30L 25.5832 30ZM 20.8256 25.2669L 18.9241 25.2669L 18.9241 27.2669L 20.8256 27.2669L 20.8256 25.2669ZM 19.9241 26.2669L 19.9241 22.3088L 17.9241 22.3088L 17.9241 26.2669L 19.9241 26.2669ZM 19.1274 23.288C 22.4735 22.5933 25.2801 20.3111 26.5888 17.2608L 24.7508 16.4723C 23.7052 18.9093 21.4413 20.765 18.7208 21.3297L 19.1274 23.288ZM 25.6698 17.8666L 26.4394 17.8666L 26.4394 15.8666L 25.6698 15.8666L 25.6698 17.8666ZM 26.4394 17.8666C 29.5092 17.8666 31.6852 16.6006 33.0721 14.8653C 34.4308 13.1653 35 11.0596 35 9.35532L 33 9.35532C 33 10.6645 32.5505 12.3145 31.5098 13.6167C 30.4972 14.8836 28.893 15.8666 26.4394 15.8666L 26.4394 17.8666ZM 35 9.35532L 35 5.62219L 33 5.62219L 33 9.35532L 35 9.35532ZM 35 5.62219C 35 4.02926 33.7312 2.77811 32.1438 2.77811L 32.1438 4.77811C 32.639 4.77811 33 5.14615 33 5.62219L 35 5.62219ZM 7.56059 12.1334C 6.17915 12.1334 5.56585 11.5869 5.2428 11.0627C 4.83187 10.4477 4.80203 9.78525 4.80293 9.4003L 2.80293 9.4003C 2.80383 9.86992 2.93245 11.074 3.54016 12.112C 4.23575 13.2407 5.50128 14.1334 7.56059 14.1334L 7.56059 12.1334ZM 4.80293 9.4003L 4.80293 7.51124L 2.80293 7.51124L 2.80293 9.4003L 4.80293 9.4003ZM 3.80293 8.51124L 7.56059 8.51124L 7.56059 6.51124L 3.80293 6.51124L 3.80293 8.51124ZM 6.56059 7.51124L 6.56059 13.1334L 8.56059 13.1334L 8.56059 7.51124L 6.56059 7.51124ZM 21.6818 7.51124L 21.6818 13.1334L 23.6818 13.1334L 23.6818 7.51124L 21.6818 7.51124ZM 21.6818 13.1334L 21.6818 14.3028L 23.6818 14.3028L 23.6818 13.1334L 21.6818 13.1334ZM 21.6818 14.3028L 21.6818 15.3823L 23.6818 15.3823L 23.6818 14.3028L 21.6818 14.3028ZM 21.7656 14.9814C 21.0549 16.6055 18.9856 17.7556 17.0226 17.7556L 17.0226 19.7556C 19.587 19.7556 22.4977 18.297 23.5979 15.7832L 21.7656 14.9814ZM 17.0226 17.7556C 15.0597 17.7556 12.9904 16.6055 12.2796 14.9814L 10.4474 15.7832C 11.5475 18.297 14.4583 19.7556 17.0226 19.7556L 17.0226 17.7556ZM 12.3635 15.3823L 12.3635 14.3028L 10.3635 14.3028L 10.3635 15.3823L 12.3635 15.3823ZM 12.3635 14.3028L 12.3635 13.1334L 10.3635 13.1334L 10.3635 14.3028L 12.3635 14.3028ZM 12.3635 13.1334L 12.3635 7.51124L 10.3635 7.51124L 10.3635 13.1334L 12.3635 13.1334ZM 12.3635 7.51124L 12.3635 3.77811L 10.3635 3.77811L 10.3635 7.51124L 12.3635 7.51124ZM 11.3635 4.77811L 22.6818 4.77811L 22.6818 2.77811L 11.3635 2.77811L 11.3635 4.77811ZM 21.6818 3.77811L 21.6818 7.51124L 23.6818 7.51124L 23.6818 3.77811L 21.6818 3.77811ZM 29.2423 9.4003C 29.2426 9.69091 29.2376 10.3667 28.8382 11.0038C 28.5241 11.5491 27.9147 12.1334 26.4847 12.1334L 26.4847 14.1334C 28.6312 14.1334 29.9007 13.1661 30.5712 12.0022C 31.1566 10.9301 31.2421 9.73938 31.2423 9.4003L 29.2423 9.4003ZM 27.4847 13.1334L 27.4847 7.51124L 25.4847 7.51124L 25.4847 13.1334L 27.4847 13.1334ZM 26.4847 8.51124L 30.2423 8.51124L 30.2423 6.51124L 26.4847 6.51124L 26.4847 8.51124ZM 29.2423 7.51124L 29.2423 9.4003L 31.2423 9.4003L 31.2423 7.51124L 29.2423 7.51124Z"/>
</defs>
</svg>
