<svg width="26" height="30" viewBox="0 0 26 30" version="1.1" xmlns="http://www.w3.org/2000/svg" xmlns:xlink="http://www.w3.org/1999/xlink">
<title>Vector</title>
<desc>Created using Figma</desc>
<g id="Canvas" transform="translate(-1004 -4039)">
<g id="Vector">
<use xlink:href="#path0_fill" transform="translate(1004 4039)" fill="#3E4B5D"/>
</g>
</g>
<defs>
<path id="path0_fill" d="M 20.4286 3.75L 23.2162 3.75C 24.7533 3.75 26 5.00846 26 6.55969L 26 27.1903C 26 28.7418 24.7534 30 23.2171 30L 2.78293 30C 1.24618 30 2.98235e-07 28.7414 2.98235e-07 27.1903L 2.98235e-07 6.55969C 2.98235e-07 5.00553 1.24019 3.75 2.78378 3.75L 5.57145 3.75C 5.57619 2.71846 6.41596 1.875 7.42857 1.875C 7.42857 0.837492 8.24512 -3.01102e-07 9.28144 -3.01102e-07L 16.7186 -3.01102e-07C 17.7401 -3.01102e-07 18.5714 0.852647 18.5714 1.875C 19.6005 1.875 20.424 2.69769 20.4286 3.75ZM 5.57145 5.625L 2.78378 5.625C 2.267 5.625 1.85714 6.03993 1.85714 6.55969L 1.85714 27.1903C 1.85714 27.706 2.27198 28.125 2.78293 28.125L 23.2171 28.125C 23.7279 28.125 24.1429 27.7062 24.1429 27.1903L 24.1429 6.55969C 24.1429 6.04405 23.7277 5.625 23.2162 5.625L 20.4286 5.625C 20.4238 6.65818 19.5806 7.5 18.5651 7.5L 7.43493 7.5C 6.40373 7.5 5.57602 6.67875 5.57145 5.625ZM 7.42857 3.75C 7.43802 3.75 7.42857 5.61622 7.42857 5.61622C 7.42857 5.63275 18.5651 5.625 18.5651 5.625C 18.5611 5.625 18.5714 3.75878 18.5714 3.75878C 17.5579 3.75 16.7143 2.90771 16.7143 1.875C 16.7143 1.88165 9.28572 1.875 9.28572 1.875C 9.28572 2.89831 8.45144 3.75 7.42857 3.75ZM 19.5 11.25C 20.0128 11.25 20.4286 11.6697 20.4286 12.1875C 20.4286 12.7053 20.0128 13.125 19.5 13.125L 6.5 13.125C 5.98716 13.125 5.57143 12.7053 5.57143 12.1875C 5.57143 11.6697 5.98716 11.25 6.5 11.25L 19.5 11.25ZM 19.5 16.875C 20.0128 16.875 20.4286 17.2947 20.4286 17.8125C 20.4286 18.3303 20.0128 18.75 19.5 18.75L 6.5 18.75C 5.98716 18.75 5.57143 18.3303 5.57143 17.8125C 5.57143 17.2947 5.98716 16.875 6.5 16.875L 19.5 16.875ZM 19.5 22.5C 20.0128 22.5 20.4286 22.9197 20.4286 23.4375C 20.4286 23.9553 20.0128 24.375 19.5 24.375L 6.5 24.375C 5.98716 24.375 5.57143 23.9553 5.57143 23.4375C 5.57143 22.9197 5.98716 22.5 6.5 22.5L 19.5 22.5Z"/>
</defs>
</svg>
