<svg width="55" height="46" viewBox="0 0 55 46" version="1.1" xmlns="http://www.w3.org/2000/svg" xmlns:xlink="http://www.w3.org/1999/xlink">
<title>Group</title>
<desc>Created using Figma</desc>
<g id="Canvas" transform="translate(-871 -4167)">
<g id="Group">
<g id="Union">
<use xlink:href="#path0_fill" transform="matrix(0.965779 0.259366 -0.258273 0.966072 900.04 4167)" fill="#FF8B10"/>
</g>
<g id="Union">
<use xlink:href="#path1_fill" transform="matrix(-0.965779 0.259366 0.258273 0.966072 896.96 4167)" fill="#FF8B10"/>
</g>
</g>
</g>
<defs>
<path id="path0_fill" fill-rule="evenodd" d="M 3.10157 3.10787L 23.7783 3.10782L 23.7782 37.291L 3.1015 37.2911L 3.10157 3.10787ZM 0 3.10761C 8.54228e-05 1.39166 1.38869 0.000409473 3.1015 0L 23.7783 0.000428444C 25.4911 1.89707e-05 26.8798 1.39165 26.8797 3.10761L 26.8798 37.2913C 26.8798 39.0077 25.4912 40.399 23.7783 40.3989L 3.1016 40.399C 1.38866 40.3989 9.84581e-05 39.0077 5.7771e-05 37.2913L 0 3.10761ZM 13.4399 19.6817C 16.2948 19.6819 18.6091 17.3629 18.6091 14.5026C 18.609 11.6419 16.2948 9.32314 13.44 9.32336C 10.585 9.3231 8.27075 11.6422 8.27071 14.5024C 8.27078 17.3631 10.5851 19.6819 13.4399 19.6817Z"/>
<path id="path1_fill" fill-rule="evenodd" d="M 3.10157 3.10787L 23.7783 3.10782L 23.7782 37.291L 14.6766 37.2914L 13.869 35.0048L 8.78517 40.3989L 23.7783 40.3989C 25.4912 40.399 26.8798 39.0077 26.8798 37.2913L 26.8797 3.10761C 26.8798 1.39165 25.4911 1.89707e-05 23.7783 0.000428444L 3.1015 0C 1.38869 0.000409473 8.54228e-05 1.39166 0 3.10761L 2.58433e-05 12.3327L 8.16745 24.0812C 8.91486 25.0446 10.6579 27.4783 12.0509 29.8574L 11.235 27.5472L 3.10152 11.5L 3.10157 3.10787ZM 12.0509 29.8574L 13.869 35.0048L 14.0217 34.8425C 14.1496 33.8271 13.2245 31.8617 12.0509 29.8574ZM 13.4399 19.6816C 16.2949 19.6819 18.6091 17.3628 18.6092 14.5026C 18.6091 11.6419 16.2948 9.32313 13.44 9.32334C 10.5851 9.32308 8.27081 11.6421 8.27076 14.5024C 8.27084 17.3631 10.5851 19.6819 13.4399 19.6816Z"/>
</defs>
</svg>
