<svg width="40" height="35" viewBox="0 0 40 35" version="1.1" xmlns="http://www.w3.org/2000/svg" xmlns:xlink="http://www.w3.org/1999/xlink">
<title>nau_logo_1</title>
<desc>Created using Figma</desc>
<g id="Canvas" transform="translate(-878 -4558)">
<g id="nau_logo_1">
<g id="Group">
<g id="Group">
<g id="Vector">
<use xlink:href="#path0_fill" transform="translate(914.235 4568.9)" fill="url(#paint0_linear)"/>
</g>
<g id="Vector">
<use xlink:href="#path1_fill" transform="translate(899.961 4583.23)" fill="url(#paint1_linear)"/>
</g>
<g id="Vector">
<use xlink:href="#path2_fill" transform="translate(907.804 4574.98)" fill="url(#paint2_linear)"/>
</g>
<g id="Vector">
<use xlink:href="#path3_fill" transform="translate(878 4558)" fill="url(#paint3_linear)"/>
</g>
</g>
</g>
</g>
</g>
<defs>
<linearGradient id="paint0_linear" x1="0" y1="0" x2="1" y2="0" gradientUnits="userSpaceOnUse" gradientTransform="matrix(10.6072 25.0852 -25.2552 10.5358 8.58196 -17.3989)">
<stop offset="0.0102564" stop-color="#F15C22"/>
<stop offset="0.3316" stop-color="#F37021"/>
<stop offset="0.7525" stop-color="#F5841F"/>
<stop offset="1" stop-color="#F68B1F"/>
</linearGradient>
<linearGradient id="paint1_linear" x1="0" y1="0" x2="1" y2="0" gradientUnits="userSpaceOnUse" gradientTransform="matrix(10.6072 25.0854 -25.2554 10.5358 6.89184 -25.0731)">
<stop offset="0.0102564" stop-color="#F15C22"/>
<stop offset="0.3316" stop-color="#F37021"/>
<stop offset="0.7525" stop-color="#F5841F"/>
<stop offset="1" stop-color="#F68B1F"/>
</linearGradient>
<linearGradient id="paint2_linear" x1="0" y1="0" x2="1" y2="0" gradientUnits="userSpaceOnUse" gradientTransform="matrix(10.6072 25.0852 -25.2552 10.5358 8.03074 -20.5624)">
<stop offset="0.0102564" stop-color="#F15C22"/>
<stop offset="0.3316" stop-color="#F37021"/>
<stop offset="0.7525" stop-color="#F5841F"/>
<stop offset="1" stop-color="#F68B1F"/>
</linearGradient>
<linearGradient id="paint3_linear" x1="0" y1="0" x2="1" y2="0" gradientUnits="userSpaceOnUse" gradientTransform="matrix(10.6074 25.0854 -25.2554 10.536 20.9511 3.45788)">
<stop offset="0.0102564" stop-color="#F15C22"/>
<stop offset="0.3316" stop-color="#F37021"/>
<stop offset="0.7525" stop-color="#F5841F"/>
<stop offset="1" stop-color="#F68B1F"/>
</linearGradient>
<path id="path0_fill" d="M 1.88235 3.73936C 2.92194 3.73936 3.76471 2.90228 3.76471 1.86968C 3.76471 0.837087 2.92194 0 1.88235 0C 0.842753 0 0 0.837087 0 1.86968C 0 2.90228 0.842753 3.73936 1.88235 3.73936Z"/>
<path id="path1_fill" d="M 4.70588 9.34841C 7.30487 9.34841 9.41177 7.2557 9.41177 4.67421C 9.41177 2.09271 7.30487 2.37742e-06 4.70588 2.37742e-06C 2.1069 2.37742e-06 2.39354e-06 2.09271 2.39354e-06 4.67421C 2.39354e-06 7.2557 2.1069 9.34841 4.70588 9.34841Z"/>
<path id="path2_fill" d="M 3.29412 6.54388C 5.11341 6.54388 6.58823 5.07899 6.58823 3.27194C 6.58823 1.4649 5.11341 -2.37742e-06 3.29412 -2.37742e-06C 1.47483 -2.37742e-06 2.39353e-06 1.4649 2.39353e-06 3.27194C 2.39353e-06 5.07899 1.47483 6.54388 3.29412 6.54388Z"/>
<path id="path3_fill" d="M 24.1569 14.4842C 23.8431 14.3284 23.5294 14.1726 23.2157 14.1726C 22.5882 14.0167 22.1176 13.7051 21.8039 13.0819C 21.6471 12.4587 21.8039 11.6797 22.4314 11.2122C 23.8431 10.2774 24.7843 8.71932 24.9412 6.84963C 25.2549 3.7335 23.0588 0.773169 20.0784 0.149942C 16.4706 -0.629092 13.0196 1.70801 12.549 5.29157C 12.2353 6.84963 12.7059 8.40771 13.4902 9.65416C 13.9608 10.589 13.9608 11.8355 13.4902 12.7703C 12.8627 13.7051 12.0784 14.0168 11.1373 14.0168C 10.8235 14.0168 10.5098 14.0168 10.0392 14.0168C 7.21568 14.1726 4.86274 16.5097 4.86274 19.47C 4.86274 20.5606 5.17647 21.4955 5.64706 22.4303C 6.27451 23.3652 5.80392 24.4558 5.17647 25.3906L 4.86274 25.8581C 4.39216 26.6371 3.60784 27.1045 2.66666 27.1045C 2.5098 27.1045 2.19608 27.2603 2.03922 27.2603C 0.784315 27.7278 2.39353e-06 28.8184 2.39353e-06 30.0649C 2.39353e-06 32.0903 2.03922 33.6484 4.07843 33.0252C 5.33333 32.7136 6.11765 31.6229 6.27451 30.3765C 6.27451 30.0649 6.27451 29.5974 6.11764 29.2858C 5.80392 28.351 5.96078 27.4161 6.58823 26.6371L 7.05882 26.0139C 7.52941 25.2348 9.09804 24.7674 10.0392 24.7674C 10.6667 24.7674 11.1373 24.7674 11.7647 24.6116C 13.9608 24.1442 15.6863 22.2745 15.8431 19.9374C 16 18.8468 15.6863 17.7561 15.2157 16.8213C 14.7451 15.8864 14.5882 14.7958 15.0588 14.0168L 15.2157 13.7051C 15.8431 12.7703 16.7843 12.3029 17.8823 12.4587C 18.1961 12.4587 18.6667 12.6145 18.9804 12.6145C 19.6078 12.6145 20.2353 13.0819 20.549 13.7051C 20.7059 14.3284 20.549 14.9516 20.0784 15.419C 19.6078 15.8864 19.2941 16.5097 19.1372 17.2887C 18.6667 19.0026 19.451 20.7164 21.0196 21.6513C 23.0588 22.8977 25.7255 21.9629 26.6667 19.7816C 26.9804 17.6003 26.0392 15.2632 24.1569 14.4842Z"/>
</defs>
</svg>
