<svg width="30" height="39" viewBox="0 0 30 39" version="1.1" xmlns="http://www.w3.org/2000/svg" xmlns:xlink="http://www.w3.org/1999/xlink">
<title>offer</title>
<desc>Created using Figma</desc>
<g id="Canvas" transform="translate(-760 -4556)">
<g id="offer">
<g id="Vector">
<use xlink:href="#path0_fill" transform="translate(760 4556)" fill="#FF5A00"/>
</g>
</g>
</g>
<defs>
<path id="path0_fill" d="M 5.09963 12.1133C 5.09963 10.8873 4.97763 9.64953 5.12403 8.43552C 5.66084 3.84132 9.77227 0.211194 14.5547 0.00885949C 19.3737 -0.193475 23.7658 3.09149 24.7418 7.64998C 24.9004 8.38791 24.9492 9.13774 24.9858 9.88757C 25.0224 10.6136 24.998 11.3515 24.998 12.149C 25.2176 12.1609 25.4128 12.1847 25.608 12.1847C 26.5474 12.1847 27.4746 12.1847 28.414 12.1847C 29.573 12.1847 30 12.6131 30 13.72C 30 19.1355 30 24.5509 30 29.9663C 30 32.442 30 34.9295 30 37.4051C 30 38.5834 29.573 39 28.3408 39C 19.4347 39 10.5287 39 1.62261 39C 0.439203 39 1.81795e-10 38.5715 1.81795e-10 37.4289C 1.81795e-10 29.5498 1.81795e-10 21.6825 1.81795e-10 13.8033C 1.81795e-10 12.5774 0.414803 12.1847 1.69581 12.1847C 2.73282 12.1847 3.76983 12.1847 4.80683 12.1728C 4.84343 12.1728 4.88003 12.149 4.91663 12.1371C 4.96543 12.1371 5.02643 12.1252 5.09963 12.1133ZM 2.53762 36.5244C 10.8459 36.5244 19.1297 36.5244 27.438 36.5244C 27.438 29.2165 27.438 21.9563 27.438 14.6722C 26.6084 14.6722 25.8032 14.6722 24.9858 14.6722C 24.9858 15.91 24.998 17.1002 24.9736 18.2904C 24.9614 18.9926 24.4002 19.5044 23.7292 19.5044C 23.0704 19.5044 22.5579 19.0402 22.4847 18.3499C 22.4603 18.0762 22.4725 17.7905 22.4725 17.5168C 22.4725 16.5765 22.4725 15.6244 22.4725 14.6603C 17.4583 14.6603 12.5051 14.6603 7.49085 14.6603C 7.49085 14.9459 7.49085 15.1959 7.49085 15.4458C 7.49085 16.398 7.51525 17.3502 7.47865 18.3023C 7.45425 18.9331 7.03945 19.3854 6.46604 19.4806C 5.90484 19.5758 5.44124 19.3616 5.18503 18.8855C 5.05083 18.6356 5.00203 18.3142 5.00203 18.0286C 4.97763 16.9098 4.98983 15.7791 4.98983 14.6484C 4.12363 14.6484 3.34282 14.6484 2.53762 14.6484C 2.53762 21.9563 2.53762 29.2284 2.53762 36.5244ZM 22.4482 12.1609C 22.4482 11.1611 22.497 10.2089 22.4359 9.25676C 22.1553 4.48403 17.1045 1.18716 12.5173 2.86535C 8.02765 4.51974 7.11265 8.19747 7.57625 12.1609C 12.5051 12.1609 17.4461 12.1609 22.4482 12.1609Z"/>
</defs>
</svg>
