<?xml version="1.0" encoding="UTF-8"?>
<svg width="30px" height="39px" viewBox="0 0 30 39" version="1.1" xmlns="http://www.w3.org/2000/svg" xmlns:xlink="http://www.w3.org/1999/xlink">
    <!-- Generator: Sketch 47.1 (45422) - http://www.bohemiancoding.com/sketch -->
    <title>Untitled 6</title>
    <desc>Created with Sketch.</desc>
    <defs></defs>
    <g id="Page-1" stroke="none" stroke-width="1" fill="none" fill-rule="evenodd">
        <g id="offers" fill-rule="nonzero" fill="#FF5A00">
            <path d="M5.09963,12.1133 C5.09963,10.8873 4.97763,9.64953 5.12403,8.43552 C5.66084,3.84132 9.77227,0.211194 14.5547,0.00885949 C19.3737,-0.193475 23.7658,3.09149 24.7418,7.64998 C24.9004,8.38791 24.9492,9.13774 24.9858,9.88757 C25.0224,10.6136 24.998,11.3515 24.998,12.149 C25.2176,12.1609 25.4128,12.1847 25.608,12.1847 C26.5474,12.1847 27.4746,12.1847 28.414,12.1847 C29.573,12.1847 30,12.6131 30,13.72 C30,19.1355 30,24.5509 30,29.9663 C30,32.442 30,34.9295 30,37.4051 C30,38.5834 29.573,39 28.3408,39 C19.4347,39 10.5287,39 1.62261,39 C0.439203,39 1.81794135e-10,38.5715 1.81794135e-10,37.4289 C1.81794135e-10,29.5498 1.81794135e-10,21.6825 1.81794135e-10,13.8033 C1.81794135e-10,12.5774 0.414803,12.1847 1.69581,12.1847 C2.73282,12.1847 3.76983,12.1847 4.80683,12.1728 C4.84343,12.1728 4.88003,12.149 4.91663,12.1371 C4.96543,12.1371 5.02643,12.1252 5.09963,12.1133 Z M2.53762,36.5244 C10.8459,36.5244 19.1297,36.5244 27.438,36.5244 C27.438,29.2165 27.438,21.9563 27.438,14.6722 C26.6084,14.6722 25.8032,14.6722 24.9858,14.6722 C24.9858,15.91 24.998,17.1002 24.9736,18.2904 C24.9614,18.9926 24.4002,19.5044 23.7292,19.5044 C23.0704,19.5044 22.5579,19.0402 22.4847,18.3499 C22.4603,18.0762 22.4725,17.7905 22.4725,17.5168 C22.4725,16.5765 22.4725,15.6244 22.4725,14.6603 C17.4583,14.6603 12.5051,14.6603 7.49085,14.6603 C7.49085,14.9459 7.49085,15.1959 7.49085,15.4458 C7.49085,16.398 7.51525,17.3502 7.47865,18.3023 C7.45425,18.9331 7.03945,19.3854 6.46604,19.4806 C5.90484,19.5758 5.44124,19.3616 5.18503,18.8855 C5.05083,18.6356 5.00203,18.3142 5.00203,18.0286 C4.97763,16.9098 4.98983,15.7791 4.98983,14.6484 C4.12363,14.6484 3.34282,14.6484 2.53762,14.6484 C2.53762,21.9563 2.53762,29.2284 2.53762,36.5244 Z M22.4482,12.1609 C22.4482,11.1611 22.497,10.2089 22.4359,9.25676 C22.1553,4.48403 17.1045,1.18716 12.5173,2.86535 C8.02765,4.51974 7.11265,8.19747 7.57625,12.1609 C12.5051,12.1609 17.4461,12.1609 22.4482,12.1609 Z" id="path0_fill"></path>
        </g>
    </g>
</svg>