<svg width="364" height="364" viewBox="0 0 364 364" version="1.1" xmlns="http://www.w3.org/2000/svg" xmlns:xlink="http://www.w3.org/1999/xlink">
<title>Star 2</title>
<desc>Created using Figma</desc>
<g id="Canvas" transform="translate(-716 -4041)">
<g id="Star 2">
<use xlink:href="#path0_fill" transform="translate(716 4041)" fill="#C4C4C4" fill-opacity="0.1"/>
</g>
</g>
<defs>
<path id="path0_fill" d="M 182 0L 186.756 136.749L 219.84 3.97714L 196.06 138.727L 256.026 15.7347L 204.75 142.596L 288.977 34.7589L 212.445 148.187L 317.252 60.2182L 218.81 155.256L 339.617 91L 223.566 163.493L 355.092 125.759L 226.506 172.54L 363.003 162.976L 227.5 182L 363.003 201.024L 226.506 191.46L 355.092 238.241L 223.566 200.507L 339.617 273L 218.81 208.744L 317.252 303.782L 212.445 215.813L 288.977 329.241L 204.75 221.404L 256.026 348.265L 196.06 225.273L 219.84 360.023L 186.756 227.251L 182 364L 177.244 227.251L 144.16 360.023L 167.94 225.273L 107.974 348.265L 159.25 221.404L 75.0231 329.241L 151.555 215.813L 46.7476 303.782L 145.19 208.744L 24.3834 273L 140.434 200.507L 8.90771 238.241L 137.494 191.46L 0.997015 201.024L 136.5 182L 0.997015 162.976L 137.494 172.54L 8.90771 125.759L 140.434 163.493L 24.3834 91L 145.19 155.256L 46.7476 60.2182L 151.555 148.187L 75.0231 34.7589L 159.25 142.596L 107.974 15.7347L 167.94 138.727L 144.16 3.97714L 177.244 136.749L 182 0Z"/>
</defs>
</svg>
