<?xml version="1.0" encoding="UTF-8"?>
<svg width="340px" height="400px" viewBox="0 0 340 400" version="1.1" xmlns="http://www.w3.org/2000/svg" xmlns:xlink="http://www.w3.org/1999/xlink">
    <!-- Generator: Sketch 47.1 (45422) - http://www.bohemiancoding.com/sketch -->
    <title>Untitled 4</title>
    <desc>Created with Sketch.</desc>
    <defs></defs>
    <g id="Page-1" stroke="none" stroke-width="1" fill="none" fill-rule="evenodd">
        <g id="users" fill-rule="nonzero" fill="#FF5A00">
            <path d="M100.705,200.21 C46.7347,152.49 50.4118,75.1131 93.4694,32.0308 C135.459,-9.95308 201.054,-10.6854 244.23,29.956 C287.762,70.9635 295.235,150.904 239.486,199.966 C246.484,201.431 253.364,202.529 260.125,204.482 C306.741,217.785 338.767,260.013 339.716,309.93 C340.191,335.193 339.953,360.335 339.835,385.599 C339.835,395.606 335.209,400 324.889,400 C265.818,400 206.748,400 147.677,400 C103.789,400 59.9011,400 16.0132,400 C3.91433,400 3.55271368e-15,395.85 3.55271368e-15,383.646 C3.55271368e-15,360.457 3.55271368e-15,337.268 3.55271368e-15,314.079 C3.55271368e-15,254.521 40.8039,207.655 98.4513,200.943 C98.9257,200.821 99.5188,200.577 100.705,200.21 Z M23.1301,374.126 C121.7,374.126 218.609,374.126 315.637,374.126 C315.637,351.304 316.586,328.847 315.4,306.635 C313.976,278.808 301.166,256.718 279.103,240.608 C266.056,231.088 251.466,225.352 235.453,225.23 C191.446,224.986 147.321,224.131 103.315,225.474 C65.8319,226.572 32.738,255.497 26.9258,293.454 C22.7743,319.816 24.1977,346.91 23.1301,374.126 Z M170.095,24.9521 C123.361,24.8301 85.0477,64.0069 84.8104,111.971 C84.5732,159.813 122.886,199.6 169.384,199.722 C216.237,199.966 254.906,160.423 255.024,112.337 C255.024,64.4951 216.83,25.0742 170.095,24.9521 Z" id="path0_fill"></path>
        </g>
    </g>
</svg>