<svg width="34" height="28" viewBox="0 0 34 28" version="1.1" xmlns="http://www.w3.org/2000/svg" xmlns:xlink="http://www.w3.org/1999/xlink">
<title>ico4</title>
<desc>Created using Figma</desc>
<g id="Canvas" transform="translate(-1200 -8185)">
<g id="ico4">
<g id="Vector">
<use xlink:href="#path0_fill" transform="translate(1200 8185)" fill="#FF5A00"/>
</g>
<g id="Vector">
<use xlink:href="#path1_fill" transform="translate(1207.22 8191.97)" fill="#FF5A00"/>
</g>
<g id="Vector">
<use xlink:href="#path2_fill" transform="translate(1202.82 8195.46)" fill="#FF5A00"/>
</g>
<g id="Vector">
<use xlink:href="#path3_fill" transform="translate(1213.57 8187.75)" fill="#FF5A00"/>
</g>
<g id="Vector">
<use xlink:href="#path4_fill" transform="translate(1202.82 8193.38)" fill="#FF5A00"/>
</g>
<g id="Vector">
<use xlink:href="#path5_fill" transform="translate(1210.2 8194.93)" fill="#FF5A00"/>
</g>
</g>
</g>
<defs>
<path id="path0_fill" d="M 0 27.2051L 0 6.31347C 0.29161 5.71563 0.775417 5.54481 1.42491 5.55138C 4.1952 5.57766 6.9655 5.55795 9.74242 5.57109C 10.0738 5.57109 10.2461 5.49883 10.3389 5.15063C 10.6305 4.0732 10.9486 3.00892 11.28 1.94463C 11.3993 1.55045 11.5517 1.15626 11.7505 0.794932C 12.0422 0.275927 12.5061 0 13.1357 0C 15.7072 0.00656969 18.2786 0.00656969 20.8567 0C 21.3339 0 21.7448 0.164242 21.9967 0.551854C 22.2352 0.906617 22.4473 1.30737 22.5799 1.71469C 22.9643 2.89723 23.2956 4.09948 23.6602 5.29517C 23.6867 5.39371 23.7794 5.54481 23.8523 5.54481C 24.3759 5.56452 24.9061 5.55795 25.4562 5.55795C 25.4562 5.25575 25.4562 4.99296 25.4562 4.73017C 25.4628 3.56734 26.2581 2.77241 27.4246 2.75927C 28.4717 2.7527 29.5255 2.7527 30.5726 2.75927C 31.7126 2.76584 32.5277 3.58048 32.5344 4.71703C 32.5344 4.98639 32.5344 5.25575 32.5344 5.51854C 33.5219 5.66964 33.5219 5.66964 33.9394 6.3069L 33.9394 27.1985C 33.6743 27.8423 33.1772 28 32.5079 28C 22.1159 27.9869 11.7307 27.9869 1.33875 28C 0.689259 28 0.245217 27.7898 0 27.2051ZM 1.41828 6.96387L 1.41828 7.35148C 1.41828 13.6321 1.41828 19.9193 1.41166 26.1999C 1.41166 26.489 1.47793 26.5875 1.78942 26.5875C 10.4781 26.5809 19.1667 26.5809 27.862 26.5875C 28.1934 26.5875 28.2861 26.5152 28.2861 26.1736C 28.2729 21.634 28.2729 17.0878 28.2795 12.5481C 28.2795 12.0751 28.2265 11.7532 27.7493 11.4444C 26.4238 10.5706 26.6028 8.63257 28.0144 7.88362C 28.1138 7.83107 28.2464 7.72595 28.2596 7.63397C 28.2994 7.42374 28.2729 7.20694 28.2729 6.96387L 27.8752 6.96387C 26.2515 6.96387 24.6278 6.9573 23.004 6.97044C 22.7257 6.97044 22.6196 6.88503 22.56 6.62881C 22.4407 6.14266 22.2816 5.66307 22.1425 5.18348C 21.8177 4.09291 21.4996 3.00235 21.1616 1.91835C 20.9959 1.39277 20.976 1.39934 20.4392 1.39934C 18.1328 1.39934 15.8265 1.39934 13.5135 1.39277C 12.9567 1.39277 12.9435 1.3862 12.7712 1.92492C 12.5193 2.70671 12.294 3.49507 12.062 4.27687C 11.7969 5.16377 11.5318 6.05725 11.2667 6.95073L 1.41828 6.95073L 1.41828 6.96387ZM 32.5012 6.99015L 29.6912 6.99015C 29.6912 7.10183 29.7044 7.18724 29.6912 7.27264C 29.6382 7.61426 29.7574 7.79822 30.0822 7.9756C 30.7781 8.36321 31.1227 9.00704 31.1028 9.80197C 31.0829 10.6232 30.6919 11.2473 29.9563 11.6218C 29.7442 11.7335 29.6845 11.8517 29.6845 12.0685C 29.6912 16.7593 29.6912 21.4566 29.6912 26.1473L 29.6912 26.5744C 30.5461 26.5744 31.3746 26.5612 32.1964 26.5809C 32.4747 26.5875 32.5211 26.4824 32.5211 26.2393C 32.5145 19.9259 32.5145 13.6124 32.5145 7.29892C 32.5145 7.20694 32.5079 7.09526 32.5012 6.99015ZM 31.0962 5.54481C 31.0962 5.24261 31.1028 4.98639 31.0962 4.7236C 31.0896 4.36227 30.9438 4.17832 30.5859 4.17175C 29.5189 4.15861 28.4452 4.15204 27.3782 4.18489C 27.2125 4.19146 26.9474 4.37541 26.9209 4.51337C 26.8546 4.84186 26.901 5.19662 26.901 5.54481L 31.0962 5.54481ZM 28.9621 10.4589C 29.3664 10.4655 29.6912 10.1567 29.6912 9.76912C 29.6912 9.40122 29.3664 9.0793 28.9887 9.0793C 28.6109 9.07274 28.2994 9.38151 28.2928 9.76255C 28.2861 10.1502 28.5711 10.4524 28.9621 10.4589Z"/>
<path id="path1_fill" d="M 6.92858e-05 9.45385C -0.0198132 4.27036 4.24829 0.0132083 9.47076 6.89068e-05C 14.7794 -0.0196401 19.074 4.18496 19.0872 9.41443C 19.1071 14.6439 14.8523 18.9011 9.59668 18.9208C 4.28143 18.9339 0.0199518 14.7293 6.92858e-05 9.45385ZM 1.41835 9.44071C 1.35208 13.8161 4.99057 17.4492 9.50389 17.5083C 13.9377 17.574 17.5961 13.9869 17.6623 9.51954C 17.7286 5.09814 14.1034 1.4454 9.59668 1.39941C 5.11649 1.35342 1.48463 4.92076 1.41835 9.44071Z"/>
<path id="path2_fill" d="M 2.11421 4.21117C 0.954394 4.21117 0.00666194 3.28484 3.44471e-05 2.13515C -0.00659305 0.952605 0.941139 2.00491e-07 2.12746 2.00491e-07C 3.28064 2.00491e-07 4.26151 0.978883 4.24826 2.11544C 4.24163 3.27827 3.2939 4.2046 2.11421 4.21117ZM 2.81672 2.10887C 2.81672 1.72126 2.53174 1.43219 2.13409 1.42562C 1.72981 1.41905 1.41169 1.72783 1.41832 2.11544C 1.41832 2.48991 1.73644 2.80526 2.10758 2.81183C 2.4986 2.8184 2.81672 2.50305 2.81672 2.10887Z"/>
<path id="path3_fill" d="M 2.02255e-07 1.39362C 0.119295 0.966591 0.218707 0.56584 0.357884 0.178229C 0.391022 0.0928231 0.569965 0.0205567 0.682632 0.0205567C 2.27986 0.013987 3.87708 0.013987 5.47431 0.0205567C 5.77917 0.0205567 6.16357 -0.0582796 6.36902 0.0928231C 6.56122 0.230787 6.56122 0.624968 6.64738 0.907464C 6.69377 1.06514 6.74016 1.21624 6.78655 1.40019L 2.02255e-07 1.40019L 2.02255e-07 1.39362Z"/>
<path id="path4_fill" d="M 0.00810385 0L 4.23645 0L 4.23645 1.3862C 4.14366 1.39277 4.05088 1.40591 3.95146 1.40591C 2.75189 1.40591 1.54568 1.39934 0.346106 1.41248C 0.0611239 1.41905 -0.0117785 1.32051 0.00147646 1.05772C 0.0213589 0.709526 0.00810385 0.361333 0.00810385 0Z"/>
<path id="path5_fill" d="M 4.46041e-05 6.52371C -0.0132104 2.91695 2.90289 0.00658129 6.54138 1.16026e-05C 10.1467 -0.00655808 13.1159 2.87753 13.1291 6.38575C 13.1424 10.0845 10.2594 13.0014 6.58115 13.0146C 2.93602 13.0146 0.0132996 10.137 4.46041e-05 6.52371ZM 11.7108 6.52371C 11.7108 3.69217 9.41109 1.39935 6.56789 1.39278C 3.73132 1.38622 1.39845 3.70531 1.4117 6.51057C 1.41833 9.32897 3.74458 11.6152 6.5944 11.6086C 9.39783 11.6021 11.7108 9.30269 11.7108 6.52371Z"/>
</defs>
</svg>
