<svg width="28" height="27" viewBox="0 0 28 27" version="1.1" xmlns="http://www.w3.org/2000/svg" xmlns:xlink="http://www.w3.org/1999/xlink">
<title>ico2</title>
<desc>Created using Figma</desc>
<g id="Canvas" transform="translate(-1204 -8078)">
<g id="ico2">
<g id="Vector">
<use xlink:href="#path0_fill" transform="translate(1204 8078)" fill="#FF5A00"/>
</g>
</g>
</g>
<defs>
<path id="path0_fill" d="M 8.72845 0C 9.35191 0.143717 9.99407 0.243694 10.5988 0.449896C 13.7535 1.5059 15.9544 4.58644 15.9606 7.90442C 15.9606 8.54177 15.5616 8.99167 14.9755 8.99792C 14.3895 9.00417 13.978 8.57302 13.9655 7.93566C 13.8969 4.9801 11.8458 2.59315 8.92796 2.08077C 5.83559 1.5309 2.69958 3.71789 2.11353 6.81092C 1.82674 8.34182 2.11977 9.79148 2.66218 11.2099C 3.46644 13.3094 4.7196 15.1465 6.11615 16.8898C 8.40425 19.7454 11.0228 22.2573 13.8284 24.5943C 13.8658 24.6255 13.9094 24.6568 13.978 24.7068C 14.4768 24.2819 14.9755 23.8632 15.4618 23.4321C 18.311 20.9077 20.9795 18.2208 23.1553 15.0715C 24.29 13.4281 25.2564 11.7035 25.7115 9.73525C 26.229 7.51701 25.83 5.51122 24.2339 3.83661C 22.4882 2.01203 19.8323 1.5059 17.5192 2.51192C 17.3073 2.60565 17.0579 2.67438 16.8334 2.65564C 16.3721 2.61814 16.0354 2.25573 15.9668 1.79958C 15.9045 1.38718 16.1352 0.956029 16.5529 0.756075C 17.2886 0.399907 18.0617 0.181208 18.8722 0.0687341C 18.9594 0.056237 19.0467 0.0249942 19.134 0.00624855L 20.6927 0.00624855C 20.7612 0.0249942 20.8298 0.056237 20.8984 0.0624855C 24.1903 0.568618 26.3973 2.40569 27.5258 5.52997C 27.7253 6.07984 27.7939 6.67346 27.9248 7.24832L 27.9248 8.81046C 27.9061 8.87919 27.8749 8.94168 27.8625 9.01041C 27.6754 9.79773 27.5507 10.6038 27.3013 11.3724C 26.6405 13.4031 25.5432 15.2027 24.2963 16.9148C 21.9271 20.1641 19.1028 22.9759 16.0541 25.5753C 15.4618 26.0752 14.8259 26.5251 14.2087 27L 13.7099 27C 13.4855 26.85 13.2485 26.7188 13.0428 26.5501C 12.1325 25.7878 11.2161 25.0317 10.3432 24.2381C 7.74962 21.8887 5.33682 19.3643 3.31681 16.4837C 2.03248 14.6404 0.935191 12.7033 0.349138 10.5101C 0.199507 9.95395 0.112223 9.37908 0 8.81046L 0 7.24832C 0.0187038 7.16709 0.0498769 7.09211 0.0623461 7.01088C 0.567349 3.76788 2.35668 1.56839 5.43034 0.43115C 6.00393 0.218699 6.62739 0.137468 7.23214 0L 8.72845 0Z"/>
</defs>
</svg>
