<svg width="32" height="29" viewBox="0 0 32 29" version="1.1" xmlns="http://www.w3.org/2000/svg" xmlns:xlink="http://www.w3.org/1999/xlink">
<title>ico1</title>
<desc>Created using Figma</desc>
<g id="Canvas" transform="translate(-1202 -8019)">
<g id="ico1">
<g id="Vector">
<use xlink:href="#path0_fill" transform="translate(1202 8019.01)" fill="#FF5A00"/>
</g>
<g id="Vector">
<use xlink:href="#path1_fill" transform="translate(1207.37 8028.22)" fill="#FF5A00"/>
</g>
</g>
</g>
<defs>
<path id="path0_fill" d="M 0 24.6793C 0.438547 24.0975 0.870917 23.5032 1.32799 22.934C 1.61212 22.5712 1.85919 22.2584 1.85301 21.7204C 1.84066 20.8634 1.97655 20.0001 2.11244 19.1494C 2.53863 16.5283 3.39102 14.0699 4.89196 11.8742C 6.3929 9.67848 8.35092 8.07706 10.834 7.13873C 10.939 7.1012 11.0748 6.96358 11.0872 6.86349C 11.1922 5.49353 11.2046 5.43723 12.0817 4.32999C 11.5257 3.44796 11.5443 2.8099 12.1434 1.94038C 14.0026 -0.755762 17.9989 -0.61814 19.6728 2.20311C 20.1052 2.93501 20.0311 3.64814 19.5369 4.3425C 20.272 5.02436 20.5932 5.86886 20.5376 6.86349C 20.5252 7.09494 20.692 7.10745 20.8279 7.1575C 22.1744 7.65794 23.3912 8.38359 24.4783 9.32817C 26.3684 10.9671 27.6531 13.0252 28.5302 15.3585C 29.3023 17.4291 29.7223 19.581 29.7903 21.7892C 29.8026 22.2208 29.9324 22.5086 30.1918 22.7964C 30.5006 23.1467 30.8033 23.5032 31.0874 23.8723C 31.2851 24.1288 31.458 24.4165 31.6371 24.6855L 31.6371 26.7499C 31.6186 26.7749 31.5939 26.7999 31.5877 26.8249C 31.2233 28.2449 30.2659 28.9893 28.8144 28.9893C 23.1688 28.9893 17.5233 28.9893 11.8716 28.9893C 8.81417 28.9893 5.76287 28.9893 2.7054 28.9893C 1.38976 28.9893 0.382956 28.1824 0.0679438 26.8937C 0.0555904 26.8437 0.0308836 26.7999 0.0123534 26.7499L 0.0123534 24.6793L 0 24.6793ZM 15.7815 22.3022C 19.7778 22.3022 23.768 22.3022 27.7643 22.3022C 28.3758 22.3022 28.5302 22.1458 28.4561 21.539C 28.3696 20.7758 28.2955 20.0064 28.1596 19.2495C 27.7458 16.9349 27.0108 14.7392 25.7198 12.7625C 24.1695 10.3728 22.0509 8.77143 19.3022 8.0583C 17.301 7.53909 15.275 7.4953 13.2429 7.85812C 10.6548 8.31478 8.4868 9.53461 6.78203 11.5677C 5.46639 13.1315 4.614 14.9457 4.01486 16.8911C 3.54543 18.43 3.27366 20.0064 3.1563 21.6078C 3.11306 22.1458 3.2613 22.2959 3.79868 22.3022C 3.84192 22.3022 3.87898 22.3022 3.92221 22.3022C 7.87531 22.3022 11.8284 22.3022 15.7815 22.3022ZM 15.8124 27.6256C 17.4801 27.6256 19.1478 27.6256 20.8155 27.6256C 23.5209 27.6256 26.2263 27.6256 28.9379 27.6256C 29.7347 27.6256 30.2597 27.1189 30.303 26.3245C 30.3647 25.1297 30.3647 25.1297 29.6359 24.2164C 29.5556 24.1163 29.4629 24.035 29.4012 23.9286C 29.2776 23.7097 29.0923 23.6721 28.8576 23.6721C 20.2843 23.6784 11.711 23.6846 3.13777 23.6659C 2.6251 23.6659 2.31627 23.8285 1.97655 24.2101C 1.47623 24.7731 1.28476 25.3549 1.30329 26.118C 1.32799 27.0814 1.94566 27.6507 2.82276 27.6444C 7.14646 27.6131 11.4825 27.6256 15.8124 27.6256ZM 16.4918 3.60435C 16.9983 3.60435 17.4801 3.60435 17.9619 3.60435C 18.2028 3.60435 18.4498 3.61686 18.5734 3.34787C 18.6907 3.0914 18.5548 2.88496 18.4128 2.69104C 17.1218 0.851913 14.4473 0.876935 13.1935 2.74109C 13.0637 2.93501 12.9464 3.13519 13.0637 3.3729C 13.1811 3.61061 13.4096 3.5981 13.6258 3.5981C 14.1261 3.5981 14.6265 3.5981 15.1268 3.5981L 15.1268 4.95555C 14.6944 4.95555 14.2991 4.94304 13.8976 4.95555C 13.0452 4.98683 12.3225 5.83758 12.4337 6.5382C 13.5641 6.45062 14.6882 6.28798 15.8124 6.28798C 16.9365 6.28798 18.0607 6.44437 19.1849 6.5382C 19.2713 5.80005 18.5734 4.99308 17.7395 4.95555C 17.3319 4.93678 16.9242 4.95555 16.4918 4.95555L 16.4918 3.60435Z"/>
<path id="path1_fill" d="M 7.80736 -3.81808e-07C 7.80736 0.437888 7.81972 0.838243 7.79501 1.22609C 7.78883 1.30741 7.62824 1.41375 7.52324 1.43877C 6.00376 1.8579 4.70665 2.63984 3.64426 3.81588C 2.68069 4.87932 2.00126 6.13043 1.50712 7.47537C 1.42064 7.70057 1.32182 7.7819 1.0871 7.76938C 0.741206 7.75062 0.389133 7.76313 9.42491e-08 7.76313C 0.648555 5.78638 1.55653 4.01606 3.00806 2.56477C 4.33605 1.22609 5.92964 0.40661 7.80736 -3.81808e-07Z"/>
</defs>
</svg>
