<svg width="30" height="29" viewBox="0 0 30 29" version="1.1" xmlns="http://www.w3.org/2000/svg" xmlns:xlink="http://www.w3.org/1999/xlink">
<title>ico5</title>
<desc>Created using Figma</desc>
<g id="Canvas" transform="translate(-1202 -8246)">
<g id="ico5">
<g id="Vector">
<use xlink:href="#path0_fill" transform="translate(1202 8246)" fill="#FF5A00"/>
</g>
</g>
</g>
<defs>
<path id="path0_fill" d="M 8.3672 19.3104C 8.48258 18.9986 8.70509 18.8637 9.01825 18.8047C 11.1856 18.3495 13.3613 17.9028 15.5287 17.4308C 20.0366 16.4615 24.5444 15.4837 29.0523 14.5144C 29.8269 14.3459 30 14.1351 30 13.3091C 30 10.595 30 7.88938 30 5.1753C 30 3.85197 29.7857 3.63282 28.4919 3.63282C 21.8331 3.63282 15.1743 3.63282 8.51554 3.63282C 8.29303 3.63282 8.07877 3.63282 7.8645 3.67497C 7.55958 3.72554 7.31235 3.60754 7.27114 3.25353C 7.20521 2.69722 7.16401 2.12406 7.08984 1.5509C 7.01567 0.952457 7.07336 0.28658 6.35638 0.00842882C 4.36205 0.00842882 2.36771 0.0168576 0.373371 0C 0.043728 0 -0.0139595 0.092717 0.00252263 0.396155C 0.0272458 0.85974 0.0107637 1.3149 0.0107637 1.77848C 1.65898 1.77848 3.30719 1.79534 4.9554 1.77848C 5.26856 1.77848 5.40042 1.87963 5.42514 2.18306C 5.50755 3.10181 5.60645 4.02055 5.68886 4.93929C 5.80423 6.13618 5.91961 7.33307 6.04322 8.52997C 6.1998 10.005 6.35638 11.4801 6.51296 12.9467C 6.64482 14.152 6.79316 15.3657 6.89205 16.5711C 6.9415 17.1358 7.13929 17.7005 6.92502 18.2737C 6.52945 19.302 6.13387 20.3387 5.74654 21.3671C 5.63941 21.6621 5.44163 21.8306 5.12847 21.8222C 3.42256 21.8054 1.5024 23.567 1.80732 25.8428C 1.98862 27.2167 3.07644 28.5231 4.42797 28.8771C 5.77951 29.2312 7.28762 28.6749 8.08701 27.5538C 8.85343 26.4749 8.90287 25.3033 8.55675 24.0643C 8.42489 23.5923 8.43313 23.5838 8.90287 23.5838C 13.5838 23.5838 18.2647 23.5838 22.9539 23.5838C 23.0857 23.5838 23.2258 23.5501 23.3742 23.626C 23.3412 23.7271 23.3165 23.8367 23.2753 23.9379C 22.5995 25.6573 23.0857 27.3431 24.5609 28.3798C 25.6982 29.1806 26.9096 29.1722 28.1046 28.5484C 29.3325 27.8994 29.9423 26.7952 29.9918 25.4129C 30.0494 23.7946 28.8792 22.2774 27.3134 21.9149C 26.4481 21.7211 25.5416 21.6874 24.6763 21.6789C 19.2124 21.6284 13.7486 21.6536 8.27655 21.6536C 8.09525 21.6536 7.92219 21.6452 7.74088 21.6536C 7.52662 21.6536 7.47717 21.5694 7.55958 21.3671C 7.83978 20.7012 8.11173 20.01 8.3672 19.3104ZM 5.26856 27.242C 4.22195 27.242 3.46377 26.4412 3.47201 25.3708C 3.48849 24.4014 4.32084 23.5501 5.26856 23.5333C 6.24925 23.5248 7.09808 24.393 7.09808 25.4129C 7.10632 26.4834 6.34814 27.242 5.26856 27.242ZM 26.4811 23.5333C 27.47 23.5501 28.2776 24.3762 28.2859 25.3876C 28.2859 26.4581 27.5524 27.2335 26.5223 27.242C 25.4344 27.2504 24.6598 26.4834 24.6598 25.3876C 24.6598 24.4099 25.5333 23.5164 26.4811 23.5333ZM 7.51837 5.81589C 7.47717 5.44502 7.70792 5.48716 7.93043 5.48716C 10.5099 5.48716 13.0976 5.48716 15.677 5.48716C 16.4187 5.48716 17.1604 5.48716 17.9021 5.48716C 21.1821 5.48716 24.4702 5.49559 27.7502 5.47873C 28.1622 5.47873 28.2859 5.58831 28.2859 6.01818C 28.2694 8.08324 28.2776 10.1483 28.2776 12.2134C 28.2776 12.8792 28.2117 12.9467 27.5854 13.0731C 23.1434 14.0087 18.6933 14.9527 14.2513 15.8968C 12.5207 16.2592 10.7983 16.6216 9.06769 16.9925C 8.79574 17.0515 8.69685 16.9756 8.67212 16.6975C 8.4661 14.6493 8.24359 12.6095 8.02932 10.5697C 7.84802 8.98512 7.69144 7.40051 7.51837 5.81589Z"/>
</defs>
</svg>
