<svg width="39" height="26" viewBox="0 0 39 26" version="1.1" xmlns="http://www.w3.org/2000/svg" xmlns:xlink="http://www.w3.org/1999/xlink">
<title>ico3</title>
<desc>Created using Figma</desc>
<g id="Canvas" transform="translate(-1198 -8131)">
<g id="ico3">
<g id="Vector">
<use xlink:href="#path0_fill" transform="translate(1198.01 8131.01)" fill="#FF5A00"/>
</g>
</g>
</g>
<defs>
<path id="path0_fill" d="M 38.6953 23.0722C 38.3098 24.4534 37.2591 24.929 35.9816 24.9516C 33.5022 25.0044 31.0228 24.9893 28.5434 24.9893C 20.0998 24.9893 11.6487 24.9969 3.20508 24.9742C 2.61547 24.9742 2.00318 24.8535 1.43624 24.6874C 0.650087 24.461 0.219215 23.8421 1.12636e-10 23.0722L 1.12636e-10 22.0155C 0.105828 21.7362 0.196538 21.4494 0.325044 21.1852C 0.710561 20.3927 1.31529 19.8116 2.10144 19.404C 7.45333 16.6113 12.7976 13.8111 18.1495 11.0259C 18.4519 10.8674 18.5653 10.7014 18.5426 10.3617C 18.5124 9.90885 18.5275 9.45598 18.535 9.00311C 18.5426 8.39174 18.8525 8.08983 19.4648 8.05964C 21.2412 7.98416 22.6321 6.50479 22.5641 4.77635C 22.4885 2.95733 21.0145 1.56853 19.2305 1.63646C 17.6128 1.69685 16.2975 2.94223 16.1539 4.55746C 16.1464 4.65558 16.1388 4.76125 16.1237 4.85937C 16.0632 5.38017 15.7306 5.68208 15.2619 5.65944C 14.8084 5.62925 14.506 5.29714 14.5211 4.79144C 14.574 2.97242 15.3829 1.56853 16.9552 0.677895C 18.6258 -0.26558 20.3417 -0.227841 21.9669 0.813755C 23.5921 1.85535 24.3102 3.40265 24.1742 5.31224C 24.0306 7.33505 22.5112 9.07104 20.5004 9.5541C 20.2359 9.61448 20.1905 9.7277 20.1603 9.97678C 20.062 10.6259 20.3417 10.9353 20.9086 11.2297C 26.1774 13.9545 31.431 16.7094 36.6846 19.4644C 37.6899 19.9927 38.3627 20.8079 38.6348 21.9325C 38.65 21.9929 38.6802 22.0457 38.7029 22.1061L 38.7029 23.0722L 38.6953 23.0722ZM 31.5444 18.5888C 30.0552 17.8114 28.5963 17.0415 27.1298 16.2867C 26.9408 16.1886 26.7065 16.1282 26.4873 16.1282C 21.7175 16.1207 16.9401 16.1207 12.1702 16.1282C 11.9813 16.1282 11.7696 16.1811 11.6033 16.2716C 10.2275 16.9736 8.85933 17.6906 7.48356 18.4077C 7.37774 18.4605 7.27191 18.5284 7.15096 18.6039C 8.11097 20.0606 8.47381 21.6381 8.23192 23.3515L 30.4483 23.3515C 30.2139 21.6306 30.5617 20.0606 31.5444 18.5888ZM 32.1189 23.359C 33.4493 23.359 34.757 23.359 36.0572 23.359C 36.1706 23.359 36.2839 23.3288 36.3898 23.2986C 36.9189 23.1779 37.1306 22.8911 37.0399 22.3476C 36.9492 21.7664 36.6241 21.306 36.1252 21.0267C 35.1047 20.4456 34.054 19.9172 32.9882 19.3511C 32.1113 20.5739 31.824 21.8947 32.1189 23.359ZM 5.68448 19.3511C 4.64888 19.8946 3.64351 20.4078 2.65326 20.9513C 2.19971 21.2003 1.87467 21.5853 1.70081 22.0759C 1.45136 22.7854 1.68569 23.2307 2.41893 23.3137C 3.0539 23.3817 3.69643 23.3666 4.33895 23.3741C 5.07975 23.3817 5.81299 23.3741 6.56891 23.3741C 6.84859 21.8947 6.57647 20.5739 5.68448 19.3511ZM 23.5468 14.4979C 23.5543 14.4753 23.5694 14.4526 23.577 14.4224C 22.2088 13.7054 20.8481 12.9883 19.4799 12.2864C 19.3892 12.2411 19.2154 12.2789 19.1095 12.3392C 17.8472 12.9883 16.5923 13.6526 15.3375 14.3092C 15.2619 14.3469 15.1939 14.4073 15.0654 14.4979L 23.5468 14.4979Z"/>
</defs>
</svg>
