<svg width="28" height="28" viewBox="0 0 28 28" version="1.1" xmlns="http://www.w3.org/2000/svg" xmlns:xlink="http://www.w3.org/1999/xlink">
<title>Vector</title>
<desc>Created using Figma</desc>
<g id="Canvas" transform="translate(-280 -2163)">
<rect x="280" y="2163" width="28" height="28" fill="#F2F2F2"/>
<clipPath id="clip-0" clip-rule="evenodd">
<path d="M 247 1471L 661 1471L 661 2207L 247 2207L 247 1471Z" fill="#FFFFFF"/>
</clipPath>
<g id="09-splash" clip-path="url(#clip-0)">
<path d="M 247 1471L 661 1471L 661 2207L 247 2207L 247 1471Z" fill="#FFFFFF"/>
<g id="Rectangle 12">
<use xlink:href="#path0_fill" transform="translate(247 1893)" fill="#F2F2F2"/>
</g>
<g id="Group">
<g id="Rectangle 2" filter="url(#filter0_d)">
<use xlink:href="#path1_fill" transform="translate(247 2147)" fill="#FFFFFF"/>
</g>
<g id="home">
<g id="Group">
<g id="Group">
<g id="Vector">
<use xlink:href="#path2_fill" transform="translate(280 2163)" fill="#FF8B10"/>
</g>
</g>
</g>
</g>
</g>
</g>
</g>
<defs>
<filter id="filter0_d" filterUnits="userSpaceOnUse" x="247" y="2123" width="414" height="84" color-interpolation-filters="sRGB">
<feFlood flood-opacity="0" result="BackgroundImageFix"/>
<feColorMatrix in="SourceAlpha" type="matrix" values="0 0 0 0 0 0 0 0 0 0 0 0 0 0 0 0 0 0 255 0"/>
<feOffset dx="0" dy="-6"/>
<feGaussianBlur stdDeviation="9"/>
<feColorMatrix type="matrix" values="0 0 0 0 0 0 0 0 0 0 0 0 0 0 0 0 0 0 0.12 0"/>
<feBlend mode="normal" in2="BackgroundImageFix" result="effect1_dropShadow"/>
<feBlend mode="normal" in="SourceGraphic" in2="effect1_dropShadow" result="shape"/>
</filter>
<path id="path0_fill" d="M 0 0L 414 0L 414 314L 0 314L 0 0Z"/>
<path id="path1_fill" d="M 0 0L 414 0L 414 60L 0 60L 0 0Z"/>
<path id="path2_fill" d="M 2.52233 13.5277C 2.20634 13.8607 1.90744 14.1937 1.58291 14.5182C 1.14737 14.9536 0.643498 14.9792 0.267731 14.6035C -0.108035 14.2193 -0.0909544 13.7497 0.336053 13.3228C 4.65736 8.99395 8.98721 4.67361 13.3171 0.344738C 13.7782 -0.116326 14.2223 -0.116326 14.692 0.353276C 19.0133 4.66507 23.3261 8.98541 27.6389 13.2972C 28.0915 13.7497 28.1171 14.2193 27.7243 14.6121C 27.3485 14.9878 26.8532 14.9622 26.4091 14.5182C 26.0931 14.2023 25.7857 13.8607 25.4782 13.5277C 25.4441 13.5448 25.4099 13.5619 25.3757 13.579C 25.3672 13.7241 25.3587 13.8693 25.3587 14.023C 25.3587 18.3006 25.3587 22.5868 25.3587 26.8644C 25.3587 27.7012 25.0598 28 24.2314 28C 17.5017 28 10.7721 28 4.04247 28C 3.93145 28 3.81189 28 3.70087 28C 2.94934 27.9915 2.63335 27.6841 2.63335 26.9413C 2.63335 23.7394 2.63335 20.5376 2.63335 17.3358C 2.63335 16.0892 2.63335 14.8426 2.63335 13.596C 2.60773 13.5704 2.56503 13.5448 2.52233 13.5277ZM 14.0344 2.12069C 13.9661 2.16338 13.9234 2.18045 13.8978 2.21461C 10.7892 5.32251 7.67203 8.43042 4.57196 11.5469C 4.4524 11.6664 4.39262 11.8969 4.39262 12.0762C 4.38408 16.5844 4.38408 21.0926 4.38408 25.6093C 4.38408 25.8057 4.38408 26.0021 4.38408 26.207C 6.16043 26.207 7.877 26.207 9.6448 26.207C 9.6448 26.0021 9.6448 25.8228 9.6448 25.6435C 9.6448 22.9966 9.6448 20.3498 9.6448 17.7029C 9.6448 16.9174 9.93517 16.6271 10.7294 16.6271C 12.9071 16.6271 15.0849 16.6271 17.2626 16.6271C 18.1081 16.6271 18.3814 16.9003 18.3814 17.7541C 18.3814 20.4181 18.3814 23.0735 18.3814 25.7374C 18.3814 25.8911 18.3814 26.0362 18.3814 26.207C 20.1492 26.207 21.8657 26.207 23.5994 26.207C 23.6165 26.1216 23.6336 26.0533 23.6336 25.985C 23.6336 21.3146 23.6336 16.6527 23.625 11.9823C 23.625 11.8201 23.5225 11.6323 23.4115 11.5127C 22.9162 10.9833 22.3867 10.4796 21.8743 9.9673C 19.2695 7.35461 16.6648 4.75045 14.0344 2.12069ZM 11.4041 26.1984C 13.1548 26.1984 14.8714 26.1984 16.6136 26.1984C 16.6136 23.5772 16.6136 20.9901 16.6136 18.3945C 14.8628 18.3945 13.1377 18.3945 11.4041 18.3945C 11.4041 21.0072 11.4041 23.5943 11.4041 26.1984Z"/>
</defs>
</svg>
