<svg width="29" height="28" viewBox="0 0 29 28" version="1.1" xmlns="http://www.w3.org/2000/svg" xmlns:xlink="http://www.w3.org/1999/xlink">
<title>Vector</title>
<desc>Created using Figma</desc>
<g id="Canvas" transform="translate(-440 -2163)">
<rect x="440" y="2163" width="29" height="28" fill="#F2F2F2"/>
<clipPath id="clip-0" clip-rule="evenodd">
<path d="M 247 1471L 661 1471L 661 2207L 247 2207L 247 1471Z" fill="#FFFFFF"/>
</clipPath>
<g id="09-splash" clip-path="url(#clip-0)">
<path d="M 247 1471L 661 1471L 661 2207L 247 2207L 247 1471Z" fill="#FFFFFF"/>
<g id="Rectangle 12">
<use xlink:href="#path0_fill" transform="translate(247 1893)" fill="#F2F2F2"/>
</g>
<g id="Group">
<g id="Rectangle 2" filter="url(#filter0_d)">
<use xlink:href="#path1_fill" transform="translate(247 2147)" fill="#FFFFFF"/>
</g>
<g id="_star">
<g id="Group">
<g id="Group">
<g id="Vector">
<use xlink:href="#path2_fill" transform="translate(440 2163)" fill="#FF8B10"/>
</g>
</g>
</g>
</g>
</g>
</g>
</g>
<defs>
<filter id="filter0_d" filterUnits="userSpaceOnUse" x="247" y="2123" width="414" height="84" color-interpolation-filters="sRGB">
<feFlood flood-opacity="0" result="BackgroundImageFix"/>
<feColorMatrix in="SourceAlpha" type="matrix" values="0 0 0 0 0 0 0 0 0 0 0 0 0 0 0 0 0 0 255 0"/>
<feOffset dx="0" dy="-6"/>
<feGaussianBlur stdDeviation="9"/>
<feColorMatrix type="matrix" values="0 0 0 0 0 0 0 0 0 0 0 0 0 0 0 0 0 0 0.12 0"/>
<feBlend mode="normal" in2="BackgroundImageFix" result="effect1_dropShadow"/>
<feBlend mode="normal" in="SourceGraphic" in2="effect1_dropShadow" result="shape"/>
</filter>
<path id="path0_fill" d="M 0 0L 414 0L 414 314L 0 314L 0 0Z"/>
<path id="path1_fill" d="M 0 0L 414 0L 414 60L 0 60L 0 0Z"/>
<path id="path2_fill" d="M 5.20515 27.1852C 5.44224 25.7791 5.67933 24.3148 5.9246 22.8588C 6.16169 21.4361 6.39878 20.0217 6.6604 18.6074C 6.74215 18.1414 6.65222 17.817 6.30885 17.4758C 4.32218 15.5456 2.35187 13.6071 0.406082 11.6353C 0.177166 11.4023 -0.0599254 10.9364 0.0136548 10.6868C 0.087235 10.4372 0.545067 10.1959 0.87209 10.146C 3.62726 9.70502 6.38243 9.29735 9.1376 8.89799C 9.55455 8.83975 9.78347 8.64007 9.96333 8.25735C 11.1488 5.76969 12.3506 3.29035 13.5524 0.802691C 13.7323 0.428293 13.8713 -0.112503 14.3945 0.0206165C 14.7052 0.103816 15.0322 0.461573 15.1875 0.777731C 16.4139 3.24875 17.6157 5.72809 18.7848 8.22407C 18.9973 8.67335 19.2835 8.83975 19.7331 8.89799C 22.472 9.29735 25.2026 9.6967 27.9333 10.1377C 28.2521 10.1876 28.6936 10.4455 28.7835 10.7117C 28.8653 10.9613 28.6282 11.4189 28.3993 11.6519C 26.4616 13.5988 24.5077 15.529 22.5374 17.4426C 22.2022 17.767 22.0795 18.0582 22.1695 18.5491C 22.66 21.3197 23.126 24.0902 23.5511 26.8691C 23.6002 27.1935 23.5103 27.7177 23.2977 27.8674C 23.077 28.0172 22.5782 27.9257 22.2839 27.7759C 19.7986 26.4947 17.3295 25.1801 14.8687 23.8572C 14.5171 23.6659 14.2473 23.6659 13.8958 23.8572C 11.4349 25.1884 8.96591 26.503 6.49689 27.8175C 5.76926 28.2086 5.21332 27.959 5.20515 27.1852ZM 6.77486 26.0787C 7.06918 25.9289 7.26539 25.8291 7.46161 25.7292C 9.46462 24.6643 11.4758 23.6409 13.4543 22.526C 14.1329 22.1433 14.6398 22.1933 15.2856 22.551C 17.2641 23.6492 19.2753 24.6892 21.2783 25.7542C 21.4582 25.854 21.6462 25.9372 21.9078 26.062C 21.8833 25.8457 21.8751 25.7542 21.8588 25.671C 21.4745 23.3164 21.1148 20.9619 20.6897 18.6157C 20.5425 17.8253 20.6979 17.2678 21.2947 16.7104C 22.987 15.1213 24.6221 13.474 26.2818 11.8432C 26.4126 11.7101 26.5352 11.5687 26.6987 11.3773C 26.4698 11.3274 26.3145 11.2858 26.1673 11.2609C 23.8455 10.9281 21.5236 10.5703 19.2017 10.2791C 18.5068 10.1876 18.0735 9.93798 17.7547 9.24743C 16.7981 7.14248 15.7516 5.08746 14.746 3.00747C 14.6479 2.8078 14.5335 2.60812 14.3781 2.32524C 13.1927 4.75466 12.0645 7.04264 10.9689 9.34727C 10.7073 9.89638 10.3558 10.1709 9.76712 10.2458C 8.05842 10.4621 6.34973 10.7117 4.64103 10.9613C 3.80712 11.0778 2.98139 11.2193 2.00032 11.369C 2.28647 11.6436 2.45815 11.785 2.61349 11.9431C 4.30583 13.6237 6.01453 15.296 7.68235 17.0099C 7.91944 17.2595 8.12383 17.7171 8.08295 18.0499C 7.90309 19.481 7.62512 20.8953 7.3962 22.3097C 7.17546 23.5411 6.98742 24.7558 6.77486 26.0787Z"/>
</defs>
</svg>
