<svg width="24" height="28" viewBox="0 0 24 28" version="1.1" xmlns="http://www.w3.org/2000/svg" xmlns:xlink="http://www.w3.org/1999/xlink">
<title>Vector</title>
<desc>Created using Figma</desc>
<g id="Canvas" transform="translate(-528 -2163)">
<rect x="528" y="2163" width="24" height="28" fill="#F2F2F2"/>
<clipPath id="clip-0" clip-rule="evenodd">
<path d="M 247 1471L 661 1471L 661 2207L 247 2207L 247 1471Z" fill="#FFFFFF"/>
</clipPath>
<g id="09-splash" clip-path="url(#clip-0)">
<path d="M 247 1471L 661 1471L 661 2207L 247 2207L 247 1471Z" fill="#FFFFFF"/>
<g id="Rectangle 12">
<use xlink:href="#path0_fill" transform="translate(247 1893)" fill="#F2F2F2"/>
</g>
<g id="Group">
<g id="Rectangle 2" filter="url(#filter0_d)">
<use xlink:href="#path1_fill" transform="translate(247 2147)" fill="#FFFFFF"/>
</g>
<g id="bell">
<g id="Group">
<g id="Group">
<g id="Vector">
<use xlink:href="#path2_fill" transform="translate(528 2163)" fill="#BDBDBD"/>
</g>
</g>
</g>
</g>
</g>
</g>
</g>
<defs>
<filter id="filter0_d" filterUnits="userSpaceOnUse" x="247" y="2123" width="414" height="84" color-interpolation-filters="sRGB">
<feFlood flood-opacity="0" result="BackgroundImageFix"/>
<feColorMatrix in="SourceAlpha" type="matrix" values="0 0 0 0 0 0 0 0 0 0 0 0 0 0 0 0 0 0 255 0"/>
<feOffset dx="0" dy="-6"/>
<feGaussianBlur stdDeviation="9"/>
<feColorMatrix type="matrix" values="0 0 0 0 0 0 0 0 0 0 0 0 0 0 0 0 0 0 0.12 0"/>
<feBlend mode="normal" in2="BackgroundImageFix" result="effect1_dropShadow"/>
<feBlend mode="normal" in="SourceGraphic" in2="effect1_dropShadow" result="shape"/>
</filter>
<path id="path0_fill" d="M 0 0L 414 0L 414 314L 0 314L 0 0Z"/>
<path id="path1_fill" d="M 0 0L 414 0L 414 60L 0 60L 0 0Z"/>
<path id="path2_fill" d="M 7.23185 24.5233C 5.40871 24.5233 3.58557 24.5233 1.75366 24.5233C 1.46442 24.5233 1.1664 24.5318 0.877154 24.5147C 0.377543 24.4891 0.0181742 24.1385 0.000643982 23.6767C -0.0168862 23.1892 0.324953 22.813 0.850858 22.7702C 1.14011 22.7445 1.42935 22.7616 1.77996 22.7616C 1.77996 22.5393 1.77996 22.3597 1.77996 22.1801C 1.77996 19.1871 1.77119 16.194 1.77996 13.2009C 1.79749 9.52369 4.20789 6.4622 7.81035 5.50442C 8.047 5.44456 8.29243 5.39325 8.58168 5.32483C 8.02947 4.32429 7.88047 3.28099 8.32749 2.21203C 8.61674 1.51935 9.08129 0.963492 9.7299 0.561564C 11.0096 -0.250842 12.675 -0.173877 13.867 0.741149C 15.2607 1.81011 15.5324 3.17837 14.7698 5.34194C 16.4527 5.64124 17.9165 6.35958 19.1349 7.53116C 20.7564 9.10466 21.5453 11.0373 21.5453 13.2608C 21.554 16.2538 21.5453 19.2469 21.5453 22.24C 21.5453 22.3939 21.5453 22.5479 21.5453 22.7616C 21.8257 22.7616 22.0712 22.7531 22.3166 22.7616C 22.9389 22.7787 23.3333 23.1208 23.3333 23.651C 23.3333 24.1727 22.9301 24.5233 22.3078 24.5233C 20.248 24.5233 18.1882 24.5233 16.1109 24.5233C 15.4097 26.7809 13.8933 28.0893 11.4479 27.9953C 9.22153 27.9097 7.85417 26.6099 7.23185 24.5233ZM 3.59433 22.7274C 9.0024 22.7274 14.3579 22.7274 19.6958 22.7274C 19.7133 22.6676 19.7309 22.6419 19.7309 22.6163C 19.7309 19.3068 19.7835 16.0058 19.7134 12.6964C 19.652 9.92562 17.2065 7.36868 14.3754 7.09502C 12.9292 6.9582 11.4566 7.00096 10.0016 7.00096C 6.35534 7.00096 3.6031 9.68617 3.59433 13.2437C 3.58557 15.0823 3.59433 16.9209 3.59433 18.7595C 3.59433 20.0764 3.59433 21.3848 3.59433 22.7274ZM 13.4551 3.51188C 13.4638 2.54555 12.675 1.76735 11.6845 1.7588C 10.6941 1.75024 9.89644 2.51134 9.87891 3.46913C 9.86138 4.44401 10.6678 5.24787 11.667 5.24787C 12.6399 5.25642 13.4463 4.46967 13.4551 3.51188ZM 14.1826 24.5489C 12.5084 24.5489 10.8694 24.5489 9.23029 24.5489C 9.44065 25.4383 10.4311 26.1909 11.4566 26.2593C 12.6662 26.3277 13.7531 25.6607 14.1826 24.5489Z"/>
</defs>
</svg>
