<?xml version="1.0" encoding="UTF-8"?>
<svg width="465px" height="369px" viewBox="0 0 465 369" version="1.1" xmlns="http://www.w3.org/2000/svg" xmlns:xlink="http://www.w3.org/1999/xlink">
    <!-- Generator: Sketch 47.1 (45422) - http://www.bohemiancoding.com/sketch -->
    <title>Untitled 3</title>
    <desc>Created with Sketch.</desc>
    <defs></defs>
    <g id="Page-1" stroke="none" stroke-width="1" fill="none" fill-rule="evenodd">
        <g id="tab5" fill-rule="nonzero" fill="#BDBDBD">
            <path d="M117.5,125 C151.962,125 180,96.963 180,62.5 C180,28.037 151.962,0 117.5,0 C83.038,0 55,28.037 55,62.5 C55,96.963 83.038,125 117.5,125 Z M117.5,15 C143.691,15 165,36.309 165,62.5 C165,88.691 143.691,110 117.5,110 C91.309,110 70,88.691 70,62.5 C70,36.309 91.309,15 117.5,15 Z" id="Shape"></path>
            <path d="M282.5,125 C316.962,125 345,96.963 345,62.5 C345,28.037 316.962,0 282.5,0 C248.038,0 220,28.037 220,62.5 C220,96.963 248.038,125 282.5,125 Z M282.5,15 C308.691,15 330,36.309 330,62.5 C330,88.691 308.691,110 282.5,110 C256.309,110 235,88.691 235,62.5 C235,36.309 256.309,15 282.5,15 Z" id="Shape"></path>
            <path d="M363.656,208.882 C365.134,210.794 367.353,211.797 369.596,211.796 C371.197,211.796 372.811,211.285 374.177,210.231 C377.455,207.698 378.058,202.988 375.526,199.71 C353.077,170.66 319.17,154 282.5,154 C258.955,154 236.236,160.94 216.8,174.071 C213.367,176.39 212.465,181.052 214.783,184.484 C217.103,187.918 221.765,188.82 225.196,186.501 C242.144,175.052 261.959,169 282.5,169 C314.489,169 344.07,183.536 363.656,208.882 Z" id="Shape"></path>
            <path d="M117.5,154 C52.71,154 0,206.71 0,271.5 C0,275.643 3.358,279 7.5,279 C11.642,279 15,275.643 15,271.5 C15,214.981 60.981,169 117.5,169 C174.019,169 220,214.981 220,271.5 C220,275.643 223.358,279 227.5,279 C231.642,279 235,275.643 235,271.5 C235,206.71 182.29,154 117.5,154 Z" id="Shape"></path>
            <path d="M392.5,224 C352.523,224 320,256.523 320,296.5 C320,336.477 352.523,369 392.5,369 C432.477,369 465,336.477 465,296.5 C465,256.523 432.477,224 392.5,224 Z M392.5,354 C360.794,354 335,328.206 335,296.5 C335,264.794 360.794,239 392.5,239 C424.206,239 450,264.794 450,296.5 C450,328.206 424.206,354 392.5,354 Z" id="Shape"></path>
            <path d="M417.5,289 L400,289 L400,271.5 C400,267.357 396.642,264 392.5,264 C388.358,264 385,267.357 385,271.5 L385,289 L367.5,289 C363.358,289 360,292.357 360,296.5 C360,300.643 363.358,304 367.5,304 L385,304 L385,321.5 C385,325.643 388.358,329 392.5,329 C396.642,329 400,325.643 400,321.5 L400,304 L417.5,304 C421.642,304 425,300.643 425,296.5 C425,292.357 421.642,289 417.5,289 Z" id="Shape"></path>
        </g>
    </g>
</svg>