<svg width="34" height="30" viewBox="0 0 34 30" version="1.1" xmlns="http://www.w3.org/2000/svg" xmlns:xlink="http://www.w3.org/1999/xlink">
<title>Vector</title>
<desc>Created using Figma</desc>
<g id="Canvas" transform="translate(-1905 -4960)">
<g id="Vector">
<use xlink:href="#path0_fill" transform="translate(1905 4960)" fill="#BDBDBD"/>
<mask id="mask0_outline_ins">
<use xlink:href="#path0_fill" fill="white" transform="translate(1905 4960)"/>
</mask>
<g mask="url(#mask0_outline_ins)">
<use xlink:href="#path1_stroke_2x" transform="translate(1905 4960)" fill="#FFFFFF"/>
</g>
</g>
</g>
<defs>
<path id="path0_fill" d="M 26.417 16.9565C 26.4621 16.9565 26.4621 16.9115 26.417 16.9565L 26.417 16.9565ZM 32.0616 3.77811L 26.3718 3.77811L 26.3718 1.88906C 26.3718 0.854572 25.5138 1.71576e-07 24.4752 1.71576e-07L 9.43785 1.71576e-07C 8.39924 1.71576e-07 7.54125 0.854572 7.54125 1.88906L 7.54125 3.77811L 1.8966 3.77811C 0.857987 3.77811 0 4.63268 0 5.66717L 0 9.4003C 0 12.4138 1.98692 16.9115 7.54125 16.9115L 8.35408 16.9115C 9.57332 19.6552 12.057 21.7241 15.0825 22.3538L 15.0825 23.928L 15.0825 26.2669L 13.1859 26.2669C 11.1087 26.2669 9.43785 27.931 9.43785 30L 24.5204 30C 24.5204 27.931 22.8495 26.2669 20.7723 26.2669L 18.8757 26.2669L 18.8757 22.3088C 21.9012 21.6792 24.43 19.6102 25.6041 16.8666L 26.3718 16.8666C 31.881 16.8666 33.913 12.3688 33.913 9.35532L 33.913 5.62219C 33.913 4.58771 33.1002 3.77811 32.0616 3.77811ZM 7.54125 13.1334C 4.1093 13.1334 3.7932 10.2549 3.7932 9.4003L 3.7932 7.51124L 7.54125 7.51124L 7.54125 13.1334ZM 22.6237 7.51124L 22.6237 13.1334L 22.6237 14.3028L 22.6237 15.3823C 21.7206 17.4513 19.237 18.7556 16.9791 18.7556C 14.7212 18.7556 12.2376 17.4513 11.3345 15.3823L 11.3345 14.3028L 11.3345 13.1334L 11.3345 7.51124L 11.3345 3.77811L 22.6237 3.77811L 22.6237 7.51124ZM 30.165 9.4003C 30.165 10.03 29.9844 13.1334 26.417 13.1334L 26.417 7.51124L 30.165 7.51124L 30.165 9.4003Z"/>
<path id="path1_stroke_2x" d="M 26.3718 3.77811L 25.3718 3.77811L 25.3718 4.77811L 26.3718 4.77811L 26.3718 3.77811ZM 7.54125 3.77811L 7.54125 4.77811L 8.54125 4.77811L 8.54125 3.77811L 7.54125 3.77811ZM 8.35408 16.9115L 9.26791 16.5054L 9.00398 15.9115L 8.35408 15.9115L 8.35408 16.9115ZM 15.0825 22.3538L 16.0825 22.3538L 16.0825 21.5405L 15.2863 21.3748L 15.0825 22.3538ZM 15.0825 26.2669L 15.0825 27.2669L 16.0825 27.2669L 16.0825 26.2669L 15.0825 26.2669ZM 9.43785 30L 8.43785 30L 8.43785 31L 9.43785 31L 9.43785 30ZM 24.5204 30L 24.5204 31L 25.5204 31L 25.5204 30L 24.5204 30ZM 18.8757 26.2669L 17.8757 26.2669L 17.8757 27.2669L 18.8757 27.2669L 18.8757 26.2669ZM 18.8757 22.3088L 18.6719 21.3298L 17.8757 21.4955L 17.8757 22.3088L 18.8757 22.3088ZM 25.6041 16.8666L 25.6041 15.8666L 24.9443 15.8666L 24.6848 16.4731L 25.6041 16.8666ZM 7.54125 13.1334L 7.54125 14.1334L 8.54125 14.1334L 8.54125 13.1334L 7.54125 13.1334ZM 3.7932 7.51124L 3.7932 6.51124L 2.7932 6.51124L 2.7932 7.51124L 3.7932 7.51124ZM 7.54125 7.51124L 8.54125 7.51124L 8.54125 6.51124L 7.54125 6.51124L 7.54125 7.51124ZM 22.6237 15.3823L 23.5402 15.7824L 23.6237 15.5911L 23.6237 15.3823L 22.6237 15.3823ZM 11.3345 15.3823L 10.3345 15.3823L 10.3345 15.5911L 10.418 15.7824L 11.3345 15.3823ZM 11.3345 3.77811L 11.3345 2.77811L 10.3345 2.77811L 10.3345 3.77811L 11.3345 3.77811ZM 22.6237 3.77811L 23.6237 3.77811L 23.6237 2.77811L 22.6237 2.77811L 22.6237 3.77811ZM 26.417 13.1334L 25.417 13.1334L 25.417 14.1334L 26.417 14.1334L 26.417 13.1334ZM 26.417 7.51124L 26.417 6.51124L 25.417 6.51124L 25.417 7.51124L 26.417 7.51124ZM 30.165 7.51124L 31.165 7.51124L 31.165 6.51124L 30.165 6.51124L 30.165 7.51124ZM 26.417 17.9565C 26.5938 17.9565 26.7895 17.912 26.9708 17.7991C 27.0491 17.7455 27.1845 17.6222 27.243 17.5522C 27.3131 17.4606 27.4508 17.2476 27.4508 16.9397C 27.4411 16.7997 27.3512 16.5037 27.2642 16.3568C 27.1194 16.154 26.924 16.0374 26.7459 15.9819C 26.4319 15.8842 26.1757 15.9697 26.0925 16.0008C 25.8894 16.0766 25.7603 16.1991 25.7113 16.248L 27.1226 17.665C 27.0961 17.6914 26.984 17.8027 26.7923 17.8743C 26.7146 17.9033 26.4626 17.9884 26.1515 17.8916C 25.9748 17.8366 25.7805 17.7207 25.6364 17.5189C 25.4946 17.3203 25.4508 17.1078 25.4508 16.9397C 25.4508 16.6345 25.5872 16.425 25.6544 16.3371C 25.7379 16.228 25.8317 16.1524 25.9139 16.1013C 26.0839 15.9954 26.2627 15.9565 26.417 15.9565L 26.417 17.9565ZM 32.0616 2.77811L 26.3718 2.77811L 26.3718 4.77811L 32.0616 4.77811L 32.0616 2.77811ZM 27.3718 3.77811L 27.3718 1.88906L 25.3718 1.88906L 25.3718 3.77811L 27.3718 3.77811ZM 27.3718 1.88906C 27.3718 0.298531 26.0623 -1 24.4752 -1L 24.4752 1C 24.9653 1 25.3718 1.41061 25.3718 1.88906L 27.3718 1.88906ZM 24.4752 -1L 9.43785 -1L 9.43785 1L 24.4752 1L 24.4752 -1ZM 9.43785 -1C 7.85072 -1 6.54125 0.298532 6.54125 1.88906L 8.54125 1.88906C 8.54125 1.41061 8.94776 1 9.43785 1L 9.43785 -1ZM 6.54125 1.88906L 6.54125 3.77811L 8.54125 3.77811L 8.54125 1.88906L 6.54125 1.88906ZM 7.54125 2.77811L 1.8966 2.77811L 1.8966 4.77811L 7.54125 4.77811L 7.54125 2.77811ZM 1.8966 2.77811C 0.309465 2.77811 -1 4.07664 -1 5.66717L 1 5.66717C 1 5.18872 1.40651 4.77811 1.8966 4.77811L 1.8966 2.77811ZM -1 5.66717L -1 9.4003L 1 9.4003L 1 5.66717L -1 5.66717ZM -1 9.4003C -0.991652 11.036 -0.397245 13.233 0.904373 14.9075C 2.28399 16.6464 4.45713 17.9115 7.54125 17.9115L 7.54125 15.9115C 5.07103 15.9115 3.47355 14.9279 2.47113 13.6644C 1.3907 12.3367 0.991652 10.7781 1 9.4003L -1 9.4003ZM 7.54125 17.9115L 8.35408 17.9115L 8.35408 15.9115L 7.54125 15.9115L 7.54125 17.9115ZM 7.44025 17.3176C 8.78705 20.3483 11.5306 22.636 14.8787 23.3328L 15.2863 21.3748C 12.5833 20.8123 10.3596 18.962 9.26791 16.5054L 7.44025 17.3176ZM 14.0825 22.3538L 14.0825 23.928L 16.0825 23.928L 16.0825 22.3538L 14.0825 22.3538ZM 14.0825 23.928L 14.0825 26.2669L 16.0825 26.2669L 16.0825 23.928L 14.0825 23.928ZM 15.0825 25.2669L 13.1859 25.2669L 13.1859 27.2669L 15.0825 27.2669L 15.0825 25.2669ZM 13.1859 25.2669C 10.5601 25.2669 8.43785 27.375 8.43785 30L 10.4379 30C 10.4379 28.4871 11.6572 27.2669 13.1859 27.2669L 13.1859 25.2669ZM 9.43785 31L 24.5204 31L 24.5204 29L 9.43785 29L 9.43785 31ZM 25.5204 30C 25.5204 27.375 23.3981 25.2669 20.7723 25.2669L 20.7723 27.2669C 22.301 27.2669 23.5204 28.4871 23.5204 30L 25.5204 30ZM 20.7723 25.2669L 18.8757 25.2669L 18.8757 27.2669L 20.7723 27.2669L 20.7723 25.2669ZM 19.8757 26.2669L 19.8757 22.3088L 17.8757 22.3088L 17.8757 26.2669L 19.8757 26.2669ZM 19.0795 23.2879C 22.4187 22.5929 25.2184 20.3097 26.5235 17.26L 24.6848 16.4731C 23.6417 18.9106 21.3838 20.7654 18.6719 21.3298L 19.0795 23.2879ZM 25.6041 17.8666L 26.3718 17.8666L 26.3718 15.8666L 25.6041 15.8666L 25.6041 17.8666ZM 26.3718 17.8666C 29.4355 17.8666 31.6069 16.5998 32.9903 14.8644C 34.3455 13.1643 34.913 11.059 34.913 9.35532L 32.913 9.35532C 32.913 10.6651 32.4645 12.3154 31.4264 13.6177C 30.4165 14.8845 28.8173 15.8666 26.3718 15.8666L 26.3718 17.8666ZM 34.913 9.35532L 34.913 5.62219L 32.913 5.62219L 32.913 9.35532L 34.913 9.35532ZM 34.913 5.62219C 34.913 4.03167 33.6487 2.77811 32.0616 2.77811L 32.0616 4.77811C 32.5517 4.77811 32.913 5.14375 32.913 5.62219L 34.913 5.62219ZM 7.54125 12.1334C 6.16541 12.1334 5.55445 11.588 5.23217 11.0637C 4.82215 10.4484 4.79231 9.78536 4.7932 9.4003L 2.7932 9.4003C 2.7941 9.86981 2.92231 11.0734 3.52832 12.111C 4.22208 13.2396 5.48515 14.1334 7.54125 14.1334L 7.54125 12.1334ZM 4.7932 9.4003L 4.7932 7.51124L 2.7932 7.51124L 2.7932 9.4003L 4.7932 9.4003ZM 3.7932 8.51124L 7.54125 8.51124L 7.54125 6.51124L 3.7932 6.51124L 3.7932 8.51124ZM 6.54125 7.51124L 6.54125 13.1334L 8.54125 13.1334L 8.54125 7.51124L 6.54125 7.51124ZM 21.6237 7.51124L 21.6237 13.1334L 23.6237 13.1334L 23.6237 7.51124L 21.6237 7.51124ZM 21.6237 13.1334L 21.6237 14.3028L 23.6237 14.3028L 23.6237 13.1334L 21.6237 13.1334ZM 21.6237 14.3028L 21.6237 15.3823L 23.6237 15.3823L 23.6237 14.3028L 21.6237 14.3028ZM 21.7073 14.9822C 20.9982 16.6067 18.9348 17.7556 16.9791 17.7556L 16.9791 19.7556C 19.5391 19.7556 22.4431 18.2959 23.5402 15.7824L 21.7073 14.9822ZM 16.9791 17.7556C 15.0234 17.7556 12.96 16.6067 12.2509 14.9822L 10.418 15.7824C 11.5152 18.2959 14.4191 19.7556 16.9791 19.7556L 16.9791 17.7556ZM 12.3345 15.3823L 12.3345 14.3028L 10.3345 14.3028L 10.3345 15.3823L 12.3345 15.3823ZM 12.3345 14.3028L 12.3345 13.1334L 10.3345 13.1334L 10.3345 14.3028L 12.3345 14.3028ZM 12.3345 13.1334L 12.3345 7.51124L 10.3345 7.51124L 10.3345 13.1334L 12.3345 13.1334ZM 12.3345 7.51124L 12.3345 3.77811L 10.3345 3.77811L 10.3345 7.51124L 12.3345 7.51124ZM 11.3345 4.77811L 22.6237 4.77811L 22.6237 2.77811L 11.3345 2.77811L 11.3345 4.77811ZM 21.6237 3.77811L 21.6237 7.51124L 23.6237 7.51124L 23.6237 3.77811L 21.6237 3.77811ZM 29.165 9.4003C 29.1653 9.69097 29.1602 10.3673 28.7617 11.0048C 28.4483 11.5502 27.8412 12.1334 26.417 12.1334L 26.417 14.1334C 28.5601 14.1334 29.8271 13.1649 30.4958 12.0012C 31.0795 10.9295 31.1647 9.73931 31.165 9.4003L 29.165 9.4003ZM 27.417 13.1334L 27.417 7.51124L 25.417 7.51124L 25.417 13.1334L 27.417 13.1334ZM 26.417 8.51124L 30.165 8.51124L 30.165 6.51124L 26.417 6.51124L 26.417 8.51124ZM 29.165 7.51124L 29.165 9.4003L 31.165 9.4003L 31.165 7.51124L 29.165 7.51124Z"/>
</defs>
</svg>
