<svg width="23" height="19" viewBox="0 0 23 19" version="1.1" xmlns="http://www.w3.org/2000/svg" xmlns:xlink="http://www.w3.org/1999/xlink">
<title>Group</title>
<desc>Created using Figma</desc>
<g id="Canvas" transform="translate(-1675 -4990)">
<g id="Group">
<g id="Union">
<use xlink:href="#path0_fill" transform="matrix(0.966574 0.256389 -0.261268 0.965266 1687.14 4990)" fill="#828282"/>
</g>
<g id="Union">
<use xlink:href="#path1_fill" transform="matrix(-0.966574 0.256389 0.261268 0.965266 1685.86 4990)" fill="#828282"/>
</g>
</g>
</g>
<defs>
<path id="path0_fill" fill-rule="evenodd" d="M 1.29592 1.28485L 9.93549 1.2851L 9.9355 15.416L 1.29588 15.4158L 1.29592 1.28485ZM 4.09316e-05 1.28507C -1.79114e-05 0.57538 0.580211 0.000393793 1.29586 0L 9.93543 0.000249353C 10.6512 0.000327526 11.2313 0.575175 11.2314 1.28487L 11.2313 15.4158C 11.2314 16.1255 10.6512 16.7005 9.93544 16.7004L 1.29594 16.7007C 0.580221 16.7006 -6.8725e-05 16.1253 6.10491e-09 15.416L 4.09316e-05 1.28507ZM 5.61569 8.13648C 6.80866 8.13678 7.77555 7.17783 7.77565 5.99563C 7.77561 4.81296 6.80854 3.85427 5.61576 3.85443C 4.42292 3.8546 3.45589 4.81308 3.45593 5.99575C 3.45584 7.17795 4.4229 8.13664 5.61569 8.13648Z"/>
<path id="path1_fill" fill-rule="evenodd" d="M 1.29597 1.28485L 9.93553 1.2851L 9.93555 15.416L 6.13246 15.416L 5.79497 14.4707L 3.67079 16.7007L 9.93548 16.7004C 10.6512 16.7005 11.2314 16.1255 11.2314 15.4158L 11.2314 1.28487C 11.2314 0.575175 10.6513 0.000327526 9.93547 0.000249353L 1.29591 0C 0.58026 0.000393793 3.09096e-05 0.57538 8.97526e-05 1.28507L 0 5.09821L 3.41264 9.95492C 3.72491 10.353 4.45318 11.359 5.03527 12.3425L 4.69446 11.388L 1.29591 4.75399L 1.29597 1.28485ZM 5.03527 12.3425L 5.79497 14.4707L 5.85881 14.4037C 5.91227 13.9838 5.52571 13.1714 5.03527 12.3425ZM 5.61579 8.13646C 6.80876 8.13676 7.77566 7.17782 7.77575 5.99562C 7.77572 4.81295 6.80865 3.85425 5.61587 3.85441C 4.42303 3.85459 3.456 4.81306 3.45604 5.99573C 3.45594 7.17793 4.42301 8.13662 5.61579 8.13646Z"/>
</defs>
</svg>
