<svg width="36" height="50" viewBox="0 0 36 50" version="1.1" xmlns="http://www.w3.org/2000/svg" xmlns:xlink="http://www.w3.org/1999/xlink">
<title>noun_1317_cc</title>
<desc>Created using Figma</desc>
<g id="Canvas" transform="translate(-1625 -5104)">
<g id="noun_1317_cc">
<g id="Vector">
<use xlink:href="#path0_fill" transform="translate(1625 5104)" fill="url(#paint0_linear)"/>
</g>
</g>
</g>
<defs>
<linearGradient id="paint0_linear" x1="0" y1="0" x2="1" y2="0" gradientUnits="userSpaceOnUse" gradientTransform="matrix(35.026 3.85834e-07 -1.69464e-07 34.5238 1.74826e-07 7.7381)">
<stop offset="0" stop-color="#FF5A00"/>
<stop offset="1" stop-color="#FF8A23"/>
</linearGradient>
<path id="path0_fill" d="M 28.3496 31.6717L 35.026 44.2401L 27.9206 44.8051L 23.4447 50L 17.5489 40.8006L 11.6526 49.9995L 6.8939 44.7341L 4.82429e-09 44.2401L 6.67942 31.6717C 6.75074 31.6007 6.75074 31.6007 6.75074 31.6007C 6.82258 32.0922 7.03403 32.4442 7.31984 32.8647C 7.8171 33.5667 8.59715 33.9877 9.52085 34.4792C 10.3039 34.7602 11.0126 34.9017 11.6531 34.9017C 12.3648 34.9017 13.0735 34.7607 13.4995 34.4792C 13.8566 34.7602 14.2112 35.1121 14.6372 35.3226C 15.3489 35.7451 16.2716 36.0246 17.338 36.0246C 18.3325 36.0246 19.1844 35.7446 19.9674 35.3226C 20.3934 35.1121 20.6761 34.7607 20.9589 34.4792C 21.5993 34.7602 22.2393 34.9017 22.951 34.9017C 23.5884 34.9017 24.2283 34.7607 25.0084 34.4792C 26.0742 33.9877 26.7146 33.5667 27.2119 32.8647C 27.4972 32.4437 27.7805 32.0922 27.9231 31.6007C 27.995 31.6717 28.0633 31.6717 28.2064 31.6717C 28.2778 31.6717 28.2778 31.6717 28.3496 31.6717ZM 34.3173 16.8538C 34.3173 17.5558 34.1741 18.1178 33.8913 18.5388C 33.5342 19.3113 29.4149 19.1013 28.6324 19.1013L 28.4927 19.1013L 28.6324 19.1013C 29.3441 19.4528 33.1796 20.7168 33.2514 21.4898C 33.3941 22.0508 33.2514 22.6128 32.9656 23.3148C 32.4 24.8598 31.3337 25.2112 30.6938 25.2112C 30.2678 25.2112 27.1411 23.3853 26.9979 23.2453L 26.7865 23.1748L 26.8578 23.2453C 27.2842 23.6663 30.5506 26.4742 30.2678 27.1777C 30.1247 27.7387 29.8419 28.2312 29.3446 28.7227C 28.6329 29.4247 27.9924 29.7747 27.2124 29.7747C 26.7865 29.7747 24.157 26.7547 23.7311 26.3342L 23.6597 26.2637L 23.6597 26.4742C 23.9425 27.0362 25.7201 30.7582 25.2942 31.3202C 24.9396 31.7412 24.5111 32.1637 23.8024 32.3737C 23.3051 32.5842 22.8073 32.7237 22.3814 32.7237C 21.4557 32.7237 19.9669 28.7917 19.538 28.0892L 19.538 27.9492L 19.538 28.0892C 19.538 28.7912 19.7524 32.8647 19.0407 33.2152C 18.6148 33.5667 17.9748 33.7067 17.3374 33.7067C 16.5544 33.7067 15.9858 33.5667 15.5598 33.2152C 14.8511 32.8647 15.0626 28.7912 15.0626 28.0892L 15.0626 27.9492L 14.9913 28.0892C 14.708 28.7912 13.1449 32.7237 12.1503 32.7237C 11.7957 32.7237 11.2985 32.5842 10.7299 32.3737C 10.0894 32.1632 9.66401 31.7407 9.3094 31.3202C 8.81214 30.7582 10.5872 27.0362 10.873 26.4742L 11.0131 26.2637L 10.7299 26.3342C 10.3039 26.7552 7.74628 29.7747 7.32035 29.7747C 6.67992 29.7747 5.96868 29.4247 5.25946 28.7227C 4.7622 28.2312 4.40506 27.7382 4.33373 27.1777C 4.12228 26.4742 7.17719 23.6663 7.60312 23.2453L 7.8171 23.1748L 7.53129 23.2453C 7.38864 23.3853 4.26443 25.2112 3.97912 25.2112C 3.19908 25.2112 2.27537 24.8598 1.56413 23.3148C 1.28085 22.6128 1.20952 22.0508 1.28085 21.4898C 1.34964 20.7173 5.25946 19.4528 5.96817 19.1013L 6.11133 19.1013L 5.96817 19.1013C 5.25946 19.1013 1.13819 19.3118 0.712255 18.5388C 0.355116 18.1178 0.283789 17.5558 0.283789 16.8538C 0.283789 16.1518 0.355116 15.5203 0.712255 15.0983C 1.13819 14.4669 5.25946 14.6774 5.96817 14.6774L 6.11133 14.6774L 5.96817 14.6069C 5.25946 14.3269 1.34964 12.9924 1.28085 12.1489C 1.20952 11.6574 1.28085 11.0259 1.56413 10.3934C 2.27588 8.84941 3.19908 8.56841 3.97912 8.56841C 4.26493 8.56841 7.38864 10.3934 7.53129 10.5344L 7.8171 10.6039L 7.60312 10.3934C 7.17719 9.9724 4.12177 7.23393 4.33373 6.46094C 4.40506 5.96944 4.7622 5.47795 5.25946 4.91595C 5.96817 4.28446 6.67992 4.00346 7.32035 4.00346C 7.74628 4.00346 10.3039 6.81293 10.7299 7.30443L 11.0131 7.51493L 10.873 7.23393C 10.5872 6.67143 8.81214 3.02047 9.3094 2.31848C 9.66401 1.89748 10.0894 1.61648 10.7299 1.33549C 11.299 1.12499 11.7957 1.05449 12.1503 1.05449C 13.1449 1.05449 14.7085 4.91645 14.9913 5.68894L 15.0626 5.82994L 15.0626 5.68844C 15.0626 4.91595 14.8511 0.843491 15.5598 0.422496C 15.9858 0.141499 16.5544 2.86099e-08 17.3374 2.86099e-08C 17.9748 2.86099e-08 18.6148 0.141499 19.0407 0.422496C 19.7524 0.843491 19.538 4.91545 19.538 5.68844L 19.538 5.82944L 19.538 5.68844C 19.9669 4.91595 21.4557 1.05399 22.3814 1.05399C 22.8073 1.05399 23.3046 1.12499 23.8024 1.33499C 24.5111 1.61598 24.9396 1.89698 25.2942 2.31798C 25.7201 3.01997 23.942 6.67143 23.6597 7.23343L 23.6597 7.51442L 23.7311 7.30393C 24.157 6.81243 26.7865 4.00296 27.2124 4.00296C 27.9924 4.00296 28.6329 4.28396 29.3446 4.91545C 29.8419 5.47795 30.1247 5.96894 30.2678 6.46044C 30.5506 7.23293 27.2842 9.9719 26.8578 10.3929L 26.7865 10.6034L 26.9979 10.5339C 27.1406 10.3929 30.2678 8.56791 30.6938 8.56791C 31.3342 8.56791 32.4 8.84891 32.9656 10.3929C 33.2514 11.0259 33.3946 11.6569 33.2514 12.1484C 33.1796 12.9919 29.3441 14.3264 28.6324 14.6064L 28.4927 14.6769L 28.6324 14.6769C 29.4154 14.6769 33.5342 14.4664 33.8913 15.0978C 34.1741 15.5203 34.3173 16.1518 34.3173 16.8538ZM 28.2778 16.8538C 28.2778 10.8154 23.3764 5.89994 17.3369 5.89994C 11.2261 5.89994 6.18215 10.8154 6.18215 16.8538C 6.18215 22.8228 11.2266 27.7382 17.3369 27.7382C 23.3764 27.7382 28.2778 22.8228 28.2778 16.8538ZM 25.7201 16.8538C 25.7201 12.1489 22.0243 8.42692 17.3374 8.42692C 12.5758 8.42692 8.7403 12.1484 8.7403 16.8538C 8.7403 21.4893 12.5758 25.2112 17.3374 25.2112C 22.0243 25.2112 25.7201 21.4893 25.7201 16.8538Z"/>
</defs>
</svg>
