<svg width="45" height="31" viewBox="0 0 45 31" version="1.1" xmlns="http://www.w3.org/2000/svg" xmlns:xlink="http://www.w3.org/1999/xlink">
<title>Vector</title>
<desc>Created using Figma</desc>
<g id="Canvas" transform="translate(-3264 -8283)">
<g id="Vector">
<use xlink:href="#path0_fill" transform="translate(3264 8283)" fill="#FF5A00"/>
</g>
</g>
<defs>
<path id="path0_fill" d="M 38.9968 1.79175e-07C 35.7311 1.79175e-07 33.0896 2.58333 33.0896 5.77727C 33.0896 7.46818 33.81 8.97121 35.0107 10.0045L 30.4482 15.6409C 30.064 15.547 29.6798 15.547 29.2476 15.547C 28.6233 15.547 27.9989 15.6409 27.4226 15.8288L 21.8036 12.1652C 22.1878 11.4136 22.428 10.5212 22.428 9.62879C 22.428 6.43485 19.7866 3.85151 16.5208 3.85151C 13.2551 3.85151 10.6137 6.43485 10.6137 9.62879C 10.6137 11.1788 11.238 12.5879 12.2465 13.6212L 7.78015 19.7273C 7.20384 19.5394 6.57951 19.4455 5.90715 19.4455C 2.64141 19.4455 2.29004e-08 22.0288 2.29004e-08 25.2227C 2.29004e-08 28.4167 2.64141 31 5.90715 31C 9.17289 31 11.8143 28.4167 11.8143 25.2227C 11.8143 24.0485 11.4301 22.9682 10.8538 22.0288L 15.7524 15.3121C 15.9925 15.3591 16.2807 15.3591 16.5208 15.3591C 17.3853 15.3591 18.2497 15.1712 18.9701 14.8424L 24.301 18.2712C 23.7727 19.1167 23.4365 20.15 23.4365 21.2773C 23.4365 24.4712 26.0779 27.0545 29.3437 27.0545C 32.6094 27.0545 35.2508 24.4712 35.2508 21.2773C 35.2508 19.8682 34.7225 18.6 33.8581 17.5667L 38.7567 11.4606C 38.8527 11.4606 38.9488 11.4606 39.0928 11.4606C 42.3586 11.4606 45 8.87727 45 5.68333C 44.904 2.58333 42.2625 1.79175e-07 38.9968 1.79175e-07ZM 16.5208 7.60909C 17.6734 7.60909 18.5859 8.50151 18.5859 9.62879C 18.5859 10.7561 17.6734 11.6485 16.5208 11.6485C 15.3682 11.6485 14.4557 10.7561 14.4557 9.62879C 14.4557 8.50151 15.3682 7.60909 16.5208 7.60909ZM 5.95518 27.1485C 4.80256 27.1485 3.89007 26.2561 3.89007 25.1288C 3.89007 24.0015 4.80256 23.1091 5.95518 23.1091C 6.33938 23.1091 6.67556 23.203 6.96371 23.3909C 7.05977 23.4848 7.15582 23.5318 7.25187 23.6258C 7.29989 23.6727 7.34792 23.7197 7.44397 23.7197C 7.78015 24.0955 8.02028 24.5652 8.02028 25.1288C 7.97225 26.2561 7.05977 27.1485 5.95518 27.1485ZM 29.2956 23.297C 28.143 23.297 27.2305 22.4045 27.2305 21.2773C 27.2305 20.15 28.143 19.2576 29.2956 19.2576C 30.4482 19.2576 31.3607 20.15 31.3607 21.2773C 31.3607 22.4045 30.4482 23.297 29.2956 23.297ZM 38.9968 7.75C 37.8442 7.75 36.9317 6.85758 36.9317 5.7303C 36.9317 4.60303 37.8442 3.71061 38.9968 3.71061C 40.1494 3.71061 41.0619 4.60303 41.0619 5.7303C 41.0619 6.85758 40.1494 7.75 38.9968 7.75Z"/>
</defs>
</svg>
