<svg width="22" height="16" viewBox="0 0 22 16" version="1.1" xmlns="http://www.w3.org/2000/svg" xmlns:xlink="http://www.w3.org/1999/xlink">
<title>Vector 3</title>
<desc>Created using Figma</desc>
<g id="Canvas" transform="translate(-2902 -5168)">
<g id="Vector 3">
<use xlink:href="#path0_stroke" transform="matrix(1.60812e-16 1 1 -1.60812e-16 2903.5 5169.5)" fill="#FF8B10"/>
</g>
</g>
<defs>
<path id="path0_stroke" d="M 7.60573 -1.01359C 7.04594 -1.62427 6.09709 -1.66552 5.48641 -1.10573C 4.87573 -0.545943 4.83448 0.402908 5.39427 1.01359L 7.60573 -1.01359ZM 12 6L 13.1022 7.01742L 14.0381 6.00354L 13.1057 4.98641L 12 6ZM -1.10221 17.9826C -1.66411 18.5913 -1.62615 19.5403 -1.01742 20.1022C -0.408689 20.6641 0.5403 20.6262 1.10221 20.0174L -1.10221 17.9826ZM 5.39427 1.01359L 10.8943 7.01359L 13.1057 4.98641L 7.60573 -1.01359L 5.39427 1.01359ZM 10.8978 4.98258L -1.10221 17.9826L 1.10221 20.0174L 13.1022 7.01742L 10.8978 4.98258Z"/>
</defs>
</svg>
