<svg width="414" height="249" viewBox="0 0 414 249" version="1.1" xmlns="http://www.w3.org/2000/svg" xmlns:xlink="http://www.w3.org/1999/xlink">
<title>Page 1</title>
<desc>Created using Figma</desc>
<g id="Canvas" transform="translate(-689 587)">
<g id="Rectangle 2" filter="url(#filter0_d)">
<use xlink:href="#path0_fill" transform="translate(689 -451)" fill="#FFFFFF"/>
</g>
<g id="Rectangle 2">
<use xlink:href="#path1_fill" transform="translate(689 -587)" fill="url(#paint1_linear)"/>
</g>
<g id="Rectangle 3">
<use xlink:href="#path2_fill" transform="translate(708 -380)" fill="#FFFFFF"/>
<mask id="mask0_outline_ins">
<use xlink:href="#path2_fill" fill="white" transform="translate(708 -380)"/>
</mask>
<g mask="url(#mask0_outline_ins)">
<use xlink:href="#path3_stroke_2x" transform="translate(708 -380)" fill="#E0E0E0"/>
</g>
</g>
<g id="Ellipse 6">
<use xlink:href="#path4_fill" transform="translate(1046 -375)" fill="url(#paint4_linear)"/>
</g>
</g>
<defs>
<filter id="filter0_d" filterUnits="userSpaceOnUse" x="689" y="-463" width="414" height="86" color-interpolation-filters="sRGB">
<feFlood flood-opacity="0" result="BackgroundImageFix"/>
<feColorMatrix in="SourceAlpha" type="matrix" values="0 0 0 0 0 0 0 0 0 0 0 0 0 0 0 0 0 0 255 0"/>
<feOffset dx="0" dy="6"/>
<feGaussianBlur stdDeviation="9"/>
<feColorMatrix type="matrix" values="0 0 0 0 0 0 0 0 0 0 0 0 0 0 0 0 0 0 0.12 0"/>
<feBlend mode="normal" in2="BackgroundImageFix" result="effect1_dropShadow"/>
<feBlend mode="normal" in="SourceGraphic" in2="effect1_dropShadow" result="shape"/>
</filter>
<linearGradient id="paint1_linear" x1="0" y1="0" x2="1" y2="0" gradientUnits="userSpaceOnUse" gradientTransform="matrix(414 -1.50275 4.57454 711.512 -2.28727 -300.905)">
<stop offset="0" stop-color="#FF5A00"/>
<stop offset="1" stop-color="#FF8B10"/>
</linearGradient>
<linearGradient id="paint4_linear" x1="0" y1="0" x2="1" y2="0" gradientUnits="userSpaceOnUse" gradientTransform="matrix(31 1.32603e-07 3.77006e-07 33.8182 -3.15906e-07 -1.90909)">
<stop offset="0" stop-color="#FF5C00"/>
<stop offset="1" stop-color="#FF8A0F"/>
</linearGradient>
<path id="path0_fill" d="M 0 0L 414 0L 414 50L 0 50L 0 0Z"/>
<path id="path1_fill" d="M 0 0L 414 0L 414 136L 0 136L 0 0Z"/>
<path id="path2_fill" d="M 0 8C 0 3.58172 3.58172 0 8 0L 312 0C 316.418 0 320 3.58172 320 8L 320 34C 320 38.4183 316.418 42 312 42L 8 42C 3.58172 42 0 38.4183 0 34L 0 8Z"/>
<path id="path3_stroke_2x" d="M 8 1L 312 1L 312 -1L 8 -1L 8 1ZM 319 8L 319 34L 321 34L 321 8L 319 8ZM 312 41L 8 41L 8 43L 312 43L 312 41ZM 1 34L 1 8L -1 8L -1 34L 1 34ZM 8 -1C 3.02944 -1 -1 3.02944 -1 8L 1 8C 1 4.13401 4.13401 1 8 1L 8 -1ZM 312 1C 315.866 1 319 4.13401 319 8L 321 8C 321 3.02944 316.971 -1 312 -1L 312 1ZM 319 34C 319 37.866 315.866 41 312 41L 312 43C 316.971 43 321 38.9706 321 34L 319 34ZM 8 41C 4.13401 41 1 37.866 1 34L -1 34C -1 38.9706 3.02944 43 8 43L 8 41Z"/>
<path id="path4_fill" d="M 31 15.5C 31 24.0604 24.0604 31 15.5 31C 6.93959 31 0 24.0604 0 15.5C 0 6.93959 6.93959 0 15.5 0C 24.0604 0 31 6.93959 31 15.5Z"/>
</defs>
</svg>
