<svg width="24" height="37" viewBox="0 0 24 37" version="1.1" xmlns="http://www.w3.org/2000/svg" xmlns:xlink="http://www.w3.org/1999/xlink">
<title>Group</title>
<desc>Created using Figma</desc>
<g id="Canvas" transform="translate(-604 379)">
<g id="Group">
<g id="Ellipse 2">
<use xlink:href="#path0_fill" transform="translate(605 -379)" fill="url(#paint0_linear)"/>
</g>
<g id="MAP">
<use xlink:href="#path1_fill" transform="translate(594 -353)" fill="#828282"/>
</g>
<g id="Ellipse 3">
<use xlink:href="#path2_fill" transform="translate(610 -374)" fill="#FFFFFF"/>
</g>
</g>
</g>
<defs>
<linearGradient id="paint0_linear" x1="0" y1="0" x2="1" y2="0" gradientUnits="userSpaceOnUse" gradientTransform="matrix(19.5 0.5 -0.559524 21.8214 0.279762 0.589285)">
<stop offset="0.00552486" stop-color="#FF5A00"/>
<stop offset="1" stop-color="#FF8A0F"/>
</linearGradient>
<path id="path0_fill" d="M 21 10.5C 21 16.299 10.5 26 10.5 26C 10.5 26 0 16.299 0 10.5C 0 4.70101 4.70101 0 10.5 0C 16.299 0 21 4.70101 21 10.5Z"/>
<path id="path1_fill" d="M 13.5322 11L 11.4619 5.03809L 11.4229 5.03809C 11.4782 5.9235 11.5059 6.75358 11.5059 7.52832L 11.5059 11L 10.4463 11L 10.4463 3.86133L 12.0918 3.86133L 14.0742 9.54004L 14.1035 9.54004L 16.1445 3.86133L 17.7949 3.86133L 17.7949 11L 16.6719 11L 16.6719 7.46973C 16.6719 7.11491 16.68 6.65267 16.6963 6.08301C 16.7158 5.51335 16.7321 5.16829 16.7451 5.04785L 16.7061 5.04785L 14.5625 11L 13.5322 11ZM 25.1035 11L 24.3906 9.01758L 21.6611 9.01758L 20.9629 11L 19.7324 11L 22.4033 3.83203L 23.6729 3.83203L 26.3438 11L 25.1035 11ZM 24.083 8.01172L 23.4141 6.06836C 23.3652 5.93815 23.2969 5.73307 23.209 5.45312C 23.1243 5.17318 23.0658 4.9681 23.0332 4.83789C 22.9453 5.23828 22.8167 5.67611 22.6475 6.15137L 22.0029 8.01172L 24.083 8.01172ZM 33.0127 6.01953C 33.0127 6.76497 32.7686 7.33626 32.2803 7.7334C 31.792 8.13053 31.097 8.3291 30.1953 8.3291L 29.4531 8.3291L 29.4531 11L 28.2861 11L 28.2861 3.86133L 30.3418 3.86133C 31.2337 3.86133 31.901 4.04362 32.3438 4.4082C 32.7897 4.77279 33.0127 5.3099 33.0127 6.01953ZM 29.4531 7.34766L 30.0732 7.34766C 30.6722 7.34766 31.1117 7.24349 31.3916 7.03516C 31.6715 6.82682 31.8115 6.5013 31.8115 6.05859C 31.8115 5.64844 31.6862 5.34245 31.4355 5.14062C 31.1849 4.9388 30.7943 4.83789 30.2637 4.83789L 29.4531 4.83789L 29.4531 7.34766Z"/>
<path id="path2_fill" d="M 11 5.5C 11 8.53757 8.53757 11 5.5 11C 2.46243 11 0 8.53757 0 5.5C 0 2.46243 2.46243 0 5.5 0C 8.53757 0 11 2.46243 11 5.5Z"/>
</defs>
</svg>
