<?xml version="1.0" encoding="UTF-8"?>
<svg width="349px" height="348px" viewBox="0 0 349 348" version="1.1" xmlns="http://www.w3.org/2000/svg" xmlns:xlink="http://www.w3.org/1999/xlink">
    <!-- Generator: Sketch 47.1 (45422) - http://www.bohemiancoding.com/sketch -->
    <title>Untitled 9</title>
    <desc>Created with Sketch.</desc>
    <defs></defs>
    <g id="Page-1" stroke="none" stroke-width="1" fill="none" fill-rule="evenodd">
        <g id="icon_call" fill-rule="nonzero" fill="#BDBDBD">
            <path d="M340.273,275.083 L286.518,221.322 C275.811,210.658 258.08,210.982 247,222.066 L219.918,249.142 C218.207,248.199 216.436,247.214 214.574,246.169 C197.472,236.693 174.065,223.705 149.434,199.056 C124.73,174.355 111.73,150.912 102.225,133.799 C101.222,131.986 100.261,130.238 99.312,128.578 L117.488,110.429 L126.424,101.482 C137.521,90.382 137.827,72.656 127.145,61.961 L73.39,8.194 C62.708,-2.486 44.969,-2.162 33.872,8.938 L18.722,24.175 L19.136,24.586 C14.056,31.068 9.811,38.544 6.652,46.606 C3.74,54.28 1.927,61.603 1.098,68.941 C-6,127.785 20.89,181.564 93.866,254.541 C194.741,355.409 276.033,347.789 279.54,347.417 C287.178,346.504 294.498,344.679 301.937,341.79 C309.929,338.668 317.4,334.429 323.878,329.36 L324.209,329.654 L339.557,314.625 C350.631,303.527 350.95,285.795 340.273,275.083 Z" id="Shape"></path>
        </g>
    </g>
</svg>