<svg width="29" height="32" viewBox="0 0 29 32" version="1.1" xmlns="http://www.w3.org/2000/svg" xmlns:xlink="http://www.w3.org/1999/xlink">
<title>Group</title>
<desc>Created using Figma</desc>
<g id="Canvas" transform="translate(-1601 -3951)">
<g id="Group">
<g id="Vector">
<use xlink:href="#path0_fill" transform="translate(1602 3952)" fill="#3E4B5D"/>
<use xlink:href="#path1_stroke" transform="translate(1602 3952)" fill="#FFFFFF"/>
</g>
<g id="Vector">
<use xlink:href="#path2_fill" transform="translate(1610.38 3973.36)" fill="#3E4B5D"/>
<use xlink:href="#path3_stroke" transform="translate(1610.38 3973.36)" fill="#FFFFFF"/>
</g>
<g id="Vector">
<use xlink:href="#path2_fill" transform="translate(1610.38 3968.82)" fill="#3E4B5D"/>
<use xlink:href="#path3_stroke" transform="translate(1610.38 3968.82)" fill="#FFFFFF"/>
</g>
</g>
</g>
<defs>
<path id="path0_fill" d="M 27 9.54545C 27 5.95455 24.1138 3 20.4828 2.77273L 20.4828 1.36364C 20.4828 0.590909 19.8776 0 19.0862 0C 18.2948 0 17.6897 0.590909 17.6897 1.36364L 17.6897 2.72727L 9.31034 2.72727L 9.31034 1.36364C 9.31034 0.590909 8.70517 0 7.91379 0C 7.12241 0 6.51724 0.590909 6.51724 1.36364L 6.51724 2.77273C 2.88621 3 0 5.95455 0 9.54545L 0 23.1818C 0 26.9545 3.11897 30 6.98276 30L 20.0172 30C 23.881 30 27 26.9545 27 23.1818L 27 9.54545ZM 6.51724 5.5L 6.51724 6.81818C 6.51724 7.59091 7.12241 8.18182 7.91379 8.18182C 8.70517 8.18182 9.31034 7.59091 9.31034 6.81818L 9.31034 5.45455L 17.6897 5.45455L 17.6897 6.81818C 17.6897 7.59091 18.2948 8.18182 19.0862 8.18182C 19.8776 8.18182 20.4828 7.59091 20.4828 6.81818L 20.4828 5.5C 22.5776 5.72727 24.2069 7.45455 24.2069 9.54545L 24.2069 10.9091L 2.7931 10.9091L 2.7931 9.54545C 2.7931 7.45455 4.42241 5.72727 6.51724 5.5ZM 20.0172 27.2727L 6.98276 27.2727C 4.65517 27.2727 2.7931 25.4545 2.7931 23.1818L 2.7931 13.6364L 24.2069 13.6364L 24.2069 23.1818C 24.2069 25.4545 22.3448 27.2727 20.0172 27.2727Z"/>
<path id="path1_stroke" d="M 20.4828 2.77273L 20.2328 2.77273L 20.2328 3.00757L 20.4671 3.02224L 20.4828 2.77273ZM 17.6897 2.72727L 17.6897 2.97727L 17.9397 2.97727L 17.9397 2.72727L 17.6897 2.72727ZM 9.31034 2.72727L 9.06034 2.72727L 9.06034 2.97727L 9.31034 2.97727L 9.31034 2.72727ZM 6.51724 2.77273L 6.53286 3.02224L 6.76724 3.00757L 6.76724 2.77273L 6.51724 2.77273ZM 6.51724 5.5L 6.76724 5.5L 6.76724 5.22141L 6.49028 5.25146L 6.51724 5.5ZM 9.31034 5.45455L 9.31034 5.20455L 9.06034 5.20455L 9.06034 5.45455L 9.31034 5.45455ZM 17.6897 5.45455L 17.9397 5.45455L 17.9397 5.20455L 17.6897 5.20455L 17.6897 5.45455ZM 20.4828 5.5L 20.5097 5.25146L 20.2328 5.22141L 20.2328 5.5L 20.4828 5.5ZM 24.2069 10.9091L 24.2069 11.1591L 24.4569 11.1591L 24.4569 10.9091L 24.2069 10.9091ZM 2.7931 10.9091L 2.5431 10.9091L 2.5431 11.1591L 2.7931 11.1591L 2.7931 10.9091ZM 2.7931 13.6364L 2.7931 13.3864L 2.5431 13.3864L 2.5431 13.6364L 2.7931 13.6364ZM 24.2069 13.6364L 24.4569 13.6364L 24.4569 13.3864L 24.2069 13.3864L 24.2069 13.6364ZM 27.25 9.54545C 27.25 5.81604 24.2546 2.75832 20.4984 2.52322L 20.4671 3.02224C 23.973 3.24168 26.75 6.09306 26.75 9.54545L 27.25 9.54545ZM 20.7328 2.77273L 20.7328 1.36364L 20.2328 1.36364L 20.2328 2.77273L 20.7328 2.77273ZM 20.7328 1.36364C 20.7328 0.44725 20.01 -0.25 19.0862 -0.25L 19.0862 0.25C 19.7452 0.25 20.2328 0.734568 20.2328 1.36364L 20.7328 1.36364ZM 19.0862 -0.25C 18.1624 -0.25 17.4397 0.44725 17.4397 1.36364L 17.9397 1.36364C 17.9397 0.734568 18.4272 0.25 19.0862 0.25L 19.0862 -0.25ZM 17.4397 1.36364L 17.4397 2.72727L 17.9397 2.72727L 17.9397 1.36364L 17.4397 1.36364ZM 17.6897 2.47727L 9.31034 2.47727L 9.31034 2.97727L 17.6897 2.97727L 17.6897 2.47727ZM 9.56034 2.72727L 9.56034 1.36364L 9.06034 1.36364L 9.06034 2.72727L 9.56034 2.72727ZM 9.56034 1.36364C 9.56034 0.44725 8.83759 -0.25 7.91379 -0.25L 7.91379 0.25C 8.57276 0.25 9.06034 0.734568 9.06034 1.36364L 9.56034 1.36364ZM 7.91379 -0.25C 6.99 -0.25 6.26724 0.44725 6.26724 1.36364L 6.76724 1.36364C 6.76724 0.734568 7.25483 0.25 7.91379 0.25L 7.91379 -0.25ZM 6.26724 1.36364L 6.26724 2.77273L 6.76724 2.77273L 6.76724 1.36364L 6.26724 1.36364ZM 6.50162 2.52322C 2.74543 2.75832 -0.25 5.81604 -0.25 9.54545L 0.25 9.54545C 0.25 6.09306 3.02698 3.24168 6.53286 3.02224L 6.50162 2.52322ZM -0.25 9.54545L -0.25 23.1818L 0.25 23.1818L 0.25 9.54545L -0.25 9.54545ZM -0.25 23.1818C -0.25 27.0982 2.98655 30.25 6.98276 30.25L 6.98276 29.75C 3.25138 29.75 0.25 26.8109 0.25 23.1818L -0.25 23.1818ZM 6.98276 30.25L 20.0172 30.25L 20.0172 29.75L 6.98276 29.75L 6.98276 30.25ZM 20.0172 30.25C 24.0135 30.25 27.25 27.0982 27.25 23.1818L 26.75 23.1818C 26.75 26.8109 23.7486 29.75 20.0172 29.75L 20.0172 30.25ZM 27.25 23.1818L 27.25 9.54545L 26.75 9.54545L 26.75 23.1818L 27.25 23.1818ZM 6.26724 5.5L 6.26724 6.81818L 6.76724 6.81818L 6.76724 5.5L 6.26724 5.5ZM 6.26724 6.81818C 6.26724 7.73457 6.99 8.43182 7.91379 8.43182L 7.91379 7.93182C 7.25483 7.93182 6.76724 7.44725 6.76724 6.81818L 6.26724 6.81818ZM 7.91379 8.43182C 8.83759 8.43182 9.56034 7.73457 9.56034 6.81818L 9.06034 6.81818C 9.06034 7.44725 8.57276 7.93182 7.91379 7.93182L 7.91379 8.43182ZM 9.56034 6.81818L 9.56034 5.45455L 9.06034 5.45455L 9.06034 6.81818L 9.56034 6.81818ZM 9.31034 5.70455L 17.6897 5.70455L 17.6897 5.20455L 9.31034 5.20455L 9.31034 5.70455ZM 17.4397 5.45455L 17.4397 6.81818L 17.9397 6.81818L 17.9397 5.45455L 17.4397 5.45455ZM 17.4397 6.81818C 17.4397 7.73457 18.1624 8.43182 19.0862 8.43182L 19.0862 7.93182C 18.4272 7.93182 17.9397 7.44725 17.9397 6.81818L 17.4397 6.81818ZM 19.0862 8.43182C 20.01 8.43182 20.7328 7.73457 20.7328 6.81818L 20.2328 6.81818C 20.2328 7.44725 19.7452 7.93182 19.0862 7.93182L 19.0862 8.43182ZM 20.7328 6.81818L 20.7328 5.5L 20.2328 5.5L 20.2328 6.81818L 20.7328 6.81818ZM 20.4558 5.74854C 22.4311 5.96285 23.9569 7.58944 23.9569 9.54545L 24.4569 9.54545C 24.4569 7.31965 22.7241 5.4917 20.5097 5.25146L 20.4558 5.74854ZM 23.9569 9.54545L 23.9569 10.9091L 24.4569 10.9091L 24.4569 9.54545L 23.9569 9.54545ZM 24.2069 10.6591L 2.7931 10.6591L 2.7931 11.1591L 24.2069 11.1591L 24.2069 10.6591ZM 3.0431 10.9091L 3.0431 9.54545L 2.5431 9.54545L 2.5431 10.9091L 3.0431 10.9091ZM 3.0431 9.54545C 3.0431 7.58944 4.56891 5.96285 6.54421 5.74854L 6.49028 5.25146C 4.27591 5.4917 2.5431 7.31965 2.5431 9.54545L 3.0431 9.54545ZM 20.0172 27.0227L 6.98276 27.0227L 6.98276 27.5227L 20.0172 27.5227L 20.0172 27.0227ZM 6.98276 27.0227C 4.78759 27.0227 3.0431 25.3109 3.0431 23.1818L 2.5431 23.1818C 2.5431 25.5982 4.52276 27.5227 6.98276 27.5227L 6.98276 27.0227ZM 3.0431 23.1818L 3.0431 13.6364L 2.5431 13.6364L 2.5431 23.1818L 3.0431 23.1818ZM 2.7931 13.8864L 24.2069 13.8864L 24.2069 13.3864L 2.7931 13.3864L 2.7931 13.8864ZM 23.9569 13.6364L 23.9569 23.1818L 24.4569 23.1818L 24.4569 13.6364L 23.9569 13.6364ZM 23.9569 23.1818C 23.9569 25.3109 22.2124 27.0227 20.0172 27.0227L 20.0172 27.5227C 22.4772 27.5227 24.4569 25.5982 24.4569 23.1818L 23.9569 23.1818Z"/>
<path id="path2_fill" d="M 8.84483 0L 1.39655 0C 0.605172 0 0 0.590909 0 1.36364C 0 2.13636 0.605172 2.72727 1.39655 2.72727L 8.84483 2.72727C 9.63621 2.72727 10.2414 2.13636 10.2414 1.36364C 10.2414 0.590909 9.63621 0 8.84483 0Z"/>
<path id="path3_stroke" d="M 8.84483 -0.25L 1.39655 -0.25L 1.39655 0.25L 8.84483 0.25L 8.84483 -0.25ZM 1.39655 -0.25C 0.472756 -0.25 -0.25 0.44725 -0.25 1.36364L 0.25 1.36364C 0.25 0.734568 0.737589 0.25 1.39655 0.25L 1.39655 -0.25ZM -0.25 1.36364C -0.25 2.28002 0.472756 2.97727 1.39655 2.97727L 1.39655 2.47727C 0.737589 2.47727 0.25 1.9927 0.25 1.36364L -0.25 1.36364ZM 1.39655 2.97727L 8.84483 2.97727L 8.84483 2.47727L 1.39655 2.47727L 1.39655 2.97727ZM 8.84483 2.97727C 9.76862 2.97727 10.4914 2.28002 10.4914 1.36364L 9.99138 1.36364C 9.99138 1.9927 9.50379 2.47727 8.84483 2.47727L 8.84483 2.97727ZM 10.4914 1.36364C 10.4914 0.44725 9.76862 -0.25 8.84483 -0.25L 8.84483 0.25C 9.50379 0.25 9.99138 0.734568 9.99138 1.36364L 10.4914 1.36364Z"/>
</defs>
</svg>
