<?xml version="1.0" encoding="UTF-8"?>
<svg width="15px" height="15px" viewBox="0 0 15 15" version="1.1" xmlns="http://www.w3.org/2000/svg" xmlns:xlink="http://www.w3.org/1999/xlink">
    <!-- Generator: Sketch 47.1 (45422) - http://www.bohemiancoding.com/sketch -->
    <title>icon_web</title>
    <desc>Created with Sketch.</desc>
    <defs></defs>
    <g id="Page-1" stroke="none" stroke-width="1" fill="none" fill-rule="evenodd">
        <g id="icon_web" fill-rule="nonzero" fill="#BDBDBD">
            <path d="M14.982,7 C14.736,3.256 11.744,0.263 8,0.017 L8,0 L7.5,0 L7,0 L7,0.017 C3.256,0.263 0.263,3.256 0.017,7 L0,7 L0,7.5 L0,8 L0.017,8 C0.263,11.744 3.256,14.736 7,14.982 L7,15 L7.5,15 L8,15 L8,14.982 C11.744,14.736 14.736,11.744 14.982,8 L15,8 L15,7.5 L15,7 L14.982,7 Z M4.695,1.635 C4.212,2.277 3.811,3.082 3.519,4 L2.021,4 C2.673,2.983 3.599,2.16 4.695,1.635 Z M1.498,5 L3.256,5 C3.122,5.632 3.037,6.303 3.01,7 L1.019,7 C1.072,6.296 1.238,5.623 1.498,5 Z M1.019,8 L3.01,8 C3.037,8.697 3.122,9.368 3.256,10 L1.498,10 C1.238,9.377 1.072,8.704 1.019,8 Z M2.021,11 L3.518,11 C3.81,11.918 4.211,12.723 4.695,13.365 C3.599,12.84 2.673,12.018 2.021,11 Z M7,13.936 C5.972,13.661 5.087,12.557 4.55,11 L7,11 L7,13.936 Z M7,10 L4.269,10 C4.128,9.377 4.039,8.704 4.01,8 L7,8 L7,10 Z M7,7 L4.01,7 C4.039,6.296 4.128,5.623 4.269,5 L7,5 L7,7 Z M7,4 L4.55,4 C5.087,2.443 5.972,1.339 7,1.065 L7,4 Z M12.979,4 L11.483,4 C11.19,3.082 10.79,2.277 10.305,1.635 C11.4,2.16 12.327,2.983 12.979,4 Z M8,1.065 C9.027,1.339 9.913,2.443 10.45,4 L8,4 L8,1.065 Z M8,5 L10.73,5 C10.872,5.623 10.959,6.296 10.99,7 L8,7 L8,5 Z M8,8 L10.99,8 C10.961,8.704 10.872,9.377 10.73,10 L8,10 L8,8 Z M8,13.936 L8,11 L10.45,11 C9.913,12.557 9.027,13.661 8,13.936 Z M10.305,13.365 C10.788,12.722 11.19,11.918 11.483,11 L12.979,11 C12.327,12.018 11.4,12.84 10.305,13.365 Z M13.502,10 L11.744,10 C11.878,9.368 11.963,8.697 11.99,8 L13.98,8 C13.928,8.704 13.762,9.377 13.502,10 Z M11.99,7 C11.963,6.303 11.878,5.632 11.744,5 L13.502,5 C13.762,5.623 13.928,6.296 13.981,7 L11.99,7 Z" id="Shape"></path>
        </g>
    </g>
</svg>