<svg width="25" height="20" viewBox="0 0 25 20" version="1.1" xmlns="http://www.w3.org/2000/svg" xmlns:xlink="http://www.w3.org/1999/xlink">
<title>Vector</title>
<desc>Created using Figma</desc>
<g id="Canvas" transform="translate(-6016 -10534)">
<g id="Vector">
<use xlink:href="#path0_fill" transform="translate(6016 10534)" fill="#BDBDBD"/>
</g>
</g>
<defs>
<path id="path0_fill" d="M 4.90069e-08 17.7794C 4.90069e-08 17.7794 3.21172 20 7.06578 20C 10.9198 20 15.2878 19.1925 18.4481 15.6345C 21.6084 12.0765 22.1737 9.45222 22.3535 7.98865C 22.5334 6.52509 22.4306 5.01105 22.4306 5.01105C 22.4306 5.01105 23.3813 4.3045 23.8952 3.74936C 24.409 3.19421 25 2.43719 25 2.43719C 25 2.43719 23.7924 2.8157 23.2785 2.94187C 22.7646 3.06804 22.1223 3.19421 22.1223 3.19421C 22.1223 3.19421 23.0216 2.74 23.5868 1.88205C 24.1521 1.04933 24.2292 0.36801 24.2292 0.36801C 24.2292 0.36801 23.2528 0.923157 22.5591 1.20073C 21.8654 1.50354 21.0946 1.62971 21.0946 1.62971C 21.0946 1.62971 18.0113 -1.3479 14.6711 0.746519C 11.3309 2.86617 12.2816 6.17181 12.2816 6.17181C 12.2816 6.17181 10.2261 6.24751 7.7852 5.41479C 4.41932 4.25403 1.67009 0.998858 1.67009 0.998858C 1.67009 0.998858 0.847893 3.16898 1.02775 4.40544C 1.31038 6.42415 3.46865 7.68585 3.46865 7.68585C 3.46865 7.68585 2.90339 7.81202 2.23535 7.66061C 1.59301 7.50921 0.899281 7.10547 0.899281 7.10547C 0.899281 7.10547 1.31038 9.07371 1.69579 9.67933C 2.852 11.5214 5.01028 12.0008 5.01028 12.0008C 5.01028 12.0008 4.31655 12.2532 3.85406 12.2532C 3.21172 12.2532 2.74923 12.1018 2.74923 12.1018C 2.74923 12.1018 2.95478 13.5654 4.95889 14.8775C 6.01233 15.5841 7.55396 15.6598 7.55396 15.6598C 7.55396 15.6598 6.1665 16.9215 4.47071 17.3252C 2.28674 17.8551 4.90069e-08 17.7794 4.90069e-08 17.7794Z"/>
</defs>
</svg>
