<svg width="19" height="14" viewBox="0 0 19 14" version="1.1" xmlns="http://www.w3.org/2000/svg" xmlns:xlink="http://www.w3.org/1999/xlink">
<title>Vector 3</title>
<desc>Created using Figma</desc>
<g id="Canvas" transform="translate(-2485 -188)">
<g id="Vector 3">
<use xlink:href="#path0_stroke" transform="matrix(-1.37927e-16 1 -1 -1.37927e-16 2503 189)" fill="#FFFFFF"/>
</g>
</g>
<defs>
<path id="path0_stroke" d="M 0.707107 -0.707107C 0.316583 -1.09763 -0.316583 -1.09763 -0.707107 -0.707107C -1.09763 -0.316583 -1.09763 0.316583 -0.707107 0.707107L 0.707107 -0.707107ZM 11.5 11.5L 12.2071 12.2071L 12.9142 11.5L 12.2071 10.7929L 11.5 11.5ZM 5.29289 16.2929C 4.90237 16.6834 4.90237 17.3166 5.29289 17.7071C 5.68342 18.0976 6.31658 18.0976 6.70711 17.7071L 5.29289 16.2929ZM -0.707107 0.707107L 10.7929 12.2071L 12.2071 10.7929L 0.707107 -0.707107L -0.707107 0.707107ZM 10.7929 10.7929L 5.29289 16.2929L 6.70711 17.7071L 12.2071 12.2071L 10.7929 10.7929Z"/>
</defs>
</svg>
