<svg width="34" height="34" viewBox="0 0 34 34" version="1.1" xmlns="http://www.w3.org/2000/svg" xmlns:xlink="http://www.w3.org/1999/xlink">
<title>Vector</title>
<desc>Created using Figma</desc>
<g id="Canvas" transform="translate(-1914 -149)">
<rect x="1914" y="149" width="34" height="34" fill="#F2F2F2"/>
<clipPath id="clip-0" clip-rule="evenodd">
<path d="M 1599 -361L 2013 -361L 2013 375L 1599 375L 1599 -361Z" fill="#FFFFFF"/>
</clipPath>
<g id="04-place" clip-path="url(#clip-0)">
<path d="M 1599 -361L 2013 -361L 2013 375L 1599 375L 1599 -361Z" fill="#FFFFFF"/>
<g id="Group">
<g id="Group">
<g id="Group">
<g id="Rectangle 2" filter="url(#filter0_d)">
<use xlink:href="#path0_fill" transform="translate(1619 60)" fill="#FFFFFF"/>
</g>
</g>
<g id="gift">
<g id="Group">
<g id="Group">
<g id="Vector">
<use xlink:href="#path1_fill" transform="translate(1914 149)" fill="#FF8A23"/>
</g>
</g>
</g>
</g>
<g id="5">
<use xlink:href="#path2_fill" transform="translate(1917 162)" fill="#FFFFFF"/>
</g>
</g>
</g>
</g>
</g>
<defs>
<filter id="filter0_d" filterUnits="userSpaceOnUse" x="1601" y="48" width="410" height="176" color-interpolation-filters="sRGB">
<feFlood flood-opacity="0" result="BackgroundImageFix"/>
<feColorMatrix in="SourceAlpha" type="matrix" values="0 0 0 0 0 0 0 0 0 0 0 0 0 0 0 0 0 0 255 0"/>
<feOffset dx="0" dy="6"/>
<feGaussianBlur stdDeviation="9"/>
<feColorMatrix type="matrix" values="0 0 0 0 0 0 0 0 0 0 0 0 0 0 0 0 0 0 0.12 0"/>
<feBlend mode="normal" in2="BackgroundImageFix" result="effect1_dropShadow"/>
<feBlend mode="normal" in="SourceGraphic" in2="effect1_dropShadow" result="shape"/>
</filter>
<path id="path0_fill" d="M 0 0L 374 0L 374 140L 0 140L 0 0Z"/>
<path id="path1_fill" fill-rule="evenodd" d="M 8.73853 7.08333C 7.10412 5.93666 6.58869 3.71047 7.60593 1.94857C 8.68173 0.0852188 11.0644 -0.553211 12.9277 0.522593C 13.9621 1.11977 15.2102 2.81509 16.7634 5.66534C 18.3166 2.81509 19.5647 1.11977 20.5991 0.522593C 22.4624 -0.553211 24.8451 0.0852188 25.9209 1.94857C 26.9381 3.71047 26.4227 5.93666 24.7883 7.08333L 33.2917 7.08333C 33.6829 7.08333 34 7.40047 34 7.79167L 34 12.75C 34 13.1412 33.6829 13.4583 33.2917 13.4583L 0.708333 13.4583C 0.317132 13.4583 0 13.1412 0 12.75L 0 7.79167C 0 7.40047 0.317132 7.08333 0.708333 7.08333L 8.73853 7.08333ZM 2.125 14.1667L 31.875 14.1667L 31.875 32.5833C 31.875 33.3657 31.2407 34 30.4583 34L 3.54167 34C 2.75926 34 2.125 33.3657 2.125 32.5833L 2.125 14.1667ZM 12.2194 1.74946C 11.0336 1.06486 9.5174 1.47113 8.8328 2.6569C 8.14819 3.84267 8.55447 5.3589 9.74023 6.04351C 10.5063 6.48576 12.512 6.68804 15.6561 6.59635C 14.1635 3.82755 12.9852 2.19157 12.2194 1.74946ZM 23.7866 6.04351C 24.9723 5.3589 25.3786 3.84267 24.694 2.6569C 24.0094 1.47113 22.4932 1.06486 21.3074 1.74946C 20.5417 2.19157 19.3633 3.82755 17.8707 6.59635C 21.0148 6.68804 23.0206 6.48576 23.7866 6.04351Z"/>
<path id="path2_fill" d="M 14.4375 8.45117C 15.0117 8.45117 15.529 8.58561 15.9893 8.85449C 16.4541 9.11882 16.8141 9.49479 17.0693 9.98242C 17.3291 10.4701 17.459 11.0329 17.459 11.6709C 17.459 12.7874 17.1217 13.6442 16.4473 14.2412C 15.7773 14.8382 14.7611 15.1367 13.3984 15.1367C 12.2318 15.1367 11.2793 14.9567 10.541 14.5967L 10.541 12.3818C 10.9375 12.5641 11.3841 12.7145 11.8809 12.833C 12.3822 12.9515 12.8128 13.0107 13.1729 13.0107C 13.6742 13.0107 14.0592 12.9059 14.3281 12.6963C 14.597 12.4821 14.7314 12.1676 14.7314 11.7529C 14.7314 11.3701 14.5947 11.0716 14.3213 10.8574C 14.0479 10.6432 13.6331 10.5361 13.0771 10.5361C 12.6533 10.5361 12.1953 10.6159 11.7031 10.7754L 10.7119 10.2832L 11.0879 5.00586L 16.7891 5.00586L 16.7891 7.25488L 13.3848 7.25488L 13.2617 8.57422C 13.6172 8.50586 13.8701 8.4694 14.0205 8.46484C 14.1709 8.45573 14.3099 8.45117 14.4375 8.45117Z"/>
</defs>
</svg>
