<?xml version="1.0" encoding="UTF-8"?>
<svg width="34px" height="34px" viewBox="0 0 34 34" version="1.1" xmlns="http://www.w3.org/2000/svg" xmlns:xlink="http://www.w3.org/1999/xlink">
    <!-- Generator: Sketch 47.1 (45422) - http://www.bohemiancoding.com/sketch -->
    <title>Untitled 2</title>
    <desc>Created with Sketch.</desc>
    <defs></defs>
    <g id="Page-1" stroke="none" stroke-width="1" fill="none" fill-rule="evenodd">
        <g id="gift" fill-rule="nonzero" fill="#FF8A23">
            <g id="Group">
                <g id="Vector">
                    <g>
                        <g id="path1_fill-link">
                            <path d="M8.73853,7.08333 C7.10412,5.93666 6.58869,3.71047 7.60593,1.94857 C8.68173,0.0852188 11.0644,-0.553211 12.9277,0.522593 C13.9621,1.11977 15.2102,2.81509 16.7634,5.66534 C18.3166,2.81509 19.5647,1.11977 20.5991,0.522593 C22.4624,-0.553211 24.8451,0.0852188 25.9209,1.94857 C26.9381,3.71047 26.4227,5.93666 24.7883,7.08333 L33.2917,7.08333 C33.6829,7.08333 34,7.40047 34,7.79167 L34,12.75 C34,13.1412 33.6829,13.4583 33.2917,13.4583 L0.708333,13.4583 C0.317132,13.4583 0,13.1412 0,12.75 L0,7.79167 C0,7.40047 0.317132,7.08333 0.708333,7.08333 L8.73853,7.08333 Z M2.125,14.1667 L31.875,14.1667 L31.875,32.5833 C31.875,33.3657 31.2407,34 30.4583,34 L3.54167,34 C2.75926,34 2.125,33.3657 2.125,32.5833 L2.125,14.1667 Z M12.2194,1.74946 C11.0336,1.06486 9.5174,1.47113 8.8328,2.6569 C8.14819,3.84267 8.55447,5.3589 9.74023,6.04351 C10.5063,6.48576 12.512,6.68804 15.6561,6.59635 C14.1635,3.82755 12.9852,2.19157 12.2194,1.74946 Z M23.7866,6.04351 C24.9723,5.3589 25.3786,3.84267 24.694,2.6569 C24.0094,1.47113 22.4932,1.06486 21.3074,1.74946 C20.5417,2.19157 19.3633,3.82755 17.8707,6.59635 C21.0148,6.68804 23.0206,6.48576 23.7866,6.04351 Z" id="path1_fill"></path>
                        </g>
                    </g>
                </g>
            </g>
        </g>
    </g>
</svg>