<?xml version="1.0" encoding="UTF-8"?>
<svg width="938px" height="980px" viewBox="0 0 938 980" version="1.1" xmlns="http://www.w3.org/2000/svg" xmlns:xlink="http://www.w3.org/1999/xlink">
    <!-- Generator: Sketch 47.1 (45422) - http://www.bohemiancoding.com/sketch -->
    <title>Untitled</title>
    <desc>Created with Sketch.</desc>
    <defs></defs>
    <g id="Page-1" stroke="none" stroke-width="1" fill="none" fill-rule="evenodd">
        <g id="a69ecce2ba94bdb2ac97bbe929a39bde">
            <g id="Group" transform="translate(469.000000, 490.000000) scale(-1, 1) rotate(-180.000000) translate(-469.000000, -490.000000) translate(0.500000, 0.000000)">
                <path d="M311.82,979.57 C309.3,979.15 304.89,976.21 302.15,973.06 C295.85,966.13 231.13,834.6 231.13,828.72 C231.13,820.32 239.11,810.86 250.46,805.82 C256.55,803.09 287.86,788.59 320,773.25 C384.29,743 389.97,741.31 399.84,751.19 C402.99,754.13 405.93,758.54 406.77,760.86 C408.87,767.37 405.93,778.3 400.68,782.92 C398.16,785.23 377.36,795.95 354.46,806.66 C331.56,817.38 313.7,827.04 314.54,827.88 C317.27,830.4 367.7,845.95 395.43,852.67 C429.47,860.86 463.71,866.75 502.79,870.95 C546.91,875.57 627.8,874.1 669.19,867.59 C685.16,865.28 700.71,863.81 703.44,864.44 C717.73,868.01 723.61,888.81 713.95,900.16 C708.49,906.25 702.19,908.14 668.57,912.77 C615.62,920.33 534.52,920.12 476.12,912.77 C426.95,906.47 341.44,886.72 308.04,873.9 C304.68,872.64 301.74,872.01 301.53,872.22 C301.11,872.64 309.72,891.34 320.65,913.82 C342.5,958.78 343.34,962.56 332.42,972.86 C326.53,978.73 319.38,981.04 311.82,979.57 Z" id="Shape" fill="#FF5A00" fill-rule="nonzero"></path>
                <text id="#FF5A00" font-family="Helvetica" font-size="48" font-weight="normal" fill="#FFFFFF">
                    <tspan x="369.5" y="509">#FF5A00</tspan>
                </text>
                <path d="M67.68,722.4 C10.74,711.27 -16.78,647.4 10.95,591.3 C13.68,585.83 76.5,521.33 188.7,409.14 L362.25,235.39 L322.33,245.9 C209.71,275.31 190.6,279.73 177.57,278.68 C145.63,276.37 114.96,247.58 110.55,215.65 C106.56,188.97 122.32,157.24 146.69,141.9 C166.65,129.71 270.44,87.27 332,66.05 C422.34,35.16 495.88,18.57 556.81,15.63 C584.75,14.37 605.56,10.8 625.3,4.07 C641.48,-1.6 649.67,-1.39 657.24,5.12 C665.43,11.84 667.32,20.25 663.12,30.12 C660.6,36.42 657.66,38.94 647.78,43.14 C627.61,52.18 594.42,58.48 556.6,60.79 C517.31,63.1 488.95,67.72 441.67,79.7 C379.9,95.46 312.67,118.78 237.45,150.08 C168.33,178.87 156.98,185.17 154.25,196.3 C151.31,207.86 158.66,225.29 169.38,232.23 C174.63,235.8 175.89,235.8 192.07,232.44 C201.31,230.55 258.25,216.05 318.34,200.29 C378.43,184.53 430.12,171.08 433.48,170.66 C449.03,167.72 463.32,184.53 457.85,199.24 C456.59,202.18 363.72,296.94 251.32,409.55 C84.7,576.38 46.25,615.88 44.15,622.6 C33.64,655.8 67.47,690.88 100.04,680.59 C106.76,678.49 135.55,650.75 251.1,535.41 L393.97,392.75 L404.26,392.75 C412.45,392.75 415.4,393.8 420.44,398.84 C425.48,403.88 426.53,406.82 426.53,414.81 L426.53,424.89 L394.17,457.67 C365.38,486.87 361.6,491.71 359.92,500.11 C355.93,519.23 364.54,537.72 382.61,548.85 C395.64,556.83 405.3,558.1 417.7,553.47 C425.68,550.53 436.4,541.07 475.06,502.83 C520.86,457.45 522.75,455.77 530.74,455.77 C540.61,455.77 547.13,459.76 551.75,468.8 C557.84,480.78 554.9,485.61 522.12,519.01 C490.4,550.95 485.35,558.72 485.35,573.64 C485.35,595.28 509.72,619.65 531.57,619.65 C545.23,619.65 553.21,613.56 599.85,567.12 C628.84,538.34 648.17,520.69 651.95,519.85 C664.35,516.7 677.58,524.68 679.89,536.87 C681.78,547.16 679.47,551.58 662.66,569.44 C644.59,588.98 640.81,598.01 644.8,613.35 C649.42,631 665.18,645.92 678.84,645.71 C694.39,645.29 708.05,633.31 732.84,598.23 C766.67,550.33 796.29,495.91 811.42,453.68 C815.41,442.75 821.92,424.69 825.92,413.76 C841.7,369.64 891.29,279.5 903.05,273.2 C905.57,271.94 910.82,270.89 915.03,270.89 C921.12,270.89 924.48,272.57 930.16,278.24 C936.67,284.75 937.51,286.64 936.67,293.58 C935.83,298.41 930.58,309.13 922.59,321.11 C896.96,359.98 877.63,400.74 858.51,455.79 C837.71,515.46 798.21,586.89 754.09,645.09 C733.29,672.61 705.98,687.32 675.51,687.74 C654.92,687.74 643.79,683.33 628.45,669.04 C618.58,659.8 605.13,637.73 605.13,630.8 C605.13,628.91 601.14,631.43 595.25,636.68 C561.63,666.51 511,669.04 475.28,642.98 C464.14,634.79 450.91,614.83 447.34,600.75 C445.87,594.87 443.98,590.24 443.14,590.24 C442.51,590.24 437.68,591.71 432.63,593.6 C418.97,598.43 388.72,598.01 373.59,592.55 C349.64,584.15 334.3,569.86 324.22,546.75 L318.55,533.51 L230.1,621.33 C157.19,693.82 139.76,710 130.3,714.62 C110.33,724.08 89.11,726.6 67.68,722.4 Z" id="Shape" fill="#FF5A00" fill-rule="nonzero"></path>
            </g>
        </g>
    </g>
</svg>