<svg width="24" height="23" viewBox="0 0 24 23" version="1.1" xmlns="http://www.w3.org/2000/svg" xmlns:xlink="http://www.w3.org/1999/xlink">
<title>Group</title>
<desc>Created using Figma</desc>
<g id="Canvas" transform="translate(-4686 -7775)">
<g id="Group">
<g id="Rectangle 24">
<mask id="mask0_outline_ins">
<use xlink:href="#path0_fill" fill="white" transform="matrix(0.707107 -0.707107 0.707107 0.707107 4686 7791.96)"/>
</mask>
<g mask="url(#mask0_outline_ins)">
<use xlink:href="#path1_stroke_2x" transform="matrix(0.707107 -0.707107 0.707107 0.707107 4686 7791.96)" fill="#FFFFFF"/>
</g>
</g>
<g id="Line 8">
<use xlink:href="#path2_stroke" transform="matrix(0.707107 0.707107 -0.707107 0.707107 4699 7780.92)" fill="#FFFFFF"/>
</g>
</g>
</g>
<defs>
<path id="path0_fill" d="M 3.6399 0.629798C 4.01788 0.227905 4.54508 0 5.0968 0L 21.9826 0C 23.0872 0 23.9826 0.895431 23.9826 2L 23.9826 7C 23.9826 8.10457 23.0872 9 21.9826 9L 5.0968 9C 4.54508 9 4.01788 8.7721 3.6399 8.3702L 1.28867 5.8702C 0.564528 5.10025 0.564528 3.89975 1.28867 3.1298L 3.6399 0.629798Z"/>
<path id="path1_stroke_2x" d="M 1.28867 5.8702L -0.16823 7.2404L 1.28867 5.8702ZM 3.6399 0.629798L 2.183 -0.740404L 3.6399 0.629798ZM 5.0968 2L 21.9826 2L 21.9826 -2L 5.0968 -2L 5.0968 2ZM 21.9826 2L 21.9826 7L 25.9826 7L 25.9826 2L 21.9826 2ZM 21.9826 7L 5.0968 7L 5.0968 11L 21.9826 11L 21.9826 7ZM 5.0968 7L 2.74556 4.5L -0.16823 7.2404L 2.183 9.7404L 5.0968 7ZM 2.74556 4.5L 5.0968 2L 2.183 -0.740404L -0.16823 1.7596L 2.74556 4.5ZM 5.0968 -2C 3.99337 -2 2.93896 -1.54419 2.183 -0.740404L 5.0968 2L 5.0968 -2ZM 21.9826 2L 25.9826 2C 25.9826 -0.209139 24.1917 -2 21.9826 -2L 21.9826 2ZM 21.9826 7L 21.9826 11C 24.1917 11 25.9826 9.20914 25.9826 7L 21.9826 7ZM 5.0968 7L 2.183 9.7404C 2.93896 10.5442 3.99337 11 5.0968 11L 5.0968 7ZM 2.74556 4.5L -0.16823 1.7596C -1.61651 3.29951 -1.61651 5.70049 -0.16823 7.2404L 2.74556 4.5Z"/>
<path id="path2_stroke" d="M 0 0L 6 0L 6 -2L 0 -2L 0 0Z"/>
</defs>
</svg>
