<?xml version="1.0" encoding="UTF-8"?>
<svg width="712px" height="712px" viewBox="0 0 712 712" version="1.1" xmlns="http://www.w3.org/2000/svg" xmlns:xlink="http://www.w3.org/1999/xlink">
    <!-- Generator: Sketch 47.1 (45422) - http://www.bohemiancoding.com/sketch -->
    <title>Untitled 5</title>
    <desc>Created with Sketch.</desc>
    <defs></defs>
    <g id="Page-1" stroke="none" stroke-width="1" fill="none" fill-rule="evenodd">
        <g id="discount" transform="translate(356.000000, 356.000000) rotate(-45.000000) translate(-356.000000, -356.000000) translate(110.000000, 99.000000)" fill-rule="nonzero" fill="#FFFFFF">
            <path d="M467.958,263.633 C465.898,259.418 465.898,254.584 467.958,250.37 L487.054,211.305 C497.686,189.554 489.262,163.629 467.876,152.282 L429.466,131.902 C425.322,129.704 422.481,125.792 421.67,121.173 L414.158,78.344 C409.975,54.498 387.917,38.474 363.95,41.865 L320.897,47.955 C316.25,48.611 311.655,47.117 308.284,43.856 L277.033,13.624 C259.632,-3.21 232.372,-3.211 214.972,13.624 L183.72,43.859 C180.348,47.121 175.753,48.612 171.107,47.958 L128.054,41.868 C104.079,38.475 82.029,54.501 77.846,78.347 L70.334,121.174 C69.523,125.794 66.682,129.705 62.539,131.904 L24.129,152.284 C2.743,163.63 -5.681,189.557 4.951,211.308 L24.046,250.372 C26.106,254.587 26.106,259.421 24.046,263.635 L4.95,302.699 C-5.682,324.45 2.742,350.375 24.128,361.722 L62.538,382.102 C66.682,384.3 69.523,388.212 70.334,392.831 L77.846,435.66 C81.654,457.368 100.268,472.592 121.661,472.59 C123.768,472.59 125.906,472.442 128.055,472.138 L171.108,466.048 C175.751,465.389 180.349,466.886 183.721,470.147 L214.972,500.379 C223.674,508.797 234.836,513.005 246.002,513.004 C257.165,513.003 268.334,508.795 277.032,500.379 L308.284,470.147 C311.656,466.886 316.252,465.396 320.897,466.048 L363.95,472.138 C387.928,475.53 409.975,459.505 414.158,435.659 L421.671,392.832 C422.482,388.212 425.323,384.301 429.466,382.102 L467.876,361.722 C489.262,350.376 497.686,324.449 487.054,302.698 L467.958,263.633 Z M454.035,335.635 L415.625,356.015 C403.379,362.514 394.98,374.072 392.585,387.728 L385.073,430.556 C383.658,438.624 376.199,444.043 368.086,442.898 L325.033,436.808 C311.303,434.863 297.717,439.282 287.752,448.921 L256.5,479.152 C250.614,484.846 241.391,484.846 235.503,479.152 L204.252,448.92 C195.83,440.773 184.82,436.358 173.326,436.358 C171.22,436.358 169.097,436.506 166.971,436.807 L123.918,442.897 C115.812,444.043 108.347,438.623 106.931,430.555 L99.418,387.726 C97.022,374.07 88.624,362.511 76.377,356.014 L37.967,335.634 C30.731,331.795 27.881,323.024 31.478,315.665 L50.574,276.6 C56.662,264.144 56.662,249.858 50.574,237.402 L31.478,198.337 C27.881,190.978 30.731,182.207 37.967,178.368 L76.377,157.988 C88.623,151.489 97.022,139.931 99.417,126.275 L106.929,83.447 C108.345,75.379 115.803,69.959 123.916,71.105 L166.969,77.195 C180.694,79.138 194.285,74.721 204.25,65.082 L235.502,34.85 C241.388,29.156 250.611,29.156 256.499,34.85 L287.75,65.082 C297.715,74.722 311.304,79.138 325.031,77.195 L368.084,71.105 C376.191,69.958 383.656,75.379 385.071,83.447 L392.583,126.276 C394.979,139.932 403.377,151.491 415.624,157.988 L454.034,178.368 C461.27,182.207 464.12,190.978 460.523,198.337 L441.427,237.401 C435.339,249.856 435.339,264.144 441.427,276.599 L460.523,315.663 C464.121,323.024 461.271,331.796 454.035,335.635 Z" id="Shape"></path>
            <path d="M353.886,149.116 C348.121,143.35 338.771,143.35 333.005,149.116 L138.116,344.006 C132.35,349.772 132.35,359.121 138.116,364.887 C140.999,367.77 144.778,369.212 148.556,369.212 C152.334,369.212 156.114,367.771 158.996,364.887 L353.885,169.998 C359.653,164.231 359.653,154.883 353.886,149.116 Z" id="Shape"></path>
            <path d="M186.941,124.116 C157.089,124.116 132.802,148.403 132.802,178.255 C132.802,208.107 157.089,232.394 186.941,232.394 C216.793,232.394 241.08,208.107 241.08,178.255 C241.08,148.403 216.793,124.116 186.941,124.116 Z M186.941,202.863 C173.372,202.863 162.333,191.824 162.333,178.254 C162.333,164.685 173.372,153.646 186.941,153.646 C200.51,153.646 211.55,164.685 211.55,178.254 C211.549,191.824 200.51,202.863 186.941,202.863 Z" id="Shape"></path>
            <path d="M305.061,281.61 C275.209,281.61 250.922,305.897 250.922,335.749 C250.922,365.601 275.209,389.888 305.061,389.888 C334.913,389.888 359.2,365.601 359.2,335.749 C359.2,305.897 334.913,281.61 305.061,281.61 Z M305.061,360.357 C291.492,360.357 280.452,349.318 280.452,335.749 C280.452,322.18 291.491,311.141 305.061,311.141 C318.63,311.141 329.669,322.18 329.669,335.749 C329.669,349.318 318.63,360.357 305.061,360.357 Z" id="Shape"></path>
        </g>
    </g>
</svg>