<?xml version="1.0" encoding="iso-8859-1"?>
<!-- Generator: Adobe Illustrator 19.0.0, SVG Export Plug-In . SVG Version: 6.00 Build 0)  -->
<svg xmlns="http://www.w3.org/2000/svg" xmlns:xlink="http://www.w3.org/1999/xlink" version="1.1" id="Capa_1" x="0px" y="0px" viewBox="0 0 512 512" style="enable-background:new 0 0 512 512;" xml:space="preserve" width="512px" height="512px">
<g>
	<g>
		<path d="M501.161,70.999h-60.16V10.841C441.001,4.862,436.139,0,430.161,0h-28.82C395.362,0,390.5,4.862,390.5,10.841v60.159    h-60.16c-5.978,0-10.841,4.862-10.841,10.841v28.82c0,5.978,4.862,10.841,10.841,10.841h60.159v60.16    c0,5.977,4.862,10.84,10.841,10.84h28.82c5.978,0,10.841-4.862,10.841-10.84V121.5h60.16c5.977,0,10.84-4.862,10.84-10.841V81.84    C512,75.862,507.137,70.999,501.161,70.999z M436.841,106.499c-5.978,0-10.841,4.862-10.841,10.841v60.159h-20.499V117.34    c0-5.978-4.862-10.841-10.841-10.841h-60.16V86h60.159c5.978,0,10.841-4.862,10.841-10.841V15.001h20.499V75.16    c0,5.978,4.862,10.841,10.841,10.841h60.159v20.499H436.841z" fill="#FFFFFF"/>
	</g>
</g>
<g>
	<g>
		<path d="M288.16,354.999h-42.409V188.339c0-5.978-4.862-10.841-10.841-10.841h-82.07c-5.978,0-10.841,4.862-10.841,10.841v28.82    c0,5.978,4.862,10.841,10.841,10.841h42.41v126.999h-42.41c-5.978,0-10.841,4.862-10.841,10.841v28.82    c0,5.978,4.862,10.841,10.841,10.841H203c4.143,0,7.5-3.357,7.5-7.5s-3.357-7.5-7.5-7.5h-45.999v-20.499h42.41    c5.978,0,10.841-4.862,10.841-10.841V223.84c0-5.978-4.862-10.841-10.841-10.841h-42.41V192.5h73.749v166.659    c0,5.978,4.862,10.841,10.84,10.841H284v20.499h-45.998c-4.143,0-7.5,3.357-7.5,7.5s3.357,7.5,7.5,7.5h50.158    c5.978,0,10.841-4.862,10.841-10.841v-28.82C299.001,359.861,294.138,354.999,288.16,354.999z" fill="#FFFFFF"/>
	</g>
</g>
<g>
	<g>
		<path d="M433.501,299c4.143,0,7.5-3.357,7.5-7.5v-49.91c0-5.977-4.863-10.841-10.841-10.841h-28.82    c-5.978,0-10.841,4.862-10.841,10.841v219.909H50.502V121.5h213.992c5.978,0,10.841-4.862,10.841-10.841V81.84    c0-5.978-4.862-10.841-10.841-10.841H10.841c-5.978,0-10.841,4.862-10.841,10.841v419.319c0,5.978,4.862,10.841,10.841,10.841    h419.319c5.978,0,10.841-4.862,10.841-10.841V326.502c0-4.143-3.357-7.5-7.5-7.5s-7.5,3.357-7.5,7.5v170.496H15.001V86h245.332    v20.499H46.341c-5.978,0-10.841,4.862-10.841,10.841v348.319c0,5.978,4.862,10.841,10.841,10.841H394.66    c5.978,0,10.841-4.862,10.841-10.841V245.75H426v45.75C426,295.643,429.358,299,433.501,299z" fill="#FFFFFF"/>
	</g>
</g>
<g>
</g>
<g>
</g>
<g>
</g>
<g>
</g>
<g>
</g>
<g>
</g>
<g>
</g>
<g>
</g>
<g>
</g>
<g>
</g>
<g>
</g>
<g>
</g>
<g>
</g>
<g>
</g>
<g>
</g>
</svg>
