<svg width="21" height="23" viewBox="0 0 21 23" version="1.1" xmlns="http://www.w3.org/2000/svg" xmlns:xlink="http://www.w3.org/1999/xlink">
<title>Group</title>
<desc>Created using Figma</desc>
<g id="Canvas" transform="translate(-4667 -9004)">
<g id="Group">
<g id="Vector">
<use xlink:href="#path0_fill" transform="translate(4668 9005)" fill="#FFFFFF"/>
<use xlink:href="#path1_stroke" transform="translate(4668 9005)" fill="#3E4B5D"/>
</g>
<g id="Vector">
<use xlink:href="#path2_fill" transform="translate(4673.9 9019.96)" fill="#FFFFFF"/>
<use xlink:href="#path3_stroke" transform="translate(4673.9 9019.96)" fill="#3E4B5D"/>
</g>
<g id="Vector">
<use xlink:href="#path2_fill" transform="translate(4673.9 9016.77)" fill="#FFFFFF"/>
<use xlink:href="#path3_stroke" transform="translate(4673.9 9016.77)" fill="#3E4B5D"/>
</g>
</g>
</g>
<defs>
<path id="path0_fill" d="M 19 6.68182C 19 4.16818 16.969 2.1 14.4138 1.94091L 14.4138 0.954545C 14.4138 0.413636 13.9879 0 13.431 0C 12.8741 0 12.4483 0.413636 12.4483 0.954545L 12.4483 1.90909L 6.55172 1.90909L 6.55172 0.954545C 6.55172 0.413636 6.12586 0 5.56897 0C 5.01207 0 4.58621 0.413636 4.58621 0.954545L 4.58621 1.94091C 2.03103 2.1 0 4.16818 0 6.68182L 0 16.2273C 0 18.8682 2.19483 21 4.91379 21L 14.0862 21C 16.8052 21 19 18.8682 19 16.2273L 19 6.68182ZM 4.58621 3.85L 4.58621 4.77273C 4.58621 5.31364 5.01207 5.72727 5.56897 5.72727C 6.12586 5.72727 6.55172 5.31364 6.55172 4.77273L 6.55172 3.81818L 12.4483 3.81818L 12.4483 4.77273C 12.4483 5.31364 12.8741 5.72727 13.431 5.72727C 13.9879 5.72727 14.4138 5.31364 14.4138 4.77273L 14.4138 3.85C 15.8879 4.00909 17.0345 5.21818 17.0345 6.68182L 17.0345 7.63636L 1.96552 7.63636L 1.96552 6.68182C 1.96552 5.21818 3.11207 4.00909 4.58621 3.85ZM 14.0862 19.0909L 4.91379 19.0909C 3.27586 19.0909 1.96552 17.8182 1.96552 16.2273L 1.96552 9.54545L 17.0345 9.54545L 17.0345 16.2273C 17.0345 17.8182 15.7241 19.0909 14.0862 19.0909Z"/>
<path id="path1_stroke" d="M 14.4138 1.94091L 14.1638 1.94091L 14.1638 2.17583L 14.3983 2.19043L 14.4138 1.94091ZM 12.4483 1.90909L 12.4483 2.15909L 12.6983 2.15909L 12.6983 1.90909L 12.4483 1.90909ZM 6.55172 1.90909L 6.30172 1.90909L 6.30172 2.15909L 6.55172 2.15909L 6.55172 1.90909ZM 4.58621 1.94091L 4.60174 2.19043L 4.83621 2.17583L 4.83621 1.94091L 4.58621 1.94091ZM 4.58621 3.85L 4.83621 3.85L 4.83621 3.57157L 4.55938 3.60144L 4.58621 3.85ZM 6.55172 3.81818L 6.55172 3.56818L 6.30172 3.56818L 6.30172 3.81818L 6.55172 3.81818ZM 12.4483 3.81818L 12.6983 3.81818L 12.6983 3.56818L 12.4483 3.56818L 12.4483 3.81818ZM 14.4138 3.85L 14.4406 3.60144L 14.1638 3.57157L 14.1638 3.85L 14.4138 3.85ZM 17.0345 7.63636L 17.0345 7.88636L 17.2845 7.88636L 17.2845 7.63636L 17.0345 7.63636ZM 1.96552 7.63636L 1.71552 7.63636L 1.71552 7.88636L 1.96552 7.88636L 1.96552 7.63636ZM 1.96552 9.54545L 1.96552 9.29545L 1.71552 9.29545L 1.71552 9.54545L 1.96552 9.54545ZM 17.0345 9.54545L 17.2845 9.54545L 17.2845 9.29545L 17.0345 9.29545L 17.0345 9.54545ZM 19.25 6.68182C 19.25 4.02853 17.1085 1.85821 14.4293 1.69139L 14.3983 2.19043C 16.8294 2.34179 18.75 4.30784 18.75 6.68182L 19.25 6.68182ZM 14.6638 1.94091L 14.6638 0.954545L 14.1638 0.954545L 14.1638 1.94091L 14.6638 1.94091ZM 14.6638 0.954545C 14.6638 0.268751 14.1191 -0.25 13.431 -0.25L 13.431 0.25C 13.8568 0.25 14.1638 0.558522 14.1638 0.954545L 14.6638 0.954545ZM 13.431 -0.25C 12.743 -0.25 12.1983 0.268751 12.1983 0.954545L 12.6983 0.954545C 12.6983 0.558522 13.0053 0.25 13.431 0.25L 13.431 -0.25ZM 12.1983 0.954545L 12.1983 1.90909L 12.6983 1.90909L 12.6983 0.954545L 12.1983 0.954545ZM 12.4483 1.65909L 6.55172 1.65909L 6.55172 2.15909L 12.4483 2.15909L 12.4483 1.65909ZM 6.80172 1.90909L 6.80172 0.954545L 6.30172 0.954545L 6.30172 1.90909L 6.80172 1.90909ZM 6.80172 0.954545C 6.80172 0.268751 6.25702 -0.25 5.56897 -0.25L 5.56897 0.25C 5.99471 0.25 6.30172 0.558522 6.30172 0.954545L 6.80172 0.954545ZM 5.56897 -0.25C 4.88091 -0.25 4.33621 0.268751 4.33621 0.954545L 4.83621 0.954545C 4.83621 0.558522 5.14323 0.25 5.56897 0.25L 5.56897 -0.25ZM 4.33621 0.954545L 4.33621 1.94091L 4.83621 1.94091L 4.83621 0.954545L 4.33621 0.954545ZM 4.57067 1.69139C 1.89145 1.85821 -0.25 4.02853 -0.25 6.68182L 0.25 6.68182C 0.25 4.30784 2.17061 2.34179 4.60174 2.19043L 4.57067 1.69139ZM -0.25 6.68182L -0.25 16.2273L 0.25 16.2273L 0.25 6.68182L -0.25 6.68182ZM -0.25 16.2273C -0.25 19.0131 2.06367 21.25 4.91379 21.25L 4.91379 20.75C 2.32598 20.75 0.25 18.7233 0.25 16.2273L -0.25 16.2273ZM 4.91379 21.25L 14.0862 21.25L 14.0862 20.75L 4.91379 20.75L 4.91379 21.25ZM 14.0862 21.25C 16.9363 21.25 19.25 19.0131 19.25 16.2273L 18.75 16.2273C 18.75 18.7233 16.674 20.75 14.0862 20.75L 14.0862 21.25ZM 19.25 16.2273L 19.25 6.68182L 18.75 6.68182L 18.75 16.2273L 19.25 16.2273ZM 4.33621 3.85L 4.33621 4.77273L 4.83621 4.77273L 4.83621 3.85L 4.33621 3.85ZM 4.33621 4.77273C 4.33621 5.45852 4.88091 5.97727 5.56897 5.97727L 5.56897 5.47727C 5.14323 5.47727 4.83621 5.16875 4.83621 4.77273L 4.33621 4.77273ZM 5.56897 5.97727C 6.25702 5.97727 6.80172 5.45852 6.80172 4.77273L 6.30172 4.77273C 6.30172 5.16875 5.99471 5.47727 5.56897 5.47727L 5.56897 5.97727ZM 6.80172 4.77273L 6.80172 3.81818L 6.30172 3.81818L 6.30172 4.77273L 6.80172 4.77273ZM 6.55172 4.06818L 12.4483 4.06818L 12.4483 3.56818L 6.55172 3.56818L 6.55172 4.06818ZM 12.1983 3.81818L 12.1983 4.77273L 12.6983 4.77273L 12.6983 3.81818L 12.1983 3.81818ZM 12.1983 4.77273C 12.1983 5.45852 12.743 5.97727 13.431 5.97727L 13.431 5.47727C 13.0053 5.47727 12.6983 5.16875 12.6983 4.77273L 12.1983 4.77273ZM 13.431 5.97727C 14.1191 5.97727 14.6638 5.45852 14.6638 4.77273L 14.1638 4.77273C 14.1638 5.16875 13.8568 5.47727 13.431 5.47727L 13.431 5.97727ZM 14.6638 4.77273L 14.6638 3.85L 14.1638 3.85L 14.1638 4.77273L 14.6638 4.77273ZM 14.387 4.09856C 15.7426 4.24486 16.7845 5.35417 16.7845 6.68182L 17.2845 6.68182C 17.2845 5.0822 16.0333 3.77333 14.4406 3.60144L 14.387 4.09856ZM 16.7845 6.68182L 16.7845 7.63636L 17.2845 7.63636L 17.2845 6.68182L 16.7845 6.68182ZM 17.0345 7.38636L 1.96552 7.38636L 1.96552 7.88636L 17.0345 7.88636L 17.0345 7.38636ZM 2.21552 7.63636L 2.21552 6.68182L 1.71552 6.68182L 1.71552 7.63636L 2.21552 7.63636ZM 2.21552 6.68182C 2.21552 5.35417 3.25742 4.24486 4.61303 4.09856L 4.55938 3.60144C 2.96672 3.77333 1.71552 5.0822 1.71552 6.68182L 2.21552 6.68182ZM 14.0862 18.8409L 4.91379 18.8409L 4.91379 19.3409L 14.0862 19.3409L 14.0862 18.8409ZM 4.91379 18.8409C 3.40702 18.8409 2.21552 17.6733 2.21552 16.2273L 1.71552 16.2273C 1.71552 17.9631 3.14471 19.3409 4.91379 19.3409L 4.91379 18.8409ZM 2.21552 16.2273L 2.21552 9.54545L 1.71552 9.54545L 1.71552 16.2273L 2.21552 16.2273ZM 1.96552 9.79545L 17.0345 9.79545L 17.0345 9.29545L 1.96552 9.29545L 1.96552 9.79545ZM 16.7845 9.54545L 16.7845 16.2273L 17.2845 16.2273L 17.2845 9.54545L 16.7845 9.54545ZM 16.7845 16.2273C 16.7845 17.6733 15.593 18.8409 14.0862 18.8409L 14.0862 19.3409C 15.8553 19.3409 17.2845 17.9631 17.2845 16.2273L 16.7845 16.2273Z"/>
<path id="path2_fill" d="M 6.22414 0L 0.982759 0C 0.425862 0 0 0.413636 0 0.954545C 0 1.49545 0.425862 1.90909 0.982759 1.90909L 6.22414 1.90909C 6.78103 1.90909 7.2069 1.49545 7.2069 0.954545C 7.2069 0.413636 6.78103 0 6.22414 0Z"/>
<path id="path3_stroke" d="M 6.22414 -0.25L 0.982759 -0.25L 0.982759 0.25L 6.22414 0.25L 6.22414 -0.25ZM 0.982759 -0.25C 0.294705 -0.25 -0.25 0.268751 -0.25 0.954545L 0.25 0.954545C 0.25 0.558522 0.557019 0.25 0.982759 0.25L 0.982759 -0.25ZM -0.25 0.954545C -0.25 1.64034 0.294705 2.15909 0.982759 2.15909L 0.982759 1.65909C 0.557019 1.65909 0.25 1.35057 0.25 0.954545L -0.25 0.954545ZM 0.982759 2.15909L 6.22414 2.15909L 6.22414 1.65909L 0.982759 1.65909L 0.982759 2.15909ZM 6.22414 2.15909C 6.91219 2.15909 7.4569 1.64034 7.4569 0.954545L 6.9569 0.954545C 6.9569 1.35057 6.64988 1.65909 6.22414 1.65909L 6.22414 2.15909ZM 7.4569 0.954545C 7.4569 0.268751 6.91219 -0.25 6.22414 -0.25L 6.22414 0.25C 6.64988 0.25 6.9569 0.558522 6.9569 0.954545L 7.4569 0.954545Z"/>
</defs>
</svg>
