<svg width="72" height="72" viewBox="0 0 72 72" version="1.1" xmlns="http://www.w3.org/2000/svg" xmlns:xlink="http://www.w3.org/1999/xlink">
<title>Ellipse 4</title>
<desc>Created using Figma</desc>
<g id="Canvas" transform="translate(-717 -8020)">
<g id="Ellipse 4">
<use xlink:href="#path0_fill" transform="translate(717 8020)" fill="#FFFFFF"/>
<mask id="mask0_outline_ins">
<use xlink:href="#path0_fill" fill="white" transform="translate(717 8020)"/>
</mask>
<g mask="url(#mask0_outline_ins)">
<use xlink:href="#path1_stroke_2x" transform="translate(717 8020)" fill="#828282"/>
</g>
</g>
</g>
<defs>
<path id="path0_fill" d="M 72 36C 72 55.8823 55.8823 72 36 72C 16.1177 72 0 55.8823 0 36C 0 16.1177 16.1177 0 36 0C 55.8823 0 72 16.1177 72 36Z"/>
<path id="path1_stroke_2x" d="M 72.5 36C 72.5 35.6453 72.4949 35.2882 72.4848 34.9359L 71.4852 34.9646C 71.4951 35.3097 71.5 35.6525 71.5 36L 72.5 36ZM 72.1192 30.7084C 72.0173 30.0072 71.8941 29.3052 71.7529 28.6176L 70.7734 28.8188C 70.9118 29.4922 71.0299 30.1654 71.1295 30.8521L 72.1192 30.7084ZM 70.6563 24.515C 70.4337 23.8433 70.1897 23.1734 69.9298 22.5196L 69.0005 22.8891C 69.2552 23.5293 69.4892 24.1717 69.707 24.8295L 70.6563 24.515ZM 68.1335 18.6739C 67.7975 18.0522 67.4404 17.435 67.07 16.8357L 66.2194 17.3615C 66.5822 17.9484 66.9248 18.5403 67.2537 19.1492L 68.1335 18.6739ZM 64.6323 13.3605C 64.1941 12.8072 63.7356 12.2613 63.2667 11.7347L 62.5199 12.3998C 62.9793 12.9155 63.4192 13.4392 63.8483 13.9812L 64.6323 13.3605ZM 60.2653 8.7333C 59.7387 8.2644 59.1928 7.80588 58.6395 7.36772L 58.0188 8.15173C 58.5608 8.58081 59.0845 9.02072 59.6002 9.48009L 60.2653 8.7333ZM 55.1643 4.92998C 54.565 4.55962 53.9478 4.20247 53.3261 3.86649L 52.8508 4.74628C 53.4597 5.07521 54.0516 5.41778 54.6385 5.78061L 55.1643 4.92998ZM 49.4804 2.07022C 48.8266 1.81032 48.1567 1.56627 47.485 1.34371L 47.1705 2.29299C 47.8283 2.51081 48.4707 2.74484 49.1109 2.99945L 49.4804 2.07022ZM 43.3824 0.247064C 42.6948 0.105859 41.9928 -0.0172533 41.2916 -0.119158L 41.1478 0.870458C 41.8346 0.970144 42.5078 1.08822 43.1812 1.22661L 43.3824 0.247064ZM 37.0641 -0.484783C 36.7118 -0.494858 36.3547 -0.499987 36 -0.5L 36 0.5C 36.3475 0.499987 36.6903 0.504911 37.0354 0.514807L 37.0641 -0.484783ZM 36 -0.5C 35.6453 -0.499987 35.2882 -0.494858 34.9359 -0.484783L 34.9646 0.514807C 35.3097 0.504911 35.6525 0.499987 36 0.5L 36 -0.5ZM 30.7084 -0.119158C 30.0072 -0.0172531 29.3052 0.105859 28.6176 0.247064L 28.8188 1.22661C 29.4922 1.08822 30.1654 0.970144 30.8521 0.870458L 30.7084 -0.119158ZM 24.515 1.34371C 23.8433 1.56627 23.1734 1.81032 22.5196 2.07022L 22.8891 2.99945C 23.5293 2.74484 24.1717 2.51081 24.8295 2.29299L 24.515 1.34371ZM 18.6739 3.86649C 18.0522 4.20247 17.435 4.55962 16.8357 4.92998L 17.3615 5.78061C 17.9484 5.41778 18.5403 5.07522 19.1492 4.74628L 18.6739 3.86649ZM 13.3605 7.36772C 12.8072 7.80588 12.2613 8.2644 11.7347 8.7333L 12.3998 9.48009C 12.9155 9.02072 13.4392 8.58081 13.9812 8.15173L 13.3605 7.36772ZM 8.7333 11.7347C 8.2644 12.2613 7.80588 12.8072 7.36772 13.3605L 8.15173 13.9812C 8.58081 13.4392 9.02072 12.9155 9.48009 12.3998L 8.7333 11.7347ZM 4.92998 16.8357C 4.55962 17.435 4.20247 18.0522 3.86649 18.6739L 4.74628 19.1492C 5.07521 18.5403 5.41778 17.9484 5.78061 17.3615L 4.92998 16.8357ZM 2.07022 22.5196C 1.81032 23.1734 1.56627 23.8433 1.34371 24.515L 2.29299 24.8295C 2.51081 24.1717 2.74484 23.5293 2.99945 22.8891L 2.07022 22.5196ZM 0.247064 28.6176C 0.105859 29.3052 -0.0172533 30.0072 -0.119158 30.7084L 0.870458 30.8522C 0.970144 30.1654 1.08822 29.4922 1.22661 28.8188L 0.247064 28.6176ZM -0.484783 34.9359C -0.494858 35.2882 -0.499987 35.6453 -0.5 36L 0.5 36C 0.499987 35.6525 0.504911 35.3097 0.514807 34.9646L -0.484783 34.9359ZM -0.5 36C -0.499987 36.3547 -0.494858 36.7118 -0.484783 37.0641L 0.514807 37.0354C 0.504911 36.6903 0.499987 36.3475 0.5 36L -0.5 36ZM -0.119158 41.2916C -0.0172531 41.9928 0.105859 42.6948 0.247064 43.3824L 1.22661 43.1812C 1.08822 42.5078 0.970144 41.8346 0.870458 41.1479L -0.119158 41.2916ZM 1.34371 47.485C 1.56627 48.1567 1.81032 48.8266 2.07022 49.4804L 2.99945 49.1109C 2.74484 48.4707 2.51081 47.8283 2.29299 47.1705L 1.34371 47.485ZM 3.86649 53.3261C 4.20247 53.9478 4.55962 54.565 4.92998 55.1643L 5.78061 54.6385C 5.41778 54.0516 5.07522 53.4597 4.74628 52.8508L 3.86649 53.3261ZM 7.36772 58.6395C 7.80588 59.1928 8.2644 59.7387 8.7333 60.2653L 9.48009 59.6002C 9.02072 59.0845 8.58081 58.5608 8.15173 58.0188L 7.36772 58.6395ZM 11.7347 63.2667C 12.2613 63.7356 12.8072 64.1941 13.3605 64.6323L 13.9812 63.8483C 13.4392 63.4192 12.9155 62.9793 12.3998 62.5199L 11.7347 63.2667ZM 16.8357 67.07C 17.435 67.4404 18.0522 67.7975 18.6739 68.1335L 19.1492 67.2537C 18.5403 66.9248 17.9484 66.5822 17.3615 66.2194L 16.8357 67.07ZM 22.5196 69.9298C 23.1734 70.1897 23.8433 70.4337 24.515 70.6563L 24.8295 69.707C 24.1717 69.4892 23.5293 69.2552 22.8891 69.0005L 22.5196 69.9298ZM 28.6176 71.7529C 29.3052 71.8941 30.0072 72.0173 30.7084 72.1192L 30.8522 71.1295C 30.1654 71.0299 29.4922 70.9118 28.8188 70.7734L 28.6176 71.7529ZM 34.9359 72.4848C 35.2882 72.4949 35.6453 72.5 36 72.5L 36 71.5C 35.6525 71.5 35.3097 71.4951 34.9646 71.4852L 34.9359 72.4848ZM 36 72.5C 36.3547 72.5 36.7118 72.4949 37.0641 72.4848L 37.0354 71.4852C 36.6903 71.4951 36.3475 71.5 36 71.5L 36 72.5ZM 41.2916 72.1192C 41.9928 72.0173 42.6948 71.8941 43.3824 71.7529L 43.1812 70.7734C 42.5078 70.9118 41.8346 71.0299 41.1479 71.1295L 41.2916 72.1192ZM 47.485 70.6563C 48.1567 70.4337 48.8266 70.1897 49.4804 69.9298L 49.1109 69.0005C 48.4707 69.2552 47.8283 69.4892 47.1705 69.707L 47.485 70.6563ZM 53.3261 68.1335C 53.9478 67.7975 54.565 67.4404 55.1643 67.07L 54.6385 66.2194C 54.0516 66.5822 53.4597 66.9248 52.8508 67.2537L 53.3261 68.1335ZM 58.6395 64.6323C 59.1928 64.1941 59.7387 63.7356 60.2653 63.2667L 59.6002 62.5199C 59.0845 62.9793 58.5608 63.4192 58.0188 63.8483L 58.6395 64.6323ZM 63.2667 60.2653C 63.7356 59.7387 64.1941 59.1928 64.6323 58.6395L 63.8483 58.0188C 63.4192 58.5608 62.9793 59.0845 62.5199 59.6002L 63.2667 60.2653ZM 67.07 55.1643C 67.4404 54.565 67.7975 53.9478 68.1335 53.3261L 67.2537 52.8508C 66.9248 53.4597 66.5822 54.0516 66.2194 54.6385L 67.07 55.1643ZM 69.9298 49.4804C 70.1897 48.8266 70.4337 48.1567 70.6563 47.485L 69.707 47.1705C 69.4892 47.8283 69.2552 48.4707 69.0005 49.1109L 69.9298 49.4804ZM 71.7529 43.3824C 71.8941 42.6948 72.0173 41.9928 72.1192 41.2916L 71.1295 41.1478C 71.0299 41.8346 70.9118 42.5078 70.7734 43.1812L 71.7529 43.3824ZM 72.4848 37.0641C 72.4949 36.7118 72.5 36.3547 72.5 36L 71.5 36C 71.5 36.3475 71.4951 36.6903 71.4852 37.0354L 72.4848 37.0641ZM 73 36C 73 35.6417 72.9947 35.2774 72.9846 34.9216L 70.9854 34.9789C 70.9952 35.3204 71 35.6561 71 36L 73 36ZM 72.614 30.6365C 72.5109 29.928 72.3853 29.2117 72.2427 28.517L 70.2836 28.9194C 70.4206 29.5857 70.5362 30.2446 70.6347 30.924L 72.614 30.6365ZM 71.1309 24.3578C 70.906 23.6791 70.6569 22.9954 70.3944 22.3349L 68.5359 23.0739C 68.7879 23.7072 69.0169 24.3359 69.2324 24.9867L 71.1309 24.3578ZM 68.5734 18.4362C 68.2339 17.8081 67.8695 17.1783 67.4953 16.5728L 65.7941 17.6244C 66.1531 18.2051 66.4884 18.7844 66.8138 19.3869L 68.5734 18.4362ZM 65.0243 13.0501C 64.5816 12.4911 64.1138 11.9342 63.6401 11.4022L 62.1465 12.7323C 62.6011 13.2426 63.0317 13.7552 63.4563 14.2916L 65.0243 13.0501ZM 60.5978 8.3599C 60.0658 7.88623 59.5089 7.41841 58.9499 6.97571L 57.7084 8.54373C 58.2448 8.96828 58.7574 9.39888 59.2677 9.85348L 60.5978 8.3599ZM 55.4272 4.50467C 54.8217 4.13054 54.1919 3.7661 53.5638 3.42659L 52.6131 5.18617C 53.2156 5.51159 53.7949 5.84686 54.3756 6.20592L 55.4272 4.50467ZM 49.6651 1.6056C 49.0046 1.34307 48.3209 1.094 47.6422 0.869072L 47.0133 2.76764C 47.6641 2.98308 48.2928 3.21209 48.9261 3.46407L 49.6651 1.6056ZM 43.483 -0.242709C 42.7883 -0.38532 42.072 -0.510952 41.3634 -0.613967L 41.076 1.36527C 41.7554 1.46384 42.4143 1.5794 43.0806 1.71638L 43.483 -0.242709ZM 37.0784 -0.984578C 36.7226 -0.994742 36.3583 -0.999974 36 -1L 36 1C 36.3439 0.999974 36.6796 1.0048 37.0211 1.0146L 37.0784 -0.984578ZM 36 -1C 35.6417 -0.999974 35.2774 -0.994742 34.9216 -0.984578L 34.9789 1.0146C 35.3204 1.0048 35.6561 0.999974 36 1L 36 -1ZM 30.6365 -0.613966C 29.928 -0.510952 29.2117 -0.38532 28.517 -0.242709L 28.9194 1.71638C 29.5857 1.5794 30.2446 1.46384 30.924 1.36527L 30.6365 -0.613966ZM 24.3578 0.869072C 23.6791 1.094 22.9954 1.34307 22.3349 1.6056L 23.0739 3.46407C 23.7072 3.21209 24.3359 2.98308 24.9867 2.76764L 24.3578 0.869072ZM 18.4362 3.42659C 17.8081 3.7661 17.1783 4.13054 16.5728 4.50467L 17.6244 6.20592C 18.2051 5.84686 18.7844 5.51159 19.3869 5.18617L 18.4362 3.42659ZM 13.0501 6.97571C 12.4911 7.41841 11.9342 7.88624 11.4022 8.3599L 12.7323 9.85349C 13.2426 9.39888 13.7552 8.96828 14.2916 8.54373L 13.0501 6.97571ZM 8.3599 11.4022C 7.88623 11.9342 7.41841 12.4911 6.97571 13.0501L 8.54373 14.2916C 8.96828 13.7552 9.39888 13.2426 9.85348 12.7323L 8.3599 11.4022ZM 4.50467 16.5728C 4.13054 17.1783 3.7661 17.8081 3.42659 18.4362L 5.18617 19.3869C 5.51159 18.7844 5.84686 18.2051 6.20592 17.6244L 4.50467 16.5728ZM 1.6056 22.3349C 1.34307 22.9954 1.094 23.6791 0.869072 24.3578L 2.76764 24.9867C 2.98308 24.3359 3.21209 23.7072 3.46407 23.0739L 1.6056 22.3349ZM -0.242709 28.517C -0.38532 29.2117 -0.510952 29.928 -0.613967 30.6366L 1.36527 30.924C 1.46384 30.2446 1.5794 29.5857 1.71638 28.9194L -0.242709 28.517ZM -0.984578 34.9216C -0.994742 35.2774 -0.999974 35.6417 -1 36L 1 36C 0.999974 35.6561 1.0048 35.3204 1.0146 34.9789L -0.984578 34.9216ZM -1 36C -0.999974 36.3583 -0.994742 36.7226 -0.984578 37.0784L 1.0146 37.0211C 1.0048 36.6796 0.999974 36.3439 1 36L -1 36ZM -0.613966 41.3635C -0.510952 42.072 -0.38532 42.7883 -0.242709 43.483L 1.71638 43.0806C 1.5794 42.4143 1.46384 41.7554 1.36527 41.076L -0.613966 41.3635ZM 0.869072 47.6422C 1.094 48.3209 1.34307 49.0046 1.6056 49.6651L 3.46407 48.9261C 3.21209 48.2928 2.98308 47.6641 2.76764 47.0133L 0.869072 47.6422ZM 3.42659 53.5638C 3.7661 54.1919 4.13054 54.8217 4.50467 55.4272L 6.20592 54.3756C 5.84686 53.7949 5.51159 53.2156 5.18617 52.6131L 3.42659 53.5638ZM 6.97571 58.9499C 7.41841 59.5089 7.88624 60.0658 8.3599 60.5978L 9.85349 59.2677C 9.39888 58.7574 8.96828 58.2448 8.54373 57.7084L 6.97571 58.9499ZM 11.4022 63.6401C 11.9342 64.1138 12.4911 64.5816 13.0501 65.0243L 14.2916 63.4563C 13.7552 63.0317 13.2426 62.6011 12.7323 62.1465L 11.4022 63.6401ZM 16.5728 67.4953C 17.1783 67.8695 17.8081 68.2339 18.4362 68.5734L 19.3869 66.8138C 18.7844 66.4884 18.2051 66.1531 17.6244 65.7941L 16.5728 67.4953ZM 22.3349 70.3944C 22.9954 70.6569 23.6791 70.906 24.3578 71.1309L 24.9867 69.2324C 24.3359 69.0169 23.7072 68.7879 23.0739 68.5359L 22.3349 70.3944ZM 28.517 72.2427C 29.2117 72.3853 29.928 72.5109 30.6366 72.614L 30.924 70.6347C 30.2446 70.5362 29.5857 70.4206 28.9194 70.2836L 28.517 72.2427ZM 34.9216 72.9846C 35.2774 72.9947 35.6417 73 36 73L 36 71C 35.6561 71 35.3204 70.9952 34.9789 70.9854L 34.9216 72.9846ZM 36 73C 36.3583 73 36.7226 72.9947 37.0784 72.9846L 37.0211 70.9854C 36.6796 70.9952 36.3439 71 36 71L 36 73ZM 41.3635 72.614C 42.072 72.5109 42.7883 72.3853 43.483 72.2427L 43.0806 70.2836C 42.4143 70.4206 41.7554 70.5362 41.076 70.6347L 41.3635 72.614ZM 47.6422 71.1309C 48.3209 70.906 49.0046 70.6569 49.6651 70.3944L 48.9261 68.5359C 48.2928 68.7879 47.6641 69.0169 47.0133 69.2324L 47.6422 71.1309ZM 53.5638 68.5734C 54.1919 68.2339 54.8217 67.8695 55.4272 67.4953L 54.3756 65.7941C 53.7949 66.1531 53.2156 66.4884 52.6131 66.8138L 53.5638 68.5734ZM 58.9499 65.0243C 59.5089 64.5816 60.0658 64.1138 60.5978 63.6401L 59.2677 62.1465C 58.7574 62.6011 58.2448 63.0317 57.7084 63.4563L 58.9499 65.0243ZM 63.6401 60.5978C 64.1138 60.0658 64.5816 59.5089 65.0243 58.9499L 63.4563 57.7084C 63.0317 58.2448 62.6011 58.7574 62.1465 59.2677L 63.6401 60.5978ZM 67.4953 55.4272C 67.8695 54.8217 68.2339 54.1919 68.5734 53.5638L 66.8138 52.6131C 66.4884 53.2156 66.1531 53.7949 65.7941 54.3756L 67.4953 55.4272ZM 70.3944 49.6651C 70.6569 49.0046 70.906 48.3209 71.1309 47.6422L 69.2324 47.0133C 69.0169 47.6641 68.7879 48.2928 68.5359 48.9261L 70.3944 49.6651ZM 72.2427 43.483C 72.3853 42.7883 72.5109 42.072 72.614 41.3634L 70.6347 41.076C 70.5362 41.7554 70.4206 42.4143 70.2836 43.0806L 72.2427 43.483ZM 72.9846 37.0784C 72.9947 36.7226 73 36.3583 73 36L 71 36C 71 36.3439 70.9952 36.6796 70.9854 37.0211L 72.9846 37.0784Z"/>
</defs>
</svg>
