<svg width="40" height="39" viewBox="0 0 40 39" version="1.1" xmlns="http://www.w3.org/2000/svg" xmlns:xlink="http://www.w3.org/1999/xlink">
<title>Vector</title>
<desc>Created using Figma</desc>
<g id="Canvas" transform="translate(1525 -5932)">
<rect x="-1525" y="5932" width="40" height="39" fill="#F2F2F2"/>
<clipPath id="clip-0" clip-rule="evenodd">
<path d="M -1549 5829L -1135 5829L -1135 6621L -1549 6621L -1549 5829Z" fill="#FFFFFF"/>
</clipPath>
<g id="01-bookmarks" clip-path="url(#clip-0)">
<path d="M -1549 5829L -1135 5829L -1135 6621L -1549 6621L -1549 5829Z" fill="#FFFFFF"/>
<g id="_star">
<g id="Group">
<g id="Group">
<g id="Vector">
<use xlink:href="#path0_fill" transform="translate(-1524 5933)" fill="#FF5A00"/>
<use xlink:href="#path1_stroke" transform="translate(-1524 5933)" fill="#FF5A00"/>
</g>
</g>
</g>
</g>
</g>
</g>
<defs>
<path id="path0_fill" d="M 6.8679 35.9233C 7.18073 34.0653 7.49356 32.1303 7.81718 30.2063C 8.13001 28.3263 8.44283 26.4573 8.78803 24.5883C 8.8959 23.9726 8.77724 23.5438 8.32418 23.0931C 5.70288 20.5424 3.10316 17.9808 0.535803 15.3752C 0.233761 15.0673 -0.0790683 14.4516 0.0180167 14.1218C 0.115102 13.792 0.719186 13.4732 1.15067 13.4072C 4.78597 12.8245 8.42126 12.2858 12.0566 11.7581C 12.6067 11.6811 12.9087 11.4172 13.1461 10.9115C 14.7102 7.62424 16.2959 4.34797 17.8817 1.0607C 18.119 0.565959 18.3024 -0.148664 18.9927 0.0272432C 19.4027 0.137185 19.8341 0.609936 20.0391 1.02772C 21.6572 4.29299 23.2429 7.56927 24.7855 10.8675C 25.0659 11.4612 25.4435 11.6811 26.0368 11.7581C 29.6505 12.2858 33.2534 12.8135 36.8564 13.3962C 37.2771 13.4622 37.8596 13.803 37.9782 14.1548C 38.0861 14.4846 37.7733 15.0893 37.4712 15.3971C 34.9147 17.9698 32.3365 20.5204 29.7368 23.0491C 29.2945 23.4779 29.1327 23.8627 29.2514 24.5113C 29.8986 28.1724 30.5135 31.8335 31.0744 35.5055C 31.1391 35.9343 31.0205 36.6269 30.74 36.8248C 30.4488 37.0227 29.7907 36.9018 29.4024 36.7039C 26.1231 35.0108 22.8653 33.2737 19.6184 31.5256C 19.1545 31.2728 18.7986 31.2728 18.3347 31.5256C 15.0878 33.2847 11.83 35.0218 8.57228 36.7589C 7.61222 37.2756 6.87869 36.9458 6.8679 35.9233ZM 8.93905 34.4611C 9.32739 34.2632 9.58628 34.1313 9.84517 33.9993C 12.488 32.5921 15.1417 31.2398 17.7522 29.7666C 18.6475 29.2608 19.3164 29.3268 20.1685 29.7995C 22.779 31.2508 25.4327 32.6251 28.0756 34.0323C 28.3129 34.1642 28.561 34.2742 28.9062 34.4391C 28.8738 34.1533 28.863 34.0323 28.8415 33.9224C 28.3345 30.811 27.8598 27.6997 27.2989 24.5993C 27.1047 23.5548 27.3097 22.8182 28.0971 22.0816C 30.3301 19.9817 32.4875 17.8049 34.6774 15.65C 34.8499 15.4741 35.0118 15.2872 35.2275 15.0343C 34.9255 14.9684 34.7205 14.9134 34.5263 14.8804C 31.4628 14.4406 28.3992 13.9679 25.3356 13.5831C 24.4187 13.4622 23.847 13.1323 23.4263 12.2198C 22.1642 9.43828 20.7834 6.72271 19.4566 3.97416C 19.3271 3.7103 19.1761 3.44644 18.9712 3.07264C 17.407 6.28295 15.9184 9.30635 14.4729 12.3517C 14.1277 13.0774 13.6638 13.4402 12.8872 13.5391C 10.6326 13.825 8.37811 14.1548 6.12358 14.4846C 5.02329 14.6385 3.93378 14.8254 2.63931 15.0233C 3.01686 15.3861 3.2434 15.573 3.44835 15.7819C 5.68131 18.0028 7.93584 20.2126 10.1364 22.4774C 10.4493 22.8072 10.7189 23.4119 10.665 23.8517C 10.4277 25.7427 10.0609 27.6117 9.75888 29.4807C 9.46762 31.1079 9.21951 32.713 8.93905 34.4611Z"/>
<path id="path1_stroke" d="M 6.8679 35.9233L 6.37484 35.8403L 6.36746 35.8841L 6.36793 35.9286L 6.8679 35.9233ZM 7.81718 30.2063L 8.31025 30.2893L 8.3104 30.2884L 7.81718 30.2063ZM 8.78803 24.5883L 9.27973 24.6791L 9.28052 24.6746L 8.78803 24.5883ZM 8.32418 23.0931L 8.67685 22.7386L 8.67287 22.7347L 8.32418 23.0931ZM 0.535803 15.3752L 0.178905 15.7253L 0.179644 15.7261L 0.535803 15.3752ZM 1.15067 13.4072L 1.22624 13.9015L 1.22981 13.9009L 1.15067 13.4072ZM 12.0566 11.7581L 11.9873 11.2629L 11.9847 11.2632L 12.0566 11.7581ZM 13.1461 10.9115L 12.6946 10.6967L 12.6934 10.6991L 13.1461 10.9115ZM 17.8817 1.0607L 18.332 1.27794L 18.3325 1.27695L 17.8817 1.0607ZM 18.9927 0.0272432L 19.1223 -0.455727L 19.1162 -0.457276L 18.9927 0.0272432ZM 20.0391 1.02772L 19.5902 1.24794L 19.5911 1.24972L 20.0391 1.02772ZM 24.7855 10.8675L 24.3326 11.0794L 24.3334 11.0811L 24.7855 10.8675ZM 26.0368 11.7581L 26.1091 11.2632L 26.1011 11.2622L 26.0368 11.7581ZM 36.8564 13.3962L 36.7765 13.8898L 36.7789 13.8902L 36.8564 13.3962ZM 37.9782 14.1548L 38.4535 13.9994L 38.452 13.995L 37.9782 14.1548ZM 37.4712 15.3971L 37.8259 15.7496L 37.8281 15.7473L 37.4712 15.3971ZM 29.7368 23.0491L 30.0848 23.4081L 30.0854 23.4075L 29.7368 23.0491ZM 29.2514 24.5113L 29.7438 24.4243L 29.7432 24.4214L 29.2514 24.5113ZM 31.0744 35.5055L 31.5688 35.4309L 31.5687 35.43L 31.0744 35.5055ZM 30.74 36.8248L 31.0211 37.2385L 31.0283 37.2334L 30.74 36.8248ZM 29.4024 36.7039L 29.173 37.1482L 29.1754 37.1494L 29.4024 36.7039ZM 19.6184 31.5256L 19.3791 31.9646L 19.3814 31.9659L 19.6184 31.5256ZM 18.3347 31.5256L 18.5729 31.9653L 18.574 31.9646L 18.3347 31.5256ZM 8.57228 36.7589L 8.33703 36.3177L 8.33531 36.3186L 8.57228 36.7589ZM 8.93905 34.4611L 8.44536 34.3819L 8.28951 35.3533L 9.16607 34.9066L 8.93905 34.4611ZM 9.84517 33.9993L 10.0722 34.4449L 10.0802 34.4407L 9.84517 33.9993ZM 17.7522 29.7666L 17.9979 30.202L 17.9981 30.2019L 17.7522 29.7666ZM 20.1685 29.7995L 20.4115 29.3625L 20.4111 29.3623L 20.1685 29.7995ZM 28.0756 34.0323L 28.3186 33.5952L 28.3106 33.591L 28.0756 34.0323ZM 28.9062 34.4391L 28.6907 34.8903L 29.5045 35.2791L 29.403 34.3829L 28.9062 34.4391ZM 28.8415 33.9224L 28.348 34.0028L 28.3493 34.0107L 28.3508 34.0187L 28.8415 33.9224ZM 27.2989 24.5993L 27.7909 24.5103L 27.7905 24.5079L 27.2989 24.5993ZM 28.0971 22.0816L 28.4387 22.4468L 28.4397 22.4459L 28.0971 22.0816ZM 34.6774 15.65L 35.0281 16.0064L 35.0342 16.0002L 34.6774 15.65ZM 35.2275 15.0343L 35.6079 15.3589L 36.1496 14.7239L 35.3342 14.5458L 35.2275 15.0343ZM 34.5263 14.8804L 34.6101 14.3873L 34.5974 14.3855L 34.5263 14.8804ZM 25.3356 13.5831L 25.2702 14.0788L 25.2733 14.0792L 25.3356 13.5831ZM 23.4263 12.2198L 22.971 12.4264L 22.9722 12.4292L 23.4263 12.2198ZM 19.4566 3.97416L 19.9069 3.75679L 19.9055 3.75394L 19.4566 3.97416ZM 18.9712 3.07264L 19.4096 2.83225L 18.945 1.98487L 18.5217 2.85364L 18.9712 3.07264ZM 14.4729 12.3517L 14.9244 12.5665L 14.9246 12.5661L 14.4729 12.3517ZM 12.8872 13.5391L 12.9501 14.0351L 12.9504 14.0351L 12.8872 13.5391ZM 6.12358 14.4846L 6.19285 14.9798L 6.19596 14.9794L 6.12358 14.4846ZM 2.63931 15.0233L 2.56375 14.5291L 1.56262 14.6821L 2.29287 15.3839L 2.63931 15.0233ZM 3.44835 15.7819L 3.09143 16.1321L 3.09576 16.1365L 3.44835 15.7819ZM 10.1364 22.4774L 10.4992 22.1333L 10.495 22.129L 10.1364 22.4774ZM 10.665 23.8517L 11.1611 23.9139L 11.1613 23.9125L 10.665 23.8517ZM 9.75888 29.4807L 10.2511 29.5688L 10.2525 29.5605L 9.75888 29.4807ZM 7.36096 36.0063C 7.67406 34.1467 7.9869 32.2117 8.31025 30.2893L 7.3241 30.1234C 7.00023 32.049 6.6874 33.9839 6.37484 35.8403L 7.36096 36.0063ZM 8.3104 30.2884C 8.62319 28.4086 8.93526 26.544 9.27971 24.6791L 8.29634 24.4975C 7.95041 26.3706 7.63683 28.244 7.32396 30.1243L 8.3104 30.2884ZM 9.28052 24.6746C 9.3403 24.3212 9.33349 23.9436 9.245 23.634C 9.14703 23.3276 8.93881 23.0032 8.67683 22.7386L 7.97152 23.4475C 8.1626 23.6337 8.24024 23.7491 8.2879 23.9237C 8.34504 24.0951 8.34362 24.2397 8.29553 24.502L 9.28052 24.6746ZM 8.67287 22.7347C 6.0527 20.1852 3.45672 17.6272 0.891962 15.0242L 0.179644 15.7261C 2.7496 18.3343 5.35307 20.8997 7.97548 23.4514L 8.67287 22.7347ZM 0.8927 15.025C 0.77305 14.9062 0.669183 14.7494 0.584148 14.5537C 0.497828 14.3652 0.526103 14.2238 0.497669 14.263L -0.461636 13.9806C -0.563651 14.3272 -0.441831 14.7074 -0.329674 14.9598C -0.207054 15.2313 -0.00348568 15.5363 0.178906 15.7253L 0.8927 15.025ZM 0.497669 14.263C 0.489624 14.2903 0.518165 14.2121 0.714628 14.0952C 0.89184 13.9874 1.06044 13.9242 1.22624 13.9014L 1.07511 12.9129C 0.809419 12.9562 0.460234 13.0853 0.203261 13.2359C -0.0344623 13.3773 -0.356506 13.6235 -0.461636 13.9806L 0.497669 14.263ZM 1.22981 13.9009C 4.86218 13.3187 8.49382 12.7805 12.1284 12.2529L 11.9847 11.2632C 8.3487 11.7911 4.70975 12.3303 1.07154 12.9135L 1.22981 13.9009ZM 12.1258 12.2532C 12.46 12.2028 12.7961 12.0665 13.0305 11.8864C 13.2569 11.6992 13.4601 11.415 13.5987 11.1239L 12.6934 10.6991C 12.5947 10.9138 12.5282 11.0144 12.4068 11.1047C 12.2932 11.2022 12.2032 11.2363 11.9873 11.2629L 12.1258 12.2532ZM 13.5976 11.1263C 15.161 7.84057 16.7461 4.5655 18.332 1.27794L 17.4313 0.843461C 15.8457 4.13043 14.2594 7.40791 12.6946 10.6967L 13.5976 11.1263ZM 18.3325 1.27695C 18.3981 1.13951 18.4558 0.998102 18.5128 0.874144C 18.5695 0.750226 18.6112 0.665432 18.6691 0.590032C 18.7208 0.516598 18.715 0.51462 18.7563 0.505319C 18.7584 0.50443 18.7854 0.490398 18.8693 0.511763L 19.1162 -0.457276C 18.8548 -0.523866 18.6001 -0.514534 18.3662 -0.415445C 18.1715 -0.324768 17.9756 -0.150151 17.8655 -0.00507522C 17.6665 0.263665 17.5115 0.676244 17.4308 0.844448L 18.3325 1.27695ZM 18.8632 0.510175C 18.95 0.533441 19.0864 0.613229 19.2398 0.766147C 19.3963 0.91973 19.5073 1.07516 19.5902 1.24794L 20.488 0.807496C 20.3659 0.562487 20.1587 0.272657 19.9458 0.0579333C 19.7297 -0.157454 19.4454 -0.369013 19.1223 -0.455689L 18.8632 0.510175ZM 19.5911 1.24972C 21.2081 4.51291 22.7914 7.7841 24.3326 11.0794L 25.2384 10.6557C 23.6944 7.35444 22.1062 4.07307 20.4871 0.805708L 19.5911 1.24972ZM 24.3334 11.0811C 24.5023 11.4303 24.7514 11.7355 25.0122 11.9197C 25.2811 12.0961 25.6345 12.2083 25.9725 12.2539L 26.1011 11.2622C 25.8458 11.2309 25.7138 11.1946 25.5755 11.0934C 25.429 11.0001 25.3491 10.8985 25.2376 10.654L 24.3334 11.0811ZM 25.9645 12.2528C 29.5782 12.7805 33.1773 13.3077 36.7765 13.8898L 36.9362 12.9026C 33.3296 12.3193 29.7229 11.791 26.109 11.2633L 25.9645 12.2528ZM 36.7789 13.8902C 36.9076 13.9103 37.0933 13.9812 37.2595 14.0885C 37.3451 14.1429 37.3955 14.1824 37.4485 14.2404C 37.4993 14.2917 37.5087 14.341 37.5045 14.3146L 38.452 13.995C 38.338 13.6569 38.0457 13.4056 37.8016 13.2481C 37.548 13.0872 37.2003 12.9473 36.9338 12.9022L 36.7789 13.8902ZM 37.503 14.3102C 37.4957 14.2879 37.5148 14.3711 37.4215 14.5814C 37.3385 14.773 37.2349 14.9271 37.1143 15.047L 37.8281 15.7473C 38.0097 15.5593 38.2135 15.2571 38.3355 14.9871C 38.4471 14.7355 38.5686 14.3515 38.4535 13.9994L 37.503 14.3102ZM 37.1166 15.0447C 34.5615 17.6158 31.9864 20.1635 29.3882 22.6907L 30.0854 23.4075C 32.6867 20.8774 35.2678 18.3237 37.8259 15.7496L 37.1166 15.0447ZM 29.3888 22.6901C 29.1397 22.9339 28.923 23.2325 28.8119 23.5324C 28.7118 23.8345 28.6933 24.2218 28.7595 24.6013L 29.7432 24.4214C 29.6908 24.1522 29.6939 24.0228 29.7556 23.8631C 29.8063 23.7013 29.8916 23.5931 30.0848 23.4081L 29.3888 22.6901ZM 28.759 24.5984C 29.4059 28.2573 30.0198 31.9126 30.5802 35.581L 31.5687 35.43C 31.0072 31.7543 30.3913 28.0875 29.7437 24.4243L 28.759 24.5984ZM 30.58 35.5802C 30.6074 35.7454 30.5978 35.9331 30.5489 36.1419C 30.4964 36.3751 30.4292 36.4322 30.4518 36.4163L 31.0283 37.2334C 31.3313 37.0196 31.4637 36.6314 31.5245 36.3616C 31.5888 36.0675 31.6061 35.6945 31.5688 35.4309L 30.58 35.5802ZM 30.459 36.4113C 30.4898 36.3703 30.367 36.4431 30.1678 36.4164C 29.9615 36.3934 29.7837 36.3392 29.6294 36.2584L 29.1754 37.1494C 29.4095 37.2665 29.7548 37.3718 30.0475 37.4092C 30.3229 37.4426 30.718 37.4443 31.021 37.2384L 30.459 36.4113ZM 29.6318 36.2596C 26.3554 34.5681 23.1015 32.833 19.8554 31.0854L 19.3814 31.9659C 22.6292 33.7144 25.8908 35.4535 29.173 37.1482L 29.6318 36.2596ZM 19.8577 31.0866C 19.5808 30.9385 19.256 30.8416 18.9766 30.836C 18.6971 30.8416 18.3723 30.9385 18.0954 31.0866L 18.574 31.9646C 18.761 31.8599 18.8461 31.8304 18.9766 31.836C 19.107 31.8304 19.1922 31.8599 19.3791 31.9646L 19.8577 31.0866ZM 18.0965 31.086C 14.851 32.8443 11.5948 34.5806 8.33703 36.3177L 8.80754 37.2001C 12.0653 35.463 15.3245 33.7251 18.5729 31.9653L 18.0965 31.086ZM 8.33531 36.3186C 7.92219 36.5409 7.67889 36.5146 7.57976 36.4672C 7.50893 36.4333 7.3721 36.3185 7.36787 35.918L 6.36793 35.9286C 6.37449 36.5506 6.60981 37.1119 7.14847 37.3694C 7.65882 37.6134 8.26231 37.4935 8.80925 37.1992L 8.33531 36.3186ZM 9.16607 34.9066C 9.55441 34.7087 9.8133 34.5768 10.0722 34.4448L 9.61815 33.5538C 9.35926 33.6858 9.10037 33.8177 8.71203 34.0156L 9.16607 34.9066ZM 10.0802 34.4407C 12.7191 33.0355 15.3781 31.6804 17.9979 30.202L 17.5065 29.3311C 14.9053 30.7992 12.257 32.1486 9.61018 33.558L 10.0802 34.4407ZM 17.9981 30.2019C 18.3919 29.9754 18.6513 29.9001 18.9605 29.9159C 19.2696 29.9198 19.537 30.019 19.926 30.2368L 20.4111 29.3623C 19.9479 29.1073 19.4548 28.9371 18.9926 28.9164C 18.5306 28.9074 18.0079 29.052 17.5063 29.3312L 17.9981 30.2019ZM 19.9256 30.2366C 22.5426 31.6913 25.2002 33.0677 27.8406 34.4736L 28.3106 33.591C 25.6652 32.1824 23.0155 30.8102 20.4115 29.3625L 19.9256 30.2366ZM 27.8326 34.4693C 28.0899 34.6118 28.3519 34.7284 28.6907 34.8903L 29.1217 33.9879C 28.7701 33.82 28.5359 33.7167 28.3185 33.5953L 27.8326 34.4693ZM 29.403 34.3829C 29.3713 34.1029 29.3581 33.9619 29.3321 33.8261L 28.3508 34.0187C 28.368 34.1028 28.3764 34.2036 28.4094 34.4953L 29.403 34.3829ZM 29.335 33.842C 28.8284 30.7331 28.353 27.6174 27.7909 24.5103L 26.8069 24.6883C 27.3666 27.7819 27.8406 30.8889 28.348 34.0028L 29.335 33.842ZM 27.7905 24.5079C 27.6998 24.0327 27.6987 23.7078 27.8077 23.3723C 27.9064 23.0339 28.084 22.7742 28.4387 22.4468L 27.7556 21.7165C 27.3229 22.1256 27.0042 22.6026 26.8521 23.0777C 26.7103 23.5558 26.7038 24.1214 26.8073 24.6907L 27.7905 24.5079ZM 28.4397 22.4459C 30.679 20.3399 32.8405 18.1591 35.0281 16.0064L 34.3267 15.2936C 32.1346 17.4507 29.9812 19.6236 27.7546 21.7174L 28.4397 22.4459ZM 35.0342 16.0002C 35.2176 15.813 35.391 15.6131 35.6079 15.3589L 34.8471 14.7098C 34.6326 14.9613 34.4823 15.1352 34.3205 15.2998L 35.0342 16.0002ZM 35.3342 14.5458C 35.0436 14.4825 34.8272 14.4249 34.6101 14.3875L 34.4426 15.3734C 34.6138 15.4019 34.8073 15.4542 35.1208 15.5228L 35.3342 14.5458ZM 34.5974 14.3855C 31.5364 13.9461 28.4685 13.4727 25.3979 13.087L 25.2733 14.0792C 28.3299 14.4631 31.3891 14.9352 34.4553 15.3753L 34.5974 14.3855ZM 25.401 13.0874C 24.9827 13.0339 24.7209 12.9589 24.4767 12.7853C 24.2248 12.6201 24.0621 12.4134 23.8804 12.0105L 22.9722 12.4292C 23.2112 12.9387 23.5447 13.3533 23.913 13.6113C 24.2891 13.8609 24.7717 14.0114 25.2702 14.0788L 25.401 13.0874ZM 23.8816 12.0132C 22.6148 9.22162 21.2314 6.50071 19.9069 3.7568L 19.0063 4.19153C 20.3354 6.94472 21.7136 9.65494 22.971 12.4264L 23.8816 12.0132ZM 19.9055 3.75394C 19.7688 3.47589 19.6123 3.20205 19.4096 2.83225L 18.5327 3.31303C 18.7399 3.69083 18.8855 3.94472 19.0077 4.19438L 19.9055 3.75394ZM 18.5217 2.85364C 16.958 6.06301 15.4682 9.08871 14.0212 12.1373L 14.9246 12.5661C 16.3685 9.52399 17.856 6.50288 19.4206 3.29164L 18.5217 2.85364ZM 14.0214 12.137C 13.8719 12.4568 13.743 12.6346 13.5402 12.7817C 13.3451 12.9359 13.1559 13.0042 12.824 13.0431L 12.9504 14.0351C 13.3951 13.9751 13.8262 13.8125 14.1435 13.5792C 14.4531 13.3387 14.7287 12.9723 14.9244 12.5665L 14.0214 12.137ZM 12.8243 13.0431C 10.565 13.3296 8.30574 13.6601 6.05121 13.9899L 6.19596 14.9794C 8.45049 14.6495 10.7003 14.3204 12.9501 14.0351L 12.8243 13.0431ZM 6.05431 13.9894C 4.94637 14.1445 3.85372 14.3319 2.56375 14.5291L 2.71487 15.5176C 4.01383 15.319 5.1002 15.1326 6.19285 14.9798L 6.05431 13.9894ZM 2.29287 15.3839C 2.6843 15.7595 2.90538 15.9415 3.09146 16.1321L 3.80525 15.4318C 3.58141 15.2046 3.34943 15.0128 2.98575 14.6628L 2.29287 15.3839ZM 3.09576 16.1365C 5.33001 18.3586 7.58151 20.5654 9.77783 22.8258L 10.495 22.129C 8.29016 19.8598 6.0326 17.647 3.80094 15.4274L 3.09576 16.1365ZM 9.77365 22.8215C 9.89729 22.9482 9.99278 23.1026 10.0746 23.3104C 10.1568 23.5141 10.1816 23.6858 10.1687 23.7908L 11.1613 23.9125C 11.2023 23.5778 11.1193 23.2272 11.002 22.9363C 10.8842 22.6493 10.6884 22.3365 10.4992 22.1333L 9.77365 22.8215ZM 10.1689 23.7894C 9.93402 25.6634 9.56873 27.5237 9.26528 29.4009L 10.2525 29.5605C 10.5531 27.6997 10.9214 25.822 11.1611 23.9139L 10.1689 23.7894ZM 9.2667 29.3926C 8.97443 31.0256 8.7256 32.6352 8.44536 34.3819L 9.43273 34.5403C 9.71343 32.7908 9.96081 31.1901 10.2511 29.5688L 9.2667 29.3926Z"/>
</defs>
</svg>
