<svg width="75" height="100" viewBox="0 0 75 100" version="1.1" xmlns="http://www.w3.org/2000/svg" xmlns:xlink="http://www.w3.org/1999/xlink">
<title>Vector</title>
<desc>Created using Figma</desc>
<g id="Canvas" transform="translate(-754 -1655)">
<g id="Vector">
<use xlink:href="#path0_fill" transform="translate(754 1655)" fill="url(#paint0_linear)"/>
</g>
</g>
<defs>
<linearGradient id="paint0_linear" x1="0" y1="0" x2="1" y2="0" gradientUnits="userSpaceOnUse" gradientTransform="matrix(75 1 -0.750002 56.25 0.375001 26.875)">
<stop offset="0" stop-color="#FF5A00"/>
<stop offset="1" stop-color="#FF8B10"/>
</linearGradient>
<path id="path0_fill" d="M 12.7491 31.0596C 12.7491 27.9163 12.4441 24.7424 12.8101 21.6295C 14.1521 9.84954 24.4307 0.541524 36.3867 0.0227166C 48.4343 -0.496091 59.4144 7.9269 61.8544 19.6153C 62.2509 21.5075 62.3729 23.4301 62.4644 25.3527C 62.5559 27.2143 62.4949 29.1065 62.4949 31.1512C 63.0439 31.1817 63.5319 31.2427 64.0199 31.2427C 66.3684 31.2427 68.6865 31.2427 71.035 31.2427C 73.9325 31.2427 75 32.3414 75 35.1796C 75 49.0653 75 62.951 75 76.8368C 75 83.1845 75 89.5628 75 95.9106C 75 98.9319 73.9325 100 70.852 100C 48.5868 100 26.3217 100 4.05653 100C 1.09801 100 4.54487e-10 98.9013 4.54487e-10 95.9716C 4.54487e-10 75.7686 4.54487e-10 55.5962 4.54487e-10 35.3932C 4.54487e-10 32.2498 1.03701 31.2427 4.23953 31.2427C 6.83205 31.2427 9.42456 31.2427 12.0171 31.2122C 12.1086 31.2122 12.2001 31.1512 12.2916 31.1207C 12.4136 31.1207 12.5661 31.0901 12.7491 31.0596ZM 6.34404 93.6522C 27.1147 93.6522 47.8243 93.6522 68.595 93.6522C 68.595 74.9141 68.595 56.2981 68.595 37.621C 66.5209 37.621 64.5079 37.621 62.4644 37.621C 62.4644 40.7949 62.4949 43.8467 62.4339 46.8985C 62.4034 48.6991 61.0004 50.0114 59.3229 50.0114C 57.6759 50.0114 56.3949 48.8212 56.2119 47.0511C 56.1509 46.3492 56.1814 45.6168 56.1814 44.9148C 56.1814 42.5039 56.1814 40.0625 56.1814 37.5905C 43.6458 37.5905 31.2627 37.5905 18.7271 37.5905C 18.7271 38.3229 18.7271 38.9638 18.7271 39.6047C 18.7271 42.0461 18.7881 44.4876 18.6966 46.929C 18.6356 48.5465 17.5986 49.7062 16.1651 49.9503C 14.7621 50.1945 13.6031 49.6451 12.9626 48.4244C 12.6271 47.7835 12.5051 46.9595 12.5051 46.2271C 12.4441 43.3584 12.4746 40.4592 12.4746 37.56C 10.3091 37.56 8.35706 37.56 6.34404 37.56C 6.34404 56.2981 6.34404 74.9446 6.34404 93.6522ZM 56.1204 31.1817C 56.1204 28.6182 56.2424 26.1767 56.0899 23.7353C 55.3884 11.4975 42.7613 3.04401 31.2932 7.34706C 20.0691 11.5891 17.7816 21.0192 18.9406 31.1817C 31.2627 31.1817 43.6153 31.1817 56.1204 31.1817Z"/>
</defs>
</svg>
