<svg width="96" height="83" viewBox="0 0 96 83" version="1.1" xmlns="http://www.w3.org/2000/svg" xmlns:xlink="http://www.w3.org/1999/xlink">
<title>nau_logo_1</title>
<desc>Created using Figma</desc>
<g id="Canvas" transform="translate(-298 -1669)">
<g id="nau_logo_1">
<g id="Group">
<g id="Group">
<g id="Vector">
<use xlink:href="#path0_fill" transform="translate(384.965 1695.16)" fill="url(#paint0_linear)"/>
</g>
<g id="Vector">
<use xlink:href="#path1_fill" transform="translate(350.706 1729.56)" fill="url(#paint1_linear)"/>
</g>
<g id="Vector">
<use xlink:href="#path2_fill" transform="translate(369.529 1709.74)" fill="url(#paint2_linear)"/>
</g>
<g id="Vector">
<use xlink:href="#path3_fill" transform="translate(298 1669)" fill="url(#paint3_linear)"/>
</g>
</g>
</g>
</g>
</g>
<defs>
<linearGradient id="paint0_linear" x1="0" y1="0" x2="1" y2="0" gradientUnits="userSpaceOnUse" gradientTransform="matrix(25.4573 60.2045 -60.6125 25.286 20.5967 -41.7573)">
<stop offset="0.0102564" stop-color="#F15C22"/>
<stop offset="0.3316" stop-color="#F37021"/>
<stop offset="0.7525" stop-color="#F5841F"/>
<stop offset="1" stop-color="#F68B1F"/>
</linearGradient>
<linearGradient id="paint1_linear" x1="0" y1="0" x2="1" y2="0" gradientUnits="userSpaceOnUse" gradientTransform="matrix(25.4573 60.2049 -60.6129 25.2859 16.5404 -60.1755)">
<stop offset="0.0102564" stop-color="#F15C22"/>
<stop offset="0.3316" stop-color="#F37021"/>
<stop offset="0.7525" stop-color="#F5841F"/>
<stop offset="1" stop-color="#F68B1F"/>
</linearGradient>
<linearGradient id="paint2_linear" x1="0" y1="0" x2="1" y2="0" gradientUnits="userSpaceOnUse" gradientTransform="matrix(25.4573 60.2045 -60.6125 25.2859 19.2738 -49.3497)">
<stop offset="0.0102564" stop-color="#F15C22"/>
<stop offset="0.3316" stop-color="#F37021"/>
<stop offset="0.7525" stop-color="#F5841F"/>
<stop offset="1" stop-color="#F68B1F"/>
</linearGradient>
<linearGradient id="paint3_linear" x1="0" y1="0" x2="1" y2="0" gradientUnits="userSpaceOnUse" gradientTransform="matrix(25.4577 60.2049 -60.6129 25.2863 50.2827 8.29891)">
<stop offset="0.0102564" stop-color="#F15C22"/>
<stop offset="0.3316" stop-color="#F37021"/>
<stop offset="0.7525" stop-color="#F5841F"/>
<stop offset="1" stop-color="#F68B1F"/>
</linearGradient>
<path id="path0_fill" d="M 4.51764 8.97447C 7.01266 8.97447 9.0353 6.96547 9.0353 4.48724C 9.0353 2.00901 7.01266 2.85291e-06 4.51764 2.85291e-06C 2.02261 2.85291e-06 0 2.00901 0 4.48724C 0 6.96547 2.02261 8.97447 4.51764 8.97447Z"/>
<path id="path1_fill" d="M 11.2941 22.4362C 17.5317 22.4362 22.5882 17.4137 22.5882 11.2181C 22.5882 5.02252 17.5317 5.70582e-06 11.2941 5.70582e-06C 5.05655 5.70582e-06 5.74448e-06 5.02252 5.74448e-06 11.2181C 5.74448e-06 17.4137 5.05655 22.4362 11.2941 22.4362Z"/>
<path id="path2_fill" d="M 7.90588 15.7053C 12.2722 15.7053 15.8118 12.1896 15.8118 7.85267C 15.8118 3.51576 12.2722 -5.70582e-06 7.90588 -5.70582e-06C 3.53958 -5.70582e-06 5.74448e-06 3.51576 5.74448e-06 7.85267C 5.74448e-06 12.1896 3.53958 15.7053 7.90588 15.7053Z"/>
<path id="path3_fill" d="M 57.9765 34.762C 57.2235 34.3881 56.4706 34.0141 55.7176 34.0141C 54.2118 33.6402 53.0823 32.8923 52.3294 31.3966C 51.9529 29.9008 52.3294 28.0312 53.8353 26.9093C 57.2235 24.6657 59.4823 20.9264 59.8588 16.4391C 60.6117 8.96039 55.3412 1.85561 48.1882 0.35986C 39.5294 -1.50982 31.2471 4.09922 30.1176 12.6998C 29.3647 16.4391 30.4941 20.1785 32.3765 23.17C 33.5059 25.4136 33.5059 28.4051 32.3765 30.6487C 30.8706 32.8923 28.9882 33.6402 26.7294 33.6402C 25.9765 33.6402 25.2235 33.6402 24.0941 33.6402C 17.3176 34.0141 11.6706 39.6232 11.6706 46.728C 11.6706 49.3455 12.4235 51.5891 13.5529 53.8328C 15.0588 56.0764 13.9294 58.6939 12.4235 60.9375L 11.6706 62.0594C 10.5412 63.929 8.65882 65.0508 6.39999 65.0508C 6.02352 65.0508 5.27059 65.4248 4.89412 65.4248C 1.88236 66.5466 5.74448e-06 69.1642 5.74448e-06 72.1556C 5.74448e-06 77.0168 4.89412 80.7562 9.78823 79.2604C 12.8 78.5126 14.6824 75.895 15.0588 72.9035C 15.0588 72.1556 15.0588 71.0338 14.6823 70.286C 13.9294 68.0423 14.3059 65.7987 15.8118 63.929L 16.9412 62.4333C 18.0706 60.5636 21.8353 59.4418 24.0941 59.4418C 25.6 59.4418 26.7294 59.4418 28.2353 59.0679C 33.5059 57.9461 37.647 53.4588 38.0235 47.8498C 38.4 45.2322 37.647 42.6147 36.5176 40.3711C 35.3882 38.1274 35.0118 35.5099 36.1412 33.6402L 36.5176 32.8923C 38.0235 30.6487 40.2823 29.5269 42.9176 29.9008C 43.6706 29.9008 44.8 30.2748 45.5529 30.2748C 47.0588 30.2748 48.5647 31.3966 49.3176 32.8923C 49.6941 34.3881 49.3176 35.8838 48.1882 37.0056C 47.0588 38.1274 46.3059 39.6232 45.9294 41.4929C 44.8 45.6062 46.6823 49.7195 50.447 51.9631C 55.3412 54.9546 61.7412 52.711 64 47.4758C 64.7529 42.2407 62.4941 36.6317 57.9765 34.762Z"/>
</defs>
</svg>
