<svg width="40" height="33" viewBox="0 0 40 33" version="1.1" xmlns="http://www.w3.org/2000/svg" xmlns:xlink="http://www.w3.org/1999/xlink">
<title>ico4</title>
<desc>Created using Figma</desc>
<g id="Canvas" transform="translate(-519 541)">
<g id="ico4">
<g id="Vector">
<use xlink:href="#path0_fill" transform="translate(519 -541)" fill="#FFFFFF"/>
</g>
<g id="Vector">
<use xlink:href="#path1_fill" transform="translate(527.506 -532.785)" fill="#FFFFFF"/>
</g>
<g id="Vector">
<use xlink:href="#path2_fill" transform="translate(522.327 -528.666)" fill="#FFFFFF"/>
</g>
<g id="Vector">
<use xlink:href="#path3_fill" transform="translate(534.997 -537.757)" fill="#FFFFFF"/>
</g>
<g id="Vector">
<use xlink:href="#path4_fill" transform="translate(522.318 -531.128)" fill="#FFFFFF"/>
</g>
<g id="Vector">
<use xlink:href="#path5_fill" transform="translate(531.021 -529.301)" fill="#FFFFFF"/>
</g>
</g>
</g>
<defs>
<path id="path0_fill" d="M 0 32.0631L 0 7.44087C 0.343683 6.73627 0.913884 6.53496 1.67936 6.5427C 4.94435 6.57367 8.20933 6.55045 11.4821 6.56593C 11.8727 6.56593 12.0758 6.48076 12.1851 6.07039C 12.5288 4.80056 12.9037 3.54622 13.2943 2.29188C 13.4349 1.82731 13.6145 1.36274 13.8489 0.936884C 14.1925 0.325199 14.7393 0 15.4814 0C 18.512 0.00774284 21.5427 0.00774284 24.5811 0C 25.1435 0 25.6278 0.193571 25.9246 0.650399C 26.2058 1.06851 26.4558 1.54083 26.612 2.02088C 27.065 3.41459 27.4556 4.83153 27.8852 6.24073C 27.9164 6.35687 28.0258 6.53496 28.1117 6.53496C 28.7288 6.55819 29.3536 6.55045 30.002 6.55045C 30.002 6.19427 30.002 5.88456 30.002 5.57485C 30.0098 4.20436 30.9471 3.26748 32.3218 3.25199C 33.5559 3.24425 34.7979 3.24425 36.032 3.25199C 37.3755 3.25974 38.3363 4.21985 38.3441 5.55936C 38.3441 5.87682 38.3441 6.19427 38.3441 6.50399C 39.5079 6.68207 39.5079 6.68207 40 7.43313L 40 32.0554C 39.6876 32.8142 39.1017 33 38.3128 33C 26.0652 32.9845 13.8254 32.9845 1.57782 33C 0.812341 33 0.289006 32.7522 0 32.0631ZM 1.67155 8.20741L 1.67155 8.66424C 1.67155 16.0664 1.67155 23.4763 1.66374 30.8785C 1.66374 31.2191 1.74185 31.3353 2.10896 31.3353C 12.3492 31.3275 22.5893 31.3275 32.8373 31.3353C 33.2279 31.3353 33.3372 31.2501 33.3372 30.8475C 33.3216 25.4972 33.3216 20.1391 33.3294 14.7888C 33.3294 14.2313 33.2669 13.8519 32.7046 13.488C 31.1424 12.4582 31.3533 10.1741 33.017 9.29141C 33.1342 9.22947 33.2904 9.10558 33.306 8.99718C 33.3529 8.74941 33.3216 8.4939 33.3216 8.20741L 32.853 8.20741C 30.9393 8.20741 29.0256 8.19967 27.1119 8.21516C 26.7838 8.21516 26.6589 8.1145 26.5886 7.81253C 26.448 7.23956 26.2605 6.67433 26.0965 6.1091C 25.7137 4.82379 25.3388 3.53848 24.9404 2.26091C 24.7452 1.64148 24.7217 1.64923 24.089 1.64923C 21.3708 1.64923 18.6526 1.64923 15.9266 1.64148C 15.2705 1.64148 15.2548 1.63374 15.0517 2.26865C 14.7549 3.19005 14.4894 4.11919 14.216 5.04059C 13.9035 6.08588 13.5911 7.1389 13.2787 8.19193L 1.67155 8.19193L 1.67155 8.20741ZM 38.305 8.23839L 34.9932 8.23839C 34.9932 8.37001 35.0088 8.47067 34.9932 8.57133C 34.9307 8.97396 35.0713 9.19075 35.454 9.39981C 36.2742 9.85664 36.6803 10.6154 36.6569 11.5523C 36.6335 12.5202 36.1726 13.2557 35.3056 13.6971C 35.0557 13.8287 34.9854 13.9681 34.9854 14.2236C 34.9932 19.752 34.9932 25.2881 34.9932 30.8165L 34.9932 31.3198C 36.0008 31.3198 36.9772 31.3043 37.9457 31.3275C 38.2738 31.3353 38.3285 31.2114 38.3285 30.9249C 38.3206 23.484 38.3206 16.0432 38.3206 8.6023C 38.3206 8.4939 38.3128 8.36227 38.305 8.23839ZM 36.6491 6.53496C 36.6491 6.17879 36.6569 5.87682 36.6491 5.5671C 36.6413 5.14125 36.4694 4.92445 36.0476 4.91671C 34.7901 4.90122 33.5247 4.89348 32.2671 4.93219C 32.0719 4.93993 31.7594 5.15673 31.7282 5.31933C 31.6501 5.70648 31.7047 6.12459 31.7047 6.53496L 36.6491 6.53496ZM 34.134 12.3266C 34.6104 12.3343 34.9932 11.9704 34.9932 11.5136C 34.9932 11.08 34.6104 10.7006 34.1652 10.7006C 33.72 10.6929 33.3529 11.0568 33.3451 11.5059C 33.3372 11.9627 33.6731 12.3189 34.134 12.3266Z"/>
<path id="path1_fill" d="M 8.16583e-05 11.142C -0.0233513 5.03293 5.00692 0.0155669 11.162 8.12116e-05C 17.4186 -0.0231473 22.4801 4.93227 22.4957 11.0956C 22.5191 17.2589 17.5045 22.2762 11.3104 22.2995C 5.04597 22.315 0.0235146 17.3595 8.16583e-05 11.142ZM 1.67163 11.1265C 1.59352 16.2833 5.88175 20.5651 11.201 20.6348C 16.4266 20.7122 20.7382 16.4846 20.8163 11.2195C 20.8944 6.00853 16.6218 1.70351 11.3104 1.64931C 6.03015 1.59511 1.74974 5.79947 1.67163 11.1265Z"/>
<path id="path2_fill" d="M 2.49174 4.96316C 1.12482 4.96316 0.00785157 3.87142 4.05984e-05 2.51642C -0.00777038 1.12271 1.1092 2.36293e-07 2.50736 2.36293e-07C 3.86647 2.36293e-07 5.0225 1.15368 5.00688 2.4932C 4.99906 3.86368 3.8821 4.95542 2.49174 4.96316ZM 3.31971 2.48545C 3.31971 2.02862 2.98383 1.68794 2.51517 1.6802C 2.03871 1.67245 1.66378 2.03637 1.67159 2.4932C 1.67159 2.93454 2.04652 3.30619 2.48393 3.31394C 2.94478 3.32168 3.31971 2.95002 3.31971 2.48545Z"/>
<path id="path3_fill" d="M 2.38372e-07 1.64248C 0.140598 1.1392 0.257762 0.666883 0.421792 0.210056C 0.460847 0.109399 0.671744 0.0242276 0.804531 0.0242276C 2.68698 0.0164847 4.56942 0.0164847 6.45186 0.0242276C 6.81117 0.0242276 7.26421 -0.0686867 7.50635 0.109399C 7.73286 0.271998 7.73287 0.736569 7.83441 1.06951C 7.88908 1.25534 7.94376 1.43343 7.99844 1.65022L 2.38372e-07 1.65022L 2.38372e-07 1.64248Z"/>
<path id="path4_fill" d="M 0.00955097 0L 4.99295 0L 4.99295 1.63374C 4.8836 1.64148 4.77425 1.65697 4.65708 1.65697C 3.24329 1.65697 1.8217 1.64923 0.407911 1.66471C 0.0720389 1.67245 -0.0138818 1.55631 0.00174011 1.2466C 0.025173 0.836228 0.00955097 0.425856 0.00955097 0Z"/>
<path id="path5_fill" d="M 5.25691e-05 7.68866C -0.0155694 3.43784 3.42126 0.00775652 7.70949 1.36745e-05C 11.9587 -0.00772917 15.458 3.39138 15.4736 7.52606C 15.4892 11.8853 12.0914 15.3231 7.75635 15.3386C 3.46031 15.3386 0.0156745 11.9472 5.25691e-05 7.68866ZM 13.802 7.68866C 13.802 4.35149 11.0916 1.64924 7.74073 1.6415C 4.39763 1.63375 1.64817 4.36698 1.66379 7.67317C 1.6716 10.9949 4.41325 13.6894 7.77197 13.6816C 11.076 13.6739 13.802 10.9639 13.802 7.68866Z"/>
</defs>
</svg>
