<svg width="30" height="29" viewBox="0 0 30 29" version="1.1" xmlns="http://www.w3.org/2000/svg" xmlns:xlink="http://www.w3.org/1999/xlink">
<title>Vector</title>
<desc>Created using Figma</desc>
<g id="Canvas" transform="translate(-354 -1820)">
<g id="Vector">
<use xlink:href="#path0_fill" transform="translate(354 1820)" fill="#FFFFFF"/>
</g>
</g>
<defs>
<path id="path0_fill" d="M 9.375 0C 10.0446 0.154362 10.7344 0.261745 11.3839 0.483221C 14.7723 1.61745 17.1362 4.92617 17.1429 8.48993C 17.1429 9.1745 16.7143 9.65772 16.0848 9.66443C 15.4554 9.67114 15.0134 9.20805 15 8.52349C 14.9263 5.34899 12.7232 2.78523 9.58929 2.2349C 6.26786 1.6443 2.89955 3.99329 2.27009 7.31544C 1.96205 8.95973 2.27679 10.5168 2.85938 12.0403C 3.72321 14.2953 5.0692 16.2685 6.5692 18.1409C 9.02679 21.2081 11.8393 23.906 14.8527 26.4161C 14.8929 26.4497 14.9397 26.4832 15.0134 26.5369C 15.5491 26.0805 16.0848 25.6309 16.6071 25.1678C 19.6674 22.4564 22.5335 19.5705 24.8705 16.1879C 26.0893 14.4228 27.1272 12.5705 27.6161 10.4564C 28.1719 8.07383 27.7433 5.91946 26.029 4.12081C 24.154 2.16107 21.3013 1.61745 18.817 2.69799C 18.5893 2.79866 18.3214 2.87248 18.0804 2.85235C 17.5848 2.81208 17.2232 2.42282 17.1496 1.93289C 17.0826 1.48993 17.3304 1.02685 17.779 0.812081C 18.5692 0.42953 19.3996 0.194631 20.2701 0.0738255C 20.3638 0.0604027 20.4576 0.0268456 20.5513 0.00671141L 22.2254 0.00671141C 22.2991 0.0268456 22.3728 0.0604027 22.4464 0.0671141C 25.9821 0.610738 28.3527 2.58389 29.5647 5.9396C 29.779 6.5302 29.8527 7.16779 29.9933 7.78523L 29.9933 9.46309C 29.9732 9.53691 29.9397 9.60403 29.9263 9.67785C 29.7254 10.5235 29.5915 11.3893 29.3237 12.2148C 28.6138 14.396 27.4353 16.3289 26.096 18.1678C 23.5513 21.6577 20.5179 24.6779 17.2433 27.4698C 16.6071 28.0067 15.9241 28.4899 15.2612 29L 14.7254 29C 14.4844 28.8389 14.2299 28.698 14.0089 28.5168C 13.0313 27.698 12.0469 26.8859 11.1094 26.0336C 8.32366 23.5101 5.73214 20.7987 3.5625 17.7047C 2.18304 15.7248 1.00446 13.6443 0.375 11.2886C 0.214286 10.6913 0.120536 10.0738 0 9.46309L 0 7.78523C 0.0200893 7.69799 0.0535714 7.61745 0.0669643 7.5302C 0.609375 4.04698 2.53125 1.68456 5.83259 0.463087C 6.44866 0.234899 7.1183 0.147651 7.76786 0L 9.375 0Z"/>
</defs>
</svg>
