<svg width="36" height="33" viewBox="0 0 36 33" version="1.1" xmlns="http://www.w3.org/2000/svg" xmlns:xlink="http://www.w3.org/1999/xlink">
<title>Vector</title>
<desc>Created using Figma</desc>
<g id="Canvas" transform="translate(-273 -1818)">
<g id="Vector">
<use xlink:href="#path0_fill" transform="translate(273 1818.01)" fill="#FFFFFF" fill-opacity="1"/>
</g>
</g>
<defs>
<path id="path0_fill" d="M 0 28.0826C 0.499024 27.4206 0.991019 26.7444 1.51113 26.0967C 1.83444 25.6838 2.11558 25.3279 2.10855 24.7157C 2.09449 23.7405 2.24912 22.7582 2.40375 21.7901C 2.88872 18.8076 3.85865 16.0102 5.56658 13.5117C 7.2745 11.0132 9.50254 9.19092 12.328 8.12319C 12.4475 8.08048 12.6021 7.92388 12.6162 7.80999C 12.7357 6.2511 12.7497 6.18704 13.7478 4.92712C 13.1152 3.92345 13.1363 3.19739 13.818 2.20796C 15.9336 -0.859984 20.4811 -0.703384 22.3858 2.50693C 22.8778 3.33976 22.7934 4.15123 22.2312 4.94135C 23.0676 5.71724 23.433 6.67819 23.3698 7.80999C 23.3557 8.07336 23.5455 8.0876 23.7001 8.14454C 25.2323 8.714 26.6169 9.53971 27.854 10.6146C 30.0047 12.4795 31.4666 14.8214 32.4647 17.4765C 33.3432 19.8326 33.8212 22.2813 33.8985 24.794C 33.9125 25.2852 34.0601 25.6126 34.3553 25.9401C 34.7068 26.3387 35.0512 26.7444 35.3745 27.1644C 35.5994 27.4562 35.7962 27.7837 36 28.0898L 36 30.4388C 35.9789 30.4672 35.9508 30.4957 35.9438 30.5242C 35.5291 32.14 34.4397 32.9871 32.788 32.9871C 26.3639 32.9871 19.9399 32.9871 13.5088 32.9871C 10.0297 32.9871 6.55759 32.9871 3.07848 32.9871C 1.58141 32.9871 0.435767 32.0688 0.0773135 30.6025C 0.0632565 30.5455 0.0351425 30.4957 0.014057 30.4388L 0.014057 28.0826L 0 28.0826ZM 17.9578 25.3777C 22.5053 25.3777 27.0457 25.3777 31.5931 25.3777C 32.2889 25.3777 32.4647 25.1998 32.3803 24.5093C 32.2819 23.6409 32.1976 22.7653 32.0429 21.904C 31.572 19.2703 30.7356 16.7718 29.2667 14.5225C 27.5025 11.8033 25.0918 9.98104 21.9641 9.16957C 19.6868 8.57876 17.3815 8.52893 15.0691 8.94178C 12.1242 9.46141 9.65717 10.8495 7.7173 13.1629C 6.22023 14.9424 5.25029 17.0067 4.56853 19.2205C 4.03436 20.9715 3.72511 22.7653 3.59157 24.5876C 3.54237 25.1998 3.71105 25.3706 4.32253 25.3777C 4.37173 25.3777 4.4139 25.3777 4.4631 25.3777C 8.96134 25.3777 13.4596 25.3777 17.9578 25.3777ZM 17.993 31.4353C 19.8907 31.4353 21.7884 31.4353 23.6861 31.4353C 26.7645 31.4353 29.843 31.4353 32.9285 31.4353C 33.8352 31.4353 34.4326 30.8587 34.4818 29.9547C 34.5521 28.5951 34.5521 28.5951 33.7228 27.5559C 33.6314 27.442 33.526 27.3495 33.4557 27.2285C 33.3151 26.9793 33.1043 26.9366 32.8372 26.9366C 23.0816 26.9437 13.326 26.9508 3.57048 26.9295C 2.98711 26.9295 2.63569 27.1146 2.24912 27.5488C 1.67981 28.1894 1.46193 28.8514 1.48301 29.7198C 1.51113 30.816 2.21398 31.4638 3.21203 31.4567C 8.13198 31.4211 13.066 31.4353 17.993 31.4353ZM 18.7661 4.1014C 19.3424 4.1014 19.8907 4.1014 20.4389 4.1014C 20.713 4.1014 20.9941 4.11564 21.1347 3.80956C 21.2683 3.51771 21.1136 3.28281 20.952 3.06215C 19.483 0.969395 16.4397 0.997867 15.0129 3.11909C 14.8653 3.33976 14.7317 3.56754 14.8653 3.83803C 14.9988 4.10852 15.2589 4.09429 15.5049 4.09429C 16.0742 4.09429 16.6435 4.09429 17.2128 4.09429L 17.2128 5.63894C 16.7208 5.63894 16.271 5.6247 15.8141 5.63894C 14.8442 5.67453 14.0219 6.6426 14.1484 7.43984C 15.4346 7.34019 16.7138 7.15511 17.993 7.15511C 19.2722 7.15511 20.5513 7.33307 21.8305 7.43984C 21.9289 6.59989 21.1347 5.68165 20.1859 5.63894C 19.722 5.61758 19.2581 5.63894 18.7661 5.63894L 18.7661 4.1014Z"/>
</defs>
</svg>
