<?xml version="1.0" encoding="UTF-8"?>
<svg width="48px" height="48px" viewBox="0 0 48 48" version="1.1" xmlns="http://www.w3.org/2000/svg" xmlns:xlink="http://www.w3.org/1999/xlink">
    <!-- Generator: Sketch 47.1 (45422) - http://www.bohemiancoding.com/sketch -->
    <title>Untitled</title>
    <desc>Created with Sketch.</desc>
    <defs></defs>
    <g id="Page-1" stroke="none" stroke-width="1" fill="none" fill-rule="evenodd">
        <g id="tab-icon6" fill-rule="nonzero" fill="#FFFFFF">
            <path d="M36.7089591,21.1941562 C36.7089591,19.6745625 35.4751813,18.4384687 33.9585497,18.4384687 L28.9038596,18.4384687 C30.1319298,17.055375 30.9345497,15.4804688 31.0895906,14.0675625 C31.1842807,13.2045937 30.9181754,12.348 30.3592982,11.7173437 C29.8485146,11.140875 29.1500351,10.8195937 28.3925146,10.8125625 C28.3837193,10.8124687 28.374924,10.8124687 28.3662222,10.8124687 C27.6334971,10.8124687 26.9457778,11.0952187 26.4267602,11.6104687 C25.9076491,12.1258125 25.6203977,12.8123437 25.6170292,13.545 C25.5903626,13.7054062 25.3087251,14.2584375 24.6196023,14.9150625 C24.0553918,15.4528125 23.0807953,16.1920312 21.6418246,16.660125 C21.077614,16.8436875 20.5619649,17.1816562 20.1092865,17.6646563 C19.8717193,17.9179688 19.5159766,18.2678437 19.0755556,18.6190312 C18.8594152,18.5042813 18.613614,18.4386563 18.3524678,18.4386563 L13.5518129,18.4386563 C12.6969825,18.4386563 12.0015906,19.1354062 12.0015906,19.9919062 L12.0015906,32.8185938 C12.0015906,33.6750938 12.6969825,34.3718438 13.5518129,34.3718438 L18.3524678,34.3718438 C18.9352047,34.3718438 19.4433684,34.0476562 19.7081637,33.5701875 L31.958269,33.5701875 C33.254269,33.5701875 34.3085848,32.5138125 34.3085848,31.2152813 C34.3085848,30.7786875 34.1894737,30.3695625 33.9819415,30.0185625 C34.6572164,29.604375 35.1086784,28.8583125 35.1086784,28.0085625 C35.1086784,27.5719688 34.9895673,27.1628438 34.7820351,26.8118438 C35.4573099,26.3976563 35.9087719,25.6515938 35.9087719,24.8018438 C35.9087719,24.3104063 35.7577544,23.8536563 35.4997895,23.4756563 C36.2289591,22.9794375 36.7089591,22.141875 36.7089591,21.1941562 Z M33.9585497,22.44675 L33.5584561,22.44675 C33.1442339,22.44675 32.8083275,22.7832187 32.8083275,23.1983437 C32.8083275,23.613375 33.1441404,23.9499375 33.5584561,23.9499375 C34.0272281,23.9499375 34.4086082,24.3320625 34.4086082,24.80175 C34.4086082,25.2714375 34.0272281,25.6535625 33.5584561,25.6535625 L32.7583626,25.6535625 C32.3441404,25.6535625 32.0082339,25.9900312 32.0082339,26.4051562 C32.0082339,26.8201875 32.3440468,27.15675 32.7583626,27.15675 C33.2271345,27.15675 33.6085146,27.538875 33.6085146,28.0085625 C33.6085146,28.47825 33.2271345,28.860375 32.7583626,28.860375 L31.958269,28.860375 C31.5440468,28.860375 31.2081404,29.1968437 31.2081404,29.6119687 C31.2081404,30.027 31.5439532,30.3635625 31.958269,30.3635625 C32.4270409,30.3635625 32.8084211,30.7456875 32.8084211,31.215375 C32.8084211,31.6850625 32.4270409,32.0671875 31.958269,32.0671875 L19.9026901,32.0671875 L19.9026901,24.8020312 C19.9026901,24.387 19.5668772,24.0504375 19.1525614,24.0504375 C18.7382456,24.0504375 18.4024327,24.3869062 18.4024327,24.8020312 L18.4024327,32.8186875 C18.4024327,32.8463438 18.3800702,32.86875 18.3524678,32.86875 L13.5518129,32.86875 C13.5242105,32.86875 13.501848,32.8463438 13.501848,32.8186875 L13.501848,19.991625 C13.501848,19.9639687 13.5242105,19.9415625 13.5518129,19.9415625 L18.3524678,19.9415625 C18.3800702,19.9415625 18.4024327,19.9639687 18.4024327,19.991625 L18.4024327,21.5950312 C18.4024327,22.0100625 18.7382456,22.346625 19.1525614,22.346625 C19.5668772,22.346625 19.9026901,22.0101562 19.9026901,21.5950312 L19.9026901,19.991625 C19.9026901,19.9551562 19.8996959,19.9194375 19.8971696,19.883625 C20.4596023,19.4474063 20.9093801,19.0064062 21.202807,18.6934688 C21.4804211,18.397125 21.7839532,18.1940625 22.1049825,18.0897187 C23.8705965,17.5154063 25.058807,16.5906562 25.7445614,15.9160312 C26.6040702,15.0705 27.1170994,14.1890625 27.1170994,13.5580313 C27.1170994,13.2246563 27.2468772,12.9121875 27.4825731,12.6781875 C27.7211696,12.4412813 28.0371462,12.316125 28.3785731,12.3156563 C28.7990643,12.3195938 29.0775205,12.535125 29.2372398,12.7153125 C29.5110175,13.0242188 29.6457544,13.4684063 29.5981287,13.9033125 C29.4342924,15.3966563 28.2423392,17.2425938 26.5614971,18.6059063 C26.3145731,18.80625 26.2203509,19.14075 26.3263626,19.4408438 C26.4323743,19.7409375 26.7156959,19.9415625 27.0334503,19.9415625 L33.9583626,19.9415625 C34.6477661,19.9415625 35.2085146,20.5034063 35.2085146,21.1941563 C35.2085146,21.8849063 34.6478596,22.44675 33.9585497,22.44675 Z" id="Shape"></path>
            <path d="M15.9521871,29.6536875 C15.5379649,29.6536875 15.1981287,29.9941875 15.1981287,30.4092188 C15.1981287,30.82425 15.5379649,31.16475 15.9521871,31.16475 C16.3664094,31.16475 16.7062456,30.82425 16.7062456,30.4092188 C16.7063392,29.9942813 16.3665029,29.6536875 15.9521871,29.6536875 Z" id="Shape"></path>
            <path d="M46.5693567,24 L47.8579649,20.5834687 C47.9518129,20.3349375 47.9075556,20.0552813 47.7416608,19.8478125 L45.4624561,16.9974375 L45.6342456,13.3491563 C45.6467836,13.0838437 45.5184094,12.831375 45.2968421,12.6855938 L42.2501053,10.680375 L41.2884211,7.1574375 C41.2184327,6.901125 41.0185731,6.700875 40.7628538,6.63084375 L37.2467836,5.66728125 L35.2454737,2.6146875 C35.099883,2.39259375 34.848,2.26453125 34.5832047,2.276625 L30.9420351,2.44875 L28.0972164,0.16509375 C27.8902456,-0.00103125 27.6111345,-0.045375 27.3629942,0.0485625 L23.9531228,1.3396875 L20.5434386,0.04865625 C20.2952047,-0.045375 20.0161871,-0.00103125 19.8092164,0.1651875 L16.9643977,2.44884375 L13.3232281,2.27671875 C13.0571228,2.26415625 12.8064561,2.39278125 12.6609591,2.61478125 L10.6597427,5.66746875 L7.14367251,6.63103125 C6.88785965,6.70115625 6.688,6.90140625 6.61810526,7.157625 L5.65642105,10.6805625 L2.60968421,12.6856875 C2.38802339,12.8315625 2.25974269,13.0839375 2.2722807,13.34925 L2.44407018,16.9975312 L0.164865497,19.8479063 C-0.000935672515,20.0552813 -0.0451929825,20.3349375 0.0485614035,20.5835625 L1.33707602,24 L0.0484678363,27.4164375 C-0.045380117,27.6649687 -0.00112280702,27.944625 0.16477193,28.1520937 L2.44397661,31.0024687 L2.27218713,34.65075 C2.25964912,34.9160625 2.38802339,35.1685313 2.60959064,35.3143125 L5.65632749,37.3195312 L6.6180117,40.8424688 C6.688,41.0987813 6.88785965,41.2990313 7.14357895,41.3690625 L10.6596491,42.332625 L12.6608655,45.3853125 C12.8064561,45.6074063 13.058807,45.7350938 13.3231345,45.723375 L16.9643041,45.55125 L19.8091228,47.8349063 C20.0160936,48.001125 20.2952982,48.0454688 20.543345,47.9514375 L23.9532164,46.6603125 L27.3630877,47.9514375 C27.4491696,47.9839688 27.5389006,47.9999063 27.6281637,47.9999063 C27.7962105,47.9999063 27.9621053,47.943375 28.0972164,47.8349063 L30.9420351,45.55125 L34.5832047,45.723375 C34.8488421,45.7351875 35.099883,45.6073125 35.2454737,45.3853125 L37.2467836,42.332625 L40.7628538,41.3690625 C41.0186667,41.2989375 41.2185263,41.0986875 41.2884211,40.8424688 L42.2501053,37.3195313 L45.2968421,35.3143125 C45.5185029,35.1684375 45.6467836,34.9160625 45.6342456,34.65075 L45.4624561,31.0024688 L47.7416608,28.1520938 C47.907462,27.9447188 47.9517193,27.6650625 47.8579649,27.4164375 L46.5693567,24 Z M45.0658246,24.2656875 L46.303345,27.5468437 L44.1144327,30.28425 C44.0001871,30.4270313 43.9418947,30.60675 43.9505029,30.7895625 L44.1155556,34.2932813 L41.189614,36.219 C41.0370058,36.3194063 40.9260351,36.4723125 40.877848,36.6489375 L39.9542456,40.0322812 L36.5774971,40.9576875 C36.4013099,41.0059687 36.2487953,41.1170625 36.1483977,41.2700625 L34.2264327,44.2017187 L30.7295439,44.0363438 C30.5469942,44.0279063 30.3677193,44.086125 30.2252164,44.2005937 L27.4931462,46.3937813 L24.218386,45.1538438 C24.1329591,45.1215 24.0430409,45.105375 23.9532164,45.105375 C23.8633918,45.105375 23.7734737,45.1215938 23.6880468,45.1538438 L20.4132865,46.3937813 L17.6812164,44.2005937 C17.5387135,44.086125 17.3590643,44.0279063 17.1768889,44.0363438 L13.68,44.2017187 L11.7580351,41.2700625 C11.6578246,41.1171563 11.5052164,41.0059687 11.3289357,40.9576875 L7.95218713,40.0322812 L7.0285848,36.6489375 C6.98039766,36.4724063 6.86952047,36.3195938 6.71681871,36.219 L3.79087719,34.2932813 L3.95592982,30.7895625 C3.96453801,30.6066562 3.90624561,30.4270312 3.792,30.28425 L1.60308772,27.5468437 L2.84070175,24.2656875 C2.90526316,24.0945 2.90526316,23.9055 2.84070175,23.7343125 L1.60308772,20.4531562 L3.792,17.71575 C3.90624561,17.5729687 3.96453801,17.39325 3.95592982,17.2104375 L3.79087719,13.7067188 L6.71681871,11.781 C6.8694269,11.6805937 6.98039766,11.5276875 7.0285848,11.3510625 L7.95218713,7.96771875 L11.3289357,7.0423125 C11.5051228,6.99403125 11.6576374,6.8829375 11.7580351,6.7299375 L13.68,3.79828125 L17.1768889,3.96365625 C17.3591579,3.9721875 17.5387135,3.913875 17.6812164,3.79940625 L20.4132865,1.60621875 L23.6880468,2.84625 C23.8589942,2.9109375 24.0475322,2.9109375 24.218386,2.84625 L27.4931462,1.60621875 L30.2252164,3.79940625 C30.3677193,3.91396875 30.5471813,3.97228125 30.7295439,3.96365625 L34.2264327,3.79828125 L36.1483977,6.7299375 C36.2486082,6.88284375 36.4012164,6.99403125 36.5774971,7.0423125 L39.9542456,7.96771875 L40.877848,11.3510625 C40.9260351,11.5275938 41.0369123,11.6804063 41.189614,11.781 L44.1155556,13.7067188 L43.9505029,17.2104375 C43.9418947,17.3933437 44.0001871,17.5729687 44.1144327,17.71575 L46.303345,20.4531562 L45.065731,23.7343125 C45.0012632,23.9055937 45.0012632,24.0945 45.0658246,24.2656875 Z" id="Shape"></path>
            <path d="M38.0476257,11.0225625 C37.8609591,10.8189375 37.6673684,10.6164375 37.4719064,10.4206875 C37.2764444,10.2249375 37.0744327,10.030875 36.8712047,9.84384375 C36.5660819,9.56315625 36.0916023,9.58340625 35.8113684,9.88921875 C35.5312281,10.1949375 35.5514386,10.6704375 35.856655,10.951125 C36.0440702,11.123625 36.2306433,11.3026875 36.4110409,11.4834375 C36.591345,11.6640937 36.770152,11.851125 36.9424094,12.039 C37.0903392,12.2004375 37.2924444,12.2822812 37.4952047,12.2822812 C37.6764444,12.2822812 37.8582456,12.2168437 38.0022456,12.084375 C38.307462,11.8037812 38.3277661,11.3282812 38.0476257,11.0225625 Z" id="Shape"></path>
            <path d="M34.2074386,7.79296875 C30.5901287,5.48390625 26.2349474,4.45771875 21.9446082,4.90275 C17.5913918,5.354625 13.4865965,7.3141875 10.386152,10.4205937 C6.97403509,13.839375 4.9874152,18.381 4.79223392,23.2088437 C4.59826901,28.0082813 6.18479532,32.6680313 9.25969591,36.3295313 C9.408,36.5061563 9.62021053,36.5971875 9.83410526,36.5971875 C10.0045848,36.5971875 10.176,36.53925 10.3166316,36.42075 C10.6335439,36.1534688 10.6743392,35.679375 10.4076725,35.3618437 C7.57436257,31.987875 6.11246784,27.6935625 6.29118129,23.2697812 C6.47101754,18.8202187 8.30194152,14.6344687 11.4468304,11.4835312 C14.3043743,8.6203125 18.0874854,6.81421875 22.0990877,6.397875 C26.0546433,5.98725 30.0683041,6.93309375 33.4012632,9.06065625 C33.7507368,9.2836875 34.214269,9.18075 34.4368655,8.8306875 C34.6595556,8.48053125 34.5567251,8.016 34.2074386,7.79296875 Z" id="Shape"></path>
            <path d="M40.0945965,13.6915312 C39.872,13.341375 39.4080936,13.2384375 39.0589006,13.4614687 C38.7094269,13.6845 38.6067836,14.149125 38.8293801,14.4990937 C40.9527953,17.8386562 41.8966082,21.8603437 41.4869708,25.8233437 C41.0714386,29.8427812 39.2688655,33.6331875 36.4113216,36.4965 C33.2664327,39.6474375 29.0888421,41.4820312 24.6480468,41.6622187 C20.2336374,41.8420312 15.9468538,40.376625 12.5795556,37.537875 C12.2626433,37.2705937 11.7894737,37.3114687 11.5227135,37.6290937 C11.2559532,37.946625 11.2967485,38.4207187 11.6137544,38.688 C15.0683509,41.6003437 19.4126784,43.1802187 23.9240234,43.180125 C24.1849825,43.180125 24.4469708,43.1747812 24.7089591,43.1641875 C29.5273918,42.9687187 34.0600702,40.9782187 37.4722807,37.5594375 C40.5727251,34.4529375 42.5285614,30.3400312 42.9793684,25.9783125 C43.4236257,21.6793125 42.3991579,17.3158125 40.0945965,13.6915312 Z" id="Shape"></path>
        </g>
    </g>
</svg>