<?xml version="1.0" encoding="UTF-8"?>
<svg width="48px" height="48px" viewBox="0 0 48 48" version="1.1" xmlns="http://www.w3.org/2000/svg" xmlns:xlink="http://www.w3.org/1999/xlink">
    <!-- Generator: Sketch 47.1 (45422) - http://www.bohemiancoding.com/sketch -->
    <title>Untitled 2</title>
    <desc>Created with Sketch.</desc>
    <defs></defs>
    <g id="Page-1" stroke="none" stroke-width="1" fill="none" fill-rule="evenodd">
        <g id="tab-icon6_active" fill-rule="nonzero">
            <path d="M24.2905263,2.0154375 L27.1191579,0.9444375 C27.4346667,0.825 27.7897544,0.88134375 28.0529591,1.09265625 L30.4129123,2.9870625 C30.5942456,3.13265625 30.8223626,3.20690625 31.0544094,3.1959375 L34.0750409,3.05315625 C34.4119766,3.03721875 34.7322573,3.20071875 34.9174269,3.48328125 L36.5775906,6.01565625 C36.7051228,6.21028125 36.8990877,6.35146875 37.1232749,6.412875 L40.0400468,7.21228125 C40.3653801,7.3014375 40.6195088,7.5560625 40.7084912,7.88203125 L41.5063392,10.8045 C41.5676257,11.0290312 41.708538,11.2234687 41.9027836,11.35125 L44.4302222,13.0146562 C44.7121404,13.2002812 44.8754152,13.5210937 44.8595088,13.8586875 L44.7170058,16.8852187 C44.7060585,17.1177187 44.7802573,17.3462813 44.9254737,17.5279687 L46.8161871,19.8925312 C47.0270877,20.15625 47.0833216,20.5120312 46.964117,20.8281562 L45.8952047,23.6623125 C45.8130526,23.8800937 45.8130526,24.120375 45.8952047,24.3381562 L46.964117,27.1723125 C47.0833216,27.4884375 47.0270877,27.8442187 46.8161871,28.1079375 L44.9254737,30.4725 C44.7801637,30.6541875 44.7060585,30.88275 44.7170058,31.11525 L44.8595088,34.1417813 C44.8754152,34.479375 44.7122339,34.8002813 44.4302222,34.9858125 L41.9027836,36.6492187 C41.708538,36.777 41.5676257,36.9713437 41.5063392,37.1959687 L40.7084912,40.1184375 C40.6195088,40.4444062 40.3653801,40.6990312 40.0400468,40.7881875 L37.1232749,41.5875937 C36.8991813,41.649 36.7051228,41.7901875 36.5775906,41.9848125 L34.9174269,44.5171875 C34.7321637,44.7996562 34.4119766,44.96325 34.0750409,44.9473125 L31.0544094,44.8045313 C30.8223626,44.7935625 30.5942456,44.8679062 30.4129123,45.0134062 L28.0529591,46.9078125 C27.7897544,47.119125 27.4346667,47.1754688 27.1191579,47.0560312 L24.2905263,45.9850313 C24.0731696,45.9027188 23.8333567,45.9027188 23.616,45.9850313 L20.7873684,47.0560312 C20.4718596,47.1754688 20.1167719,47.119125 19.8535673,46.9078125 L17.493614,45.0134062 C17.3122807,44.8678125 17.0841637,44.7935625 16.852117,44.8045313 L13.8314854,44.9473125 C13.4945497,44.96325 13.174269,44.79975 12.9890994,44.5171875 L11.3289357,41.9848125 C11.2014035,41.7901875 11.0074386,41.649 10.7832515,41.5875937 L7.86647953,40.7881875 C7.5411462,40.6990312 7.28701754,40.4444063 7.19803509,40.1184375 L6.40018713,37.1959687 C6.33890058,36.9714375 6.1979883,36.777 6.00374269,36.6492187 L3.47639766,34.985625 C3.19447953,34.8 3.03120468,34.4791875 3.04711111,34.1415938 L3.18961404,31.1150625 C3.2005614,30.8824687 3.12636257,30.654 2.9811462,30.4723125 L1.09043275,28.10775 C0.879532164,27.8440313 0.823298246,27.48825 0.942502924,27.172125 L2.0114152,24.3379687 C2.09356725,24.1201875 2.09356725,23.8799062 2.0114152,23.662125 L0.942502924,20.8277812 C0.823298246,20.5116562 0.879532164,20.155875 1.09043275,19.8921562 L2.9811462,17.5275937 C3.12645614,17.3459062 3.2005614,17.1173437 3.18961404,16.8848437 L3.04711111,13.8583125 C3.03120468,13.5207187 3.19438596,13.1998125 3.47639766,13.0142812 L6.00383626,11.350875 C6.19808187,11.2230938 6.33899415,11.02875 6.4002807,10.804125 L7.19812865,7.88165625 C7.28711111,7.5556875 7.54123977,7.3010625 7.8665731,7.21190625 L10.783345,6.4125 C11.0074386,6.35109375 11.2014971,6.20990625 11.3290292,6.01528125 L12.989193,3.48290625 C13.1744561,3.2004375 13.4946433,3.03684375 13.8315789,3.05278125 L16.8522105,3.1955625 C17.0842573,3.206625 17.3123743,3.1321875 17.4937076,2.9866875 L19.8536608,1.09228125 C20.1168655,0.88096875 20.4719532,0.824625 20.787462,0.9440625 L23.6160936,2.0150625 C23.8332632,2.09765625 24.0731696,2.09765625 24.2905263,2.0154375 Z" id="Shape" fill="#FFC850"></path>
            <path d="M31.1542456,40.8349687 C17.897731,40.8349687 7.15106433,30.0674062 7.15106433,16.7849062 C7.15106433,13.2275625 7.92804678,9.8540625 9.3114386,6.81609375 L7.86666667,7.21209375 C7.54133333,7.30125 7.28720468,7.555875 7.19822222,7.88184375 L6.4002807,10.8043125 C6.33899415,11.0288438 6.19808187,11.2232812 6.00383626,11.3511562 L3.47639766,13.0145625 C3.19447953,13.2001875 3.03120468,13.521 3.04711111,13.8585 L3.18961404,16.8850313 C3.2005614,17.1175312 3.12636257,17.3460938 2.9811462,17.5277813 L1.09043275,19.8923438 C0.879532164,20.1560625 0.823298246,20.5118438 0.942502924,20.827875 L2.0114152,23.6620312 C2.09356725,23.8798125 2.09356725,24.1200938 2.0114152,24.337875 L0.942502924,27.1720313 C0.823298246,27.4881563 0.879532164,27.8439375 1.09043275,28.1076563 L2.9811462,30.4722188 C3.12645614,30.6539062 3.2005614,30.8824688 3.18961404,31.1149687 L3.04711111,34.1415 C3.03120468,34.4790938 3.19438596,34.8 3.47639766,34.9855313 L6.00383626,36.6489375 C6.1979883,36.7767188 6.33899415,36.9710625 6.4002807,37.1956875 L7.19822222,40.1181562 C7.28720468,40.444125 7.54133333,40.69875 7.86666667,40.7880938 L10.7834386,41.5875938 C11.0075322,41.649 11.2015906,41.7901875 11.3291228,41.9848125 L12.9892865,44.5171875 C13.1745497,44.7996563 13.4947368,44.9631563 13.8316725,44.9473125 L16.8522105,44.8045313 C17.0843509,44.7935625 17.3124678,44.8679063 17.4938012,45.0134063 L19.8537544,46.9078125 C20.1169591,47.1190313 20.4720468,47.1754688 20.787462,47.0560313 L23.6160936,45.9850313 C23.8334503,45.9027188 24.0732632,45.9027188 24.2906199,45.9850313 L27.1192515,47.0560313 C27.4347602,47.1754688 27.789848,47.119125 28.0529591,46.9078125 L30.4129123,45.0134063 C30.5942456,44.8679063 30.8223626,44.7936563 31.0545029,44.8045313 L34.0750409,44.9473125 C34.4119766,44.96325 34.7322573,44.79975 34.9174269,44.5171875 L36.5775906,41.9848125 C36.7051228,41.7902813 36.8990877,41.649 37.1232749,41.5875938 L40.0400468,40.7880938 C40.3653801,40.6989375 40.6195088,40.4443125 40.7084912,40.1181562 L41.1037193,38.6705625 C38.0714854,40.0565625 34.7045614,40.8349687 31.1542456,40.8349687 Z" id="Shape" fill="#E1A546"></path>
            <ellipse id="Oval" fill="#FFDC64" cx="23.9531228" cy="24" rx="18.4024327" ry="18.438375"></ellipse>
            <path d="M31.4888421,37.1183437 C31.3544795,36.894 31.1211228,36.7509375 30.8612865,36.7243125 C21.5878363,35.77425 14.3519064,27.9304687 14.3519064,18.3882188 C14.3519064,15.9705937 14.818807,13.663125 15.6640936,11.548125 C15.8798596,11.0084063 15.2772865,10.5199688 14.8015906,10.852875 C10.1902222,14.07975 7.35279532,19.6746562 8.0582924,25.881375 C8.87859649,33.0980625 14.6366316,38.9387812 21.8232515,39.89175 C25.2221754,40.3425 28.4218947,39.6929062 31.1729591,38.2828125 C31.5950409,38.0665312 31.7327719,37.5257812 31.4888421,37.1183437 L31.4888421,37.1183437 Z" id="Shape" fill="#FFC850"></path>
            <path d="M35.9588304,21.1941562 C35.9588304,20.08725 35.0632982,19.1899687 33.9585497,19.1899687 L27.033731,19.1899687 C28.8962807,17.679 30.1611228,15.6522187 30.3439532,13.9853437 C30.4794386,12.7493437 29.6265731,11.5755 28.3856842,11.5639687 C27.2727953,11.5536562 26.3670643,12.4453125 26.3670643,13.5578437 C26.3670643,14.279625 24.8035556,16.421625 21.8734971,17.3746875 C21.4036959,17.5274062 20.994152,17.818125 20.6560936,18.178875 C20.4070175,18.4444687 19.7434386,19.2534375 19.0927719,19.6945312 C18.9746901,19.3994062 18.6892164,19.189875 18.3524678,19.189875 L13.5518129,19.189875 C13.1099883,19.189875 12.7517193,19.5488437 12.7517193,19.9915312 L12.7517193,32.8182187 C12.7517193,33.2609062 13.1099883,33.619875 13.5518129,33.619875 L18.3524678,33.619875 C18.7942924,33.619875 19.1525614,33.2609062 19.1525614,32.8182187 L31.958269,32.8182187 C32.8421053,32.8182187 33.5584561,32.1002812 33.5584561,31.2149062 C33.5584561,30.3293437 32.8421053,29.6115937 31.958269,29.6115937 L32.7583626,29.6115937 C33.6421988,29.6115937 34.3585497,28.8936562 34.3585497,28.0082812 C34.3585497,27.1227187 33.6421988,26.4049687 32.7583626,26.4049687 L33.5584561,26.4049687 C34.4422924,26.4049687 35.1586433,25.6870312 35.1586433,24.8016563 C35.1586433,23.9160938 34.4422924,23.1983438 33.5584561,23.1983438 L33.9585497,23.1983438 C35.0632047,23.19825 35.9588304,22.3010625 35.9588304,21.1941562 Z" id="Shape" fill="#FFFFFF"></path>
            <g id="Group" transform="translate(12.725146, 11.531250)" fill="#FFFAB4">
                <path d="M18.4290994,16.4770312 C17.9872749,16.4770312 17.6290058,16.836 17.6290058,17.2786875 C17.6290058,17.721375 17.9872749,18.0803437 18.4290994,18.0803437 L19.2332164,18.0803437 L19.9477895,18.0803437 C20.7448889,18.0803437 21.4836959,17.5345312 21.6116959,16.7461875 C21.6264795,16.6545 21.6256374,16.5658125 21.6254503,16.4770312 L18.4290994,16.4770312 Z" id="Shape"></path>
                <path d="M18.4290994,13.2704062 C17.9872749,13.2704062 17.6290058,13.629375 17.6290058,14.0720625 C17.6290058,14.51475 17.9872749,14.8737187 18.4290994,14.8737187 L20.0333099,14.8737187 L20.747883,14.8737187 C21.5449825,14.8737187 22.2837895,14.3279062 22.4117895,13.5395625 C22.4265731,13.447875 22.425731,13.3591875 22.4256374,13.2704062 L18.4290994,13.2704062 Z" id="Shape"></path>
                <path d="M18.4290994,10.0636875 C17.9872749,10.0636875 17.6290058,10.4226563 17.6290058,10.8653437 C17.6290058,11.3080312 17.9872749,11.667 18.4290994,11.667 L20.8334035,11.667 L21.2334971,11.667 C22.1999532,11.667 22.9959298,10.9765312 23.1827836,10.0636875 L18.4290994,10.0636875 L18.4290994,10.0636875 Z" id="Shape"></path>
                <path d="M8.82778947,18.8820937 L8.82778947,9.0624375 C8.82778947,8.7135 9.05188304,8.40825 9.38273684,8.2996875 C10.9950877,7.77 15.5898947,5.79346875 15.9839064,0.38090625 C15.8504795,0.24375 15.7787135,0.16996875 15.6452865,0.0328125 C14.5394152,0.03075 13.6418246,0.91921875 13.6418246,2.02678125 C13.6418246,2.7485625 12.0783158,4.8905625 9.14825731,5.843625 C8.67845614,5.99634375 8.26891228,6.2870625 7.9308538,6.6478125 C7.68945029,6.90525 7.05833918,7.67053125 6.42732164,8.11921875 L6.42732164,19.68375 L4.02704094,19.68375 C3.14320468,19.68375 2.4268538,18.966 2.4268538,18.0804375 L2.4268538,7.65871875 L0.826666667,7.65871875 C0.384842105,7.65871875 0.0265730994,8.0176875 0.0265730994,8.460375 L0.0265730994,21.2870625 C0.0265730994,21.72975 0.384842105,22.0887187 0.826666667,22.0887187 L5.62732164,22.0887187 C6.0691462,22.0887187 6.4274152,21.72975 6.4274152,21.2870625 L19.2331228,21.2870625 C20.1169591,21.2870625 20.8333099,20.569125 20.8333099,19.68375 L9.62778947,19.68375 C9.18596491,19.68375 8.82778947,19.324875 8.82778947,18.8820937 Z" id="Shape"></path>
            </g>
            <path d="M36.7089591,21.1941562 C36.7089591,19.6745625 35.4751813,18.438375 33.9585497,18.438375 L28.9038596,18.438375 C30.1319298,17.0552813 30.9345497,15.480375 31.0895906,14.0674687 C31.1842807,13.2045 30.9181754,12.3479063 30.3592982,11.71725 C29.8485146,11.1407812 29.1500351,10.8195 28.3925146,10.8124687 C28.3837193,10.812375 28.374924,10.812375 28.3662222,10.812375 C27.6334971,10.812375 26.9457778,11.095125 26.4267602,11.610375 C25.9076491,12.1257188 25.6203977,12.81225 25.6170292,13.5449062 C25.5903626,13.7053125 25.3087251,14.2583437 24.6196023,14.9149687 C24.0553918,15.4527187 23.0807953,16.1919375 21.6418246,16.6600312 C21.077614,16.8435937 20.5619649,17.1815625 20.1092865,17.6645625 C19.8717193,17.917875 19.5159766,18.26775 19.0755556,18.6189375 C18.8594152,18.5041875 18.613614,18.4385625 18.3524678,18.4385625 L13.5518129,18.4385625 C12.6969825,18.4385625 12.0015906,19.1353125 12.0015906,19.9918125 L12.0015906,32.8185 C12.0015906,33.675 12.6969825,34.37175 13.5518129,34.37175 L18.3524678,34.37175 C18.9352047,34.37175 19.4433684,34.0475625 19.7081637,33.5700937 L31.958269,33.5700937 C33.254269,33.5700937 34.3085848,32.5137187 34.3085848,31.2151875 C34.3085848,30.7785937 34.1894737,30.3694687 33.9819415,30.0184687 C34.6572164,29.6042812 35.1086784,28.8582187 35.1086784,28.0084687 C35.1086784,27.571875 34.9895673,27.16275 34.7820351,26.81175 C35.4573099,26.3975625 35.9087719,25.6515 35.9087719,24.80175 C35.9087719,24.3103125 35.7577544,23.8535625 35.4997895,23.4755625 C36.2289591,22.9794375 36.7089591,22.141875 36.7089591,21.1941562 Z M33.9585497,22.44675 L33.5584561,22.44675 C33.1442339,22.44675 32.8083275,22.7832187 32.8083275,23.1983437 C32.8083275,23.613375 33.1441404,23.9499375 33.5584561,23.9499375 C34.0272281,23.9499375 34.4086082,24.3320625 34.4086082,24.80175 C34.4086082,25.2714375 34.0272281,25.6535625 33.5584561,25.6535625 L32.7583626,25.6535625 C32.3441404,25.6535625 32.0082339,25.9900312 32.0082339,26.4051562 C32.0082339,26.8202812 32.3440468,27.15675 32.7583626,27.15675 C33.2271345,27.15675 33.6085146,27.538875 33.6085146,28.0085625 C33.6085146,28.47825 33.2271345,28.860375 32.7583626,28.860375 L31.958269,28.860375 C31.5440468,28.860375 31.2081404,29.1968437 31.2081404,29.6119687 C31.2081404,30.0270937 31.5439532,30.3635625 31.958269,30.3635625 C32.4270409,30.3635625 32.8084211,30.7456875 32.8084211,31.215375 C32.8084211,31.6850625 32.4270409,32.0671875 31.958269,32.0671875 L19.9026901,32.0671875 L19.9026901,24.8020312 C19.9026901,24.387 19.5668772,24.0504375 19.1525614,24.0504375 C18.7383392,24.0504375 18.4024327,24.3869062 18.4024327,24.8020312 L18.4024327,32.8186875 C18.4024327,32.8463438 18.3800702,32.86875 18.3524678,32.86875 L13.5518129,32.86875 C13.5242105,32.86875 13.501848,32.8463438 13.501848,32.8186875 L13.501848,19.991625 C13.501848,19.9639687 13.5242105,19.9415625 13.5518129,19.9415625 L18.3524678,19.9415625 C18.3800702,19.9415625 18.4024327,19.9639687 18.4024327,19.991625 L18.4024327,21.5950312 C18.4024327,22.0100625 18.7382456,22.346625 19.1525614,22.346625 C19.5667836,22.346625 19.9026901,22.0101562 19.9026901,21.5950312 L19.9026901,19.991625 C19.9026901,19.9551562 19.8996959,19.9194375 19.8971696,19.883625 C20.4596023,19.4474063 20.9093801,19.0064062 21.202807,18.6934688 C21.4804211,18.397125 21.7839532,18.1940625 22.1049825,18.0897187 C23.8705965,17.5154062 25.058807,16.5906562 25.7445614,15.9160312 C26.6040702,15.0705 27.1170994,14.1890625 27.1170994,13.5580313 C27.1170994,13.2246563 27.2468772,12.9121875 27.4825731,12.6781875 C27.7211696,12.4412813 28.0371462,12.316125 28.3785731,12.3156563 C28.7990643,12.3195938 29.0775205,12.535125 29.2372398,12.7153125 C29.5110175,13.0242188 29.6457544,13.4684063 29.5981287,13.9033125 C29.4342924,15.3966563 28.2423392,17.2425938 26.5614971,18.6059063 C26.3145731,18.80625 26.2203509,19.14075 26.3263626,19.4408438 C26.4323743,19.7409375 26.7156959,19.9415625 27.0334503,19.9415625 L33.9583626,19.9415625 C34.6477661,19.9415625 35.2085146,20.5034063 35.2085146,21.1941563 C35.2085146,21.8849063 34.6478596,22.44675 33.9585497,22.44675 Z" id="Shape" fill="#000000"></path>
            <path d="M15.9521871,29.6536875 C15.5379649,29.6536875 15.1981287,29.9941875 15.1981287,30.4092188 C15.1981287,30.82425 15.5379649,31.16475 15.9521871,31.16475 C16.3664094,31.16475 16.7062456,30.82425 16.7062456,30.4092188 C16.7062456,29.9941875 16.3665029,29.6536875 15.9521871,29.6536875 Z" id="Shape" fill="#000000"></path>
            <path d="M46.5693567,24 L47.8579649,20.5834687 C47.9518129,20.3349375 47.9075556,20.0552813 47.7416608,19.8478125 L45.4624561,16.9974375 L45.6342456,13.3491563 C45.6467836,13.0838437 45.5184094,12.831375 45.2968421,12.6855938 L42.2501053,10.680375 L41.2884211,7.1574375 C41.2184327,6.901125 41.0185731,6.700875 40.7628538,6.63084375 L37.2467836,5.66728125 L35.2454737,2.6146875 C35.099883,2.39259375 34.848,2.26453125 34.5832047,2.276625 L30.9420351,2.44875 L28.0972164,0.16509375 C27.8902456,-0.00103125 27.6111345,-0.045375 27.3629942,0.0485625 L23.9531228,1.3396875 L20.5434386,0.04865625 C20.2952047,-0.045375 20.0161871,-0.00103125 19.8092164,0.1651875 L16.9643977,2.44884375 L13.3232281,2.27671875 C13.0571228,2.26415625 12.8064561,2.39278125 12.6609591,2.61478125 L10.6596491,5.66746875 L7.14367251,6.63103125 C6.88785965,6.70115625 6.688,6.90140625 6.61810526,7.157625 L5.65642105,10.6805625 L2.60968421,12.6857813 C2.38802339,12.8316563 2.25974269,13.0840312 2.2722807,13.3493438 L2.44407018,16.997625 L0.164865497,19.8479063 C-0.000935672515,20.0552813 -0.0451929825,20.3349375 0.0485614035,20.5835625 L1.33707602,24 L0.0484678363,27.4164375 C-0.045380117,27.6649687 -0.00112280702,27.944625 0.16477193,28.1520937 L2.44397661,31.0024687 L2.27218713,34.65075 C2.25964912,34.9160625 2.38802339,35.1685313 2.60959064,35.3143125 L5.65632749,37.3195312 L6.6180117,40.8424688 C6.688,41.0987813 6.88785965,41.2990313 7.14357895,41.3690625 L10.6596491,42.332625 L12.6609591,45.3853125 C12.8065497,45.6074063 13.0589006,45.7351875 13.3232281,45.723375 L16.9643977,45.55125 L19.8092164,47.8349063 C20.0161871,48.001125 20.2953918,48.0454688 20.5434386,47.9514375 L23.9533099,46.6603125 L27.3631813,47.9514375 C27.4492632,47.9839688 27.5389942,47.9999063 27.6282573,47.9999063 C27.7963041,47.9999063 27.9621988,47.943375 28.0973099,47.8349063 L30.9421287,45.55125 L34.5832982,45.723375 C34.8489357,45.7351875 35.0999766,45.6073125 35.2455673,45.3853125 L37.2468772,42.332625 L40.7629474,41.3690625 C41.0187602,41.2989375 41.2186199,41.0986875 41.2885146,40.8424688 L42.2501988,37.3195313 L45.2969357,35.3143125 C45.5185965,35.1684375 45.6468772,34.9160625 45.6343392,34.65075 L45.4625497,31.0024688 L47.7417544,28.1520938 C47.9075556,27.9447188 47.9518129,27.6650625 47.8580585,27.4164375 L46.5693567,24 Z M45.0658246,24.2656875 L46.303345,27.5468438 L44.1144327,30.28425 C44.0001871,30.4270313 43.9418947,30.60675 43.9505029,30.7895625 L44.1155556,34.2932813 L41.1895205,36.219 C41.0369123,36.3194063 40.9259415,36.4723125 40.8777544,36.6489375 L39.954152,40.0322813 L36.5774035,40.9576875 C36.4012164,41.0059688 36.2487018,41.1170625 36.1483041,41.2700625 L34.2263392,44.2018125 L30.7294503,44.0364375 C30.5469006,44.028 30.3676257,44.0862188 30.2251228,44.2006875 L27.4930526,46.393875 L24.2182924,45.1539375 C24.1328655,45.1215938 24.0429474,45.1054688 23.9531228,45.1054688 C23.8632982,45.1054688 23.7733801,45.1216875 23.6879532,45.1539375 L20.413193,46.393875 L17.6811228,44.2006875 C17.5386199,44.0862188 17.3589708,44.028 17.1767953,44.0364375 L13.6799064,44.2018125 L11.7579415,41.2700625 C11.657731,41.1171563 11.5051228,41.0059688 11.3288421,40.9576875 L7.95209357,40.0322813 L7.02849123,36.6489375 C6.98030409,36.4724063 6.8694269,36.3195938 6.71672515,36.219 L3.79078363,34.2932813 L3.95583626,30.7895625 C3.96444444,30.6066563 3.90615205,30.4270312 3.79190643,30.28425 L1.60299415,27.5468438 L2.84051462,24.2656875 C2.90516959,24.0945 2.90516959,23.9055 2.84051462,23.7343125 L1.60299415,20.4531562 L3.79190643,17.71575 C3.90615205,17.5729688 3.96444444,17.39325 3.95583626,17.2104375 L3.79078363,13.7067188 L6.71672515,11.781 C6.86933333,11.6805938 6.98030409,11.5276875 7.02849123,11.3510625 L7.95209357,7.96771875 L11.3288421,7.0423125 C11.5050292,6.99403125 11.6575439,6.8829375 11.7579415,6.7299375 L13.6799064,3.79828125 L17.1767953,3.96365625 C17.3590643,3.9721875 17.5386199,3.913875 17.6811228,3.79940625 L20.413193,1.60621875 L23.6879532,2.84615625 C23.8589006,2.9109375 24.0474386,2.9109375 24.2182924,2.84615625 L27.4930526,1.60621875 L30.2251228,3.79940625 C30.3676257,3.91396875 30.5470877,3.97228125 30.7294503,3.96365625 L34.2263392,3.79828125 L36.1483041,6.7299375 C36.2485146,6.88284375 36.4011228,6.99403125 36.5774035,7.0423125 L39.954152,7.96771875 L40.8777544,11.3510625 C40.9259415,11.5275938 41.0368187,11.6804063 41.1895205,11.781 L44.115462,13.7067188 L43.9504094,17.2104375 C43.9418012,17.3933438 44.0000936,17.5729688 44.1143392,17.71575 L46.3032515,20.4531562 L45.065731,23.7343125 C45.0012632,23.9055938 45.0012632,24.0945 45.0658246,24.2656875 Z" id="Shape" fill="#000000"></path>
            <path d="M36.4111345,11.4835312 C36.5914386,11.6641875 36.7702456,11.8512187 36.9425029,12.0390937 C37.0904327,12.2005312 37.292538,12.282375 37.4952982,12.282375 C37.676538,12.282375 37.8583392,12.2169375 38.0023392,12.0844687 C38.307462,11.8037812 38.3277661,11.3282812 38.0476257,11.0225625 C37.8609591,10.8189375 37.6673684,10.6164375 37.4719064,10.4206875 C37.2764444,10.2249375 37.0744327,10.030875 36.8712047,9.84384375 C36.5660819,9.56315625 36.0916023,9.58340625 35.8113684,9.88921875 C35.5312281,10.1949375 35.5514386,10.6704375 35.856655,10.951125 C36.0441637,11.123625 36.2306433,11.3026875 36.4111345,11.4835312 Z" id="Shape" fill="#000000"></path>
            <path d="M11.446924,11.4835312 C14.3044678,8.6203125 18.0875789,6.81421875 22.0990877,6.397875 C26.0546433,5.98725 30.0683041,6.93309375 33.4012632,9.06065625 C33.7507368,9.2836875 34.214269,9.18075 34.4368655,8.8306875 C34.659462,8.480625 34.5567251,8.01609375 34.207345,7.7930625 C30.5900351,5.484 26.2348538,4.4578125 21.9445146,4.90284375 C17.5912982,5.35471875 13.4865029,7.31428125 10.3860585,10.4206875 C6.97394152,13.8394687 4.98732164,18.3810937 4.79214035,23.2089375 C4.59826901,28.0082812 6.18479532,32.6680312 9.25969591,36.3295312 C9.408,36.5061562 9.62021053,36.5971875 9.83410526,36.5971875 C10.0045848,36.5971875 10.1759064,36.53925 10.3166316,36.42075 C10.6335439,36.1534688 10.6743392,35.679375 10.4076725,35.3618437 C7.57436257,31.987875 6.11246784,27.6935625 6.29127485,23.2697812 C6.47101754,18.8202187 8.30203509,14.6344687 11.446924,11.4835312 Z" id="Shape" fill="#000000"></path>
            <path d="M39.0589006,13.4614688 C38.7094269,13.6845 38.6067836,14.149125 38.8293801,14.4990938 C40.9527953,17.8386562 41.8966082,21.8603438 41.4869708,25.8233438 C41.0714386,29.8427813 39.2688655,33.6331875 36.4113216,36.4965 C33.2664327,39.6474375 29.0888421,41.4820313 24.6480468,41.6622188 C20.2336374,41.8420313 15.9468538,40.376625 12.5795556,37.537875 C12.2626433,37.2705938 11.7894737,37.3114688 11.5227135,37.6290938 C11.2559532,37.946625 11.2967485,38.4207188 11.6137544,38.688 C15.0683509,41.6003438 19.4126784,43.1802188 23.9240234,43.180125 C24.1849825,43.180125 24.4469708,43.1747813 24.7089591,43.1641875 C29.5273918,42.9687188 34.0600702,40.9782188 37.4722807,37.5594375 C40.5727251,34.4529375 42.5285614,30.3400313 42.9793684,25.9783125 C43.4238129,21.6794063 42.3994386,17.3159063 40.0947836,13.6915313 C39.872,13.341375 39.4080936,13.2383438 39.0589006,13.4614688 Z" id="Shape" fill="#000000"></path>
        </g>
    </g>
</svg>