<svg width="48" height="31" viewBox="0 0 48 31" version="1.1" xmlns="http://www.w3.org/2000/svg" xmlns:xlink="http://www.w3.org/1999/xlink">
<title>Vector</title>
<desc>Created using Figma</desc>
<g id="Canvas" transform="translate(-430 -1818)">
<g id="Vector">
<use xlink:href="#path0_fill" transform="translate(430.009 1818.01)" fill="#FFFFFF"/>
</g>
</g>
<defs>
<path id="path0_fill" d="M 47.981 28.6088C 47.503 30.3215 46.2001 30.9112 44.6161 30.9392C 41.5417 31.0048 38.4673 30.986 35.3929 30.986C 24.9231 30.986 14.444 30.9954 3.97421 30.9673C 3.2431 30.9673 2.48388 30.8176 1.78089 30.6117C 0.806089 30.3309 0.271821 29.5635 1.39665e-10 28.6088L 1.39665e-10 27.2986C 0.131224 26.9523 0.243701 26.5966 0.403045 26.2691C 0.881074 25.2864 1.63092 24.5657 2.60573 24.0604C 9.24191 20.5975 15.8687 17.1253 22.5049 13.6718C 22.8798 13.4753 23.0204 13.2694 22.9923 12.8482C 22.9548 12.2867 22.9735 11.7251 22.9829 11.1636C 22.9923 10.4055 23.3766 10.0311 24.1358 9.99371C 26.3385 9.90012 28.0631 8.06575 27.9788 5.92253C 27.8851 3.667 26.0573 1.94494 23.8452 2.02917C 21.8394 2.10404 20.2085 3.64828 20.0304 5.65112C 20.021 5.77278 20.0116 5.90381 19.9929 6.02548C 19.9179 6.67125 19.5055 7.04561 18.9243 7.01754C 18.362 6.9801 17.987 6.5683 18.0058 5.94125C 18.0714 3.68572 19.0743 1.94494 21.0239 0.840569C 23.0954 -0.329311 25.2231 -0.282516 27.2383 1.00903C 29.2535 2.30058 30.144 4.21918 29.9753 6.58702C 29.7972 9.09524 27.9132 11.2478 25.4199 11.8468C 25.0919 11.9217 25.0356 12.0621 24.9981 12.3709C 24.8763 13.1758 25.2231 13.5595 25.9261 13.9245C 32.4591 17.3031 38.9735 20.7192 45.4878 24.1352C 46.7344 24.7904 47.5686 25.8011 47.9061 27.1956C 47.9248 27.2705 47.9623 27.336 47.9904 27.4109L 47.9904 28.6088L 47.981 28.6088ZM 39.1141 23.0496C 37.2676 22.0856 35.4585 21.131 33.6402 20.1951C 33.4058 20.0734 33.1153 19.9985 32.8434 19.9985C 26.929 19.9892 21.0052 19.9892 15.0907 19.9985C 14.8564 19.9985 14.594 20.064 14.3878 20.1763C 12.6818 21.0467 10.9853 21.9358 9.2794 22.825C 9.14817 22.8905 9.01695 22.9747 8.86698 23.0683C 10.0574 24.8746 10.5073 26.8306 10.2073 28.9551L 37.755 28.9551C 37.4644 26.8213 37.8956 24.8746 39.1141 23.0496ZM 39.8264 28.9645C 41.4761 28.9645 43.0976 28.9645 44.7098 28.9645C 44.8504 28.9645 44.991 28.927 45.1222 28.8896C 45.7784 28.7399 46.0408 28.3842 45.9283 27.7104C 45.8159 26.9897 45.4128 26.4188 44.7942 26.0725C 43.5288 25.3519 42.2259 24.6968 40.9043 23.9948C 39.817 25.511 39.4609 27.1488 39.8264 28.9645ZM 7.04859 23.9948C 5.76447 24.6687 4.51785 25.3051 3.28997 25.979C 2.72758 26.2878 2.32454 26.7651 2.10895 27.3735C 1.79964 28.2532 2.09021 28.8054 2.9994 28.9083C 3.78674 28.9926 4.58346 28.9738 5.38018 28.9832C 6.29874 28.9926 7.20794 28.9832 8.14525 28.9832C 8.49205 27.1488 8.15462 25.511 7.04859 23.9948ZM 29.1973 17.977C 29.2067 17.9489 29.2254 17.9208 29.2348 17.8834C 27.5382 16.9943 25.8511 16.1052 24.1546 15.2348C 24.0421 15.1786 23.8265 15.2254 23.6953 15.3003C 22.13 16.1052 20.574 16.9288 19.0181 17.743C 18.9243 17.7898 18.84 17.8647 18.6806 17.977L 29.1973 17.977Z"/>
</defs>
</svg>
